STARTFONT 2.1
FONT -FontForge-Cousine-Bold-R-Normal--36-720-36-36-P-196-ISO10646-1
SIZE 72 36 36
FONTBOUNDINGBOX 43 49 -17 -13
COMMENT "Generated by fontforge, http://fontforge.sourceforge.net"
COMMENT "Digitized data copyright (c) 2010-2012 Google Corporation."
STARTPROPERTIES 40
FOUNDRY "FontForge"
FAMILY_NAME "Cousine"
WEIGHT_NAME "Bold"
SLANT "R"
SETWIDTH_NAME "Normal"
ADD_STYLE_NAME ""
PIXEL_SIZE 36
POINT_SIZE 720
RESOLUTION_X 36
RESOLUTION_Y 36
SPACING "P"
AVERAGE_WIDTH 196
CHARSET_REGISTRY "ISO10646"
CHARSET_ENCODING "1"
FONTNAME_REGISTRY ""
CHARSET_COLLECTIONS "ASCII ISOLatin1Encoding ISO8859-2 ISO8859-5 ISO8859-7 ISO8859-9 ISO8859-8 ISO8859-4 ISO10646-1"
FONT_NAME "Cousine-Bold"
FACE_NAME "Cousine Bold"
COPYRIGHT "Digitized data copyright (c) 2010-2012 Google Corporation."
FONT_VERSION "1.21"
FONT_ASCENT 29
FONT_DESCENT 7
UNDERLINE_POSITION -10
UNDERLINE_THICKNESS 4
X_HEIGHT 18
CAP_HEIGHT 23
RAW_ASCENT 799
RAW_DESCENT 200
NORM_SPACE 22
RELATIVE_WEIGHT 70
RELATIVE_SETWIDTH 50
SUPERSCRIPT_X 0
SUPERSCRIPT_Y 15
SUPERSCRIPT_SIZE 23
SUBSCRIPT_X 0
SUBSCRIPT_Y 5
SUBSCRIPT_SIZE 23
FIGURE_WIDTH 22
AVG_LOWERCASE_WIDTH 220
AVG_UPPERCASE_WIDTH 220
ENDPROPERTIES
CHARS 2338
STARTCHAR space
ENCODING 32
SWIDTH 600 0
DWIDTH 22 0
BBX 1 1 0 0
BITMAP
00
ENDCHAR
STARTCHAR exclam
ENCODING 33
SWIDTH 600 0
DWIDTH 22 0
BBX 5 24 9 0
BITMAP
F8
F8
F8
F8
F8
F8
F8
F8
F8
F8
F8
F8
F8
F8
F0
F0
00
00
00
F8
F8
F8
F8
F8
ENDCHAR
STARTCHAR quotedbl
ENCODING 34
SWIDTH 600 0
DWIDTH 22 0
BBX 13 12 4 15
BITMAP
F8F8
F8F8
F8F8
F8F8
F8F8
78F8
7878
7878
7878
7878
7878
7878
ENDCHAR
STARTCHAR numbersign
ENCODING 35
SWIDTH 600 0
DWIDTH 22 0
BBX 20 24 1 0
BITMAP
01C1C0
01C1C0
01C1C0
038380
038380
038380
7FFFF0
7FFFF0
7FFFF0
070700
070700
070700
0E0700
0E0E00
0E0E00
FFFFE0
FFFFE0
1C1C00
1C1C00
1C1C00
1C1C00
381C00
383800
383800
ENDCHAR
STARTCHAR dollar
ENCODING 36
SWIDTH 600 0
DWIDTH 22 0
BBX 20 29 1 -2
BITMAP
006000
006000
006000
006000
1FFF00
3FFF80
7FFFC0
7C63E0
7C63E0
7C6000
7C6000
3E6000
3FE000
1FFC00
0FFF80
01FFC0
007FC0
0067E0
0061F0
7861F0
F861F0
7C63E0
7C67E0
3FFFC0
1FFF80
1FFF80
006000
006000
006000
ENDCHAR
STARTCHAR percent
ENCODING 37
SWIDTH 600 0
DWIDTH 22 0
BBX 23 24 0 0
BITMAP
040070
3FC070
7FE0E0
F1C1C0
71C1C0
70E3C0
70E700
71C700
7BCE00
3FDC00
3FDC00
043800
007040
00E7F8
00E7FC
01CE1C
038E3C
038E1E
070F1E
0E0E1C
0E0E1C
3C07FC
3807F8
3800E0
ENDCHAR
STARTCHAR ampersand
ENCODING 38
SWIDTH 600 0
DWIDTH 22 0
BBX 22 24 0 0
BITMAP
002000
03FE00
07FF00
078780
0F0780
0F0780
078780
078F00
07FE00
03FC00
0FF000
1FC0F0
3FE0F0
3FF1E0
7CF1E0
7C7DE0
787FC0
783F80
F81F80
7C1F80
783FFC
3FFFFC
1FFFFC
07E038
ENDCHAR
STARTCHAR quotesingle
ENCODING 39
SWIDTH 600 0
DWIDTH 22 0
BBX 5 12 8 15
BITMAP
F8
F8
F8
F8
F8
78
78
78
78
78
78
78
ENDCHAR
STARTCHAR parenleft
ENCODING 40
SWIDTH 600 0
DWIDTH 22 0
BBX 11 34 6 -7
BITMAP
03E0
07C0
0F80
0F80
1F00
1F00
3E00
3E00
3E00
7C00
7C00
7C00
7C00
7C00
7C00
F800
F800
F800
F800
7C00
7C00
7C00
7C00
7C00
7C00
3E00
3E00
3E00
1F00
1F00
0F80
0F80
07C0
07C0
ENDCHAR
STARTCHAR parenright
ENCODING 41
SWIDTH 600 0
DWIDTH 22 0
BBX 11 34 5 -7
BITMAP
F800
7C00
3E00
3E00
1F00
1F00
0F80
0F80
0F80
07C0
07C0
07C0
07C0
03E0
03E0
03E0
03E0
03E0
03E0
03E0
03E0
07C0
07C0
07C0
07C0
07C0
0F80
0F80
0F80
1F00
1F00
3E00
7C00
7C00
ENDCHAR
STARTCHAR asterisk
ENCODING 42
SWIDTH 600 0
DWIDTH 22 0
BBX 14 13 4 13
BITMAP
0780
0780
4784
779C
7FFC
FFFC
3FF0
0FC0
1FE0
1EF0
7C78
1C70
0820
ENDCHAR
STARTCHAR plus
ENCODING 43
SWIDTH 600 0
DWIDTH 22 0
BBX 18 19 3 3
BITMAP
03C000
03C000
03C000
03C000
03C000
03C000
03C000
03C000
FFFFC0
FFFFC0
FFFFC0
FFFFC0
03C000
03C000
03C000
03C000
03C000
03C000
03C000
ENDCHAR
STARTCHAR comma
ENCODING 44
SWIDTH 600 0
DWIDTH 22 0
BBX 8 12 6 -6
BITMAP
1F
3E
3E
3E
7C
78
F8
78
F0
F0
F0
E0
ENDCHAR
STARTCHAR hyphen
ENCODING 45
SWIDTH 600 0
DWIDTH 22 0
BBX 10 4 7 8
BITMAP
FFC0
FFC0
FFC0
FFC0
ENDCHAR
STARTCHAR period
ENCODING 46
SWIDTH 600 0
DWIDTH 22 0
BBX 5 6 9 0
BITMAP
F8
F8
F8
F8
F8
F8
ENDCHAR
STARTCHAR slash
ENCODING 47
SWIDTH 600 0
DWIDTH 22 0
BBX 18 27 3 0
BITMAP
0003C0
000780
000780
000F00
000F00
001E00
001E00
003C00
003C00
007800
00F000
00F000
01E000
01E000
03C000
03C000
078000
078000
0F0000
0F0000
3E0000
3C0000
3C0000
780000
780000
F00000
F00000
ENDCHAR
STARTCHAR zero
ENCODING 48
SWIDTH 600 0
DWIDTH 22 0
BBX 18 25 2 0
BITMAP
004000
07FC00
0FFE00
1FFF00
3FFF00
3E0F80
7C0F80
7C0F80
7C07C0
7C07C0
7DE7C0
F9E7C0
F9E7C0
F9E7C0
7DE7C0
7C07C0
7C07C0
7C07C0
7C0F80
3E0F80
3E1F80
1FFF00
1FFF00
07FC00
01F000
ENDCHAR
STARTCHAR one
ENCODING 49
SWIDTH 600 0
DWIDTH 22 0
BBX 18 24 2 0
BITMAP
00F800
01F800
07F000
07F800
7FF000
7FF000
F9F000
79F000
01F000
01F000
01F000
01F000
01F000
01F000
01F000
01F000
01F000
01F000
01F000
01F000
FFFFC0
FFFFC0
FFFFC0
FFFFC0
ENDCHAR
STARTCHAR two
ENCODING 50
SWIDTH 600 0
DWIDTH 22 0
BBX 17 25 3 0
BITMAP
008000
1FF800
3FFC00
7FFE00
7FFF00
FC3F00
F81F00
F81F00
001F00
001F00
007F00
00FE00
01FC00
03F800
07F000
1FC000
1F8000
3F0000
7E0000
FC0000
FFFF80
FFFF80
FFFF80
FFFF80
FFFF80
ENDCHAR
STARTCHAR three
ENCODING 51
SWIDTH 600 0
DWIDTH 22 0
BBX 19 25 2 0
BITMAP
03C000
0FFC00
1FFF00
3FFF80
3FFFC0
7E0FC0
7E07C0
0007C0
0007C0
000F80
01FF80
01FF00
01F800
01FF80
00FF80
000FC0
0007C0
0003E0
7C03E0
FC07E0
7E0FC0
3FFFC0
1FFF80
1FFF00
03F800
ENDCHAR
STARTCHAR four
ENCODING 52
SWIDTH 600 0
DWIDTH 22 0
BBX 19 24 2 0
BITMAP
007E00
007F00
00FE00
01FE00
01FF00
03FF00
079F00
079F00
0F9F00
1E1F00
1E1F00
7C1F00
781F00
F01F00
F01F00
FFFFE0
FFFFE0
FFFFE0
001F00
001F00
001F00
001F00
001F00
001F00
ENDCHAR
STARTCHAR five
ENCODING 53
SWIDTH 600 0
DWIDTH 22 0
BBX 18 24 2 0
BITMAP
3FFF80
3FFF80
3FFF80
3FFF80
3E0000
3E0000
7C0000
7C0000
7C2000
3FFF00
7FFF00
7FFF80
7FFFC0
000FC0
0007C0
0007C0
0007C0
F807C0
FC07C0
7E0F80
7FFF80
1FFF00
1FFC00
03FC00
ENDCHAR
STARTCHAR six
ENCODING 54
SWIDTH 600 0
DWIDTH 22 0
BBX 18 25 2 0
BITMAP
004000
07FC00
0FFE00
3FFF00
3FBF80
7E0F80
7C0600
7C0000
7C0000
7C2000
F9FE00
FBFF00
7FFF80
FFFF80
7E0FC0
7C07C0
7C07C0
7C07C0
7C07C0
3E0F80
3E0FC0
1FFF80
1FFF00
07FF00
01F800
ENDCHAR
STARTCHAR seven
ENCODING 55
SWIDTH 600 0
DWIDTH 22 0
BBX 18 24 2 0
BITMAP
FFFF80
FFFF80
FFFF80
FFFF80
0007C0
001F00
001F00
003E00
007C00
007C00
00F800
01F000
01F000
03E000
03E000
03E000
07C000
07E000
07C000
07C000
0F8000
0F8000
0F8000
0F8000
ENDCHAR
STARTCHAR eight
ENCODING 56
SWIDTH 600 0
DWIDTH 22 0
BBX 17 25 3 0
BITMAP
008000
1FF800
3FFC00
7FFF00
FFFF00
F81F00
F80F80
F80F80
F81F00
7C1F00
7FFE00
1FFC00
0FF000
7FFE00
7FFF00
FC1F80
F80F80
F80F80
F80F80
F81F80
FC1F80
FFFF00
7FFE00
3FFE00
07F000
ENDCHAR
STARTCHAR nine
ENCODING 57
SWIDTH 600 0
DWIDTH 22 0
BBX 18 25 2 0
BITMAP
004000
0FF800
1FFE00
1FFF00
7FFF00
7E0F80
7C1F80
7C0F80
F807C0
7C07C0
7C07C0
7E0FC0
7C0FC0
3FFFC0
3FFFC0
0FF7C0
0007C0
000F80
040F80
FC0F80
7E3F00
3FFF00
1FFF00
0FFC00
03F000
ENDCHAR
STARTCHAR colon
ENCODING 58
SWIDTH 600 0
DWIDTH 22 0
BBX 5 20 9 0
BITMAP
F8
F8
F8
F8
F8
F8
00
00
00
00
00
00
00
00
F8
F8
F8
F8
F8
F8
ENDCHAR
STARTCHAR semicolon
ENCODING 59
SWIDTH 600 0
DWIDTH 22 0
BBX 8 26 7 -6
BITMAP
3E
3E
3E
3E
3E
3E
00
00
00
00
00
00
00
00
1F
3E
3E
3E
7C
78
F8
78
F0
F0
F0
E0
ENDCHAR
STARTCHAR less
ENCODING 60
SWIDTH 600 0
DWIDTH 22 0
BBX 19 19 2 3
BITMAP
000040
0003C0
000FE0
01FFC0
03FF80
0FFE00
7FF000
FF8000
7E0000
F00000
FC0000
7F8000
FFE000
1FFC00
03FF80
007FE0
001FC0
0003E0
0000C0
ENDCHAR
STARTCHAR equal
ENCODING 61
SWIDTH 600 0
DWIDTH 22 0
BBX 18 13 3 6
BITMAP
FFFFC0
FFFFC0
FFFFC0
FFFFC0
000000
000000
000000
000000
000000
000000
FFFFC0
FFFFC0
FFFFC0
ENDCHAR
STARTCHAR greater
ENCODING 62
SWIDTH 600 0
DWIDTH 22 0
BBX 19 19 2 3
BITMAP
400000
780000
FE0000
7FC000
3FF800
0FFE00
01FFC0
003FE0
000FC0
0001E0
0007E0
007FC0
00FFE0
07FF00
3FF800
7FE000
7F0000
F80000
600000
ENDCHAR
STARTCHAR question
ENCODING 63
SWIDTH 600 0
DWIDTH 22 0
BBX 19 25 1 0
BITMAP
004000
07FE00
1FFF00
3FFF80
7FFFC0
7E07E0
FC03E0
7C03E0
0003E0
0007C0
001FC0
003F80
003E00
00FC00
00FC00
01F000
01F000
000000
000000
000000
01F000
01F000
01F000
01F000
01F000
ENDCHAR
STARTCHAR at
ENCODING 64
SWIDTH 600 0
DWIDTH 22 0
BBX 21 31 1 -4
BITMAP
001000
01FE00
03FF80
03FFC0
1E00E0
1E00E0
1C00E0
387060
38F9F0
71FF38
738F30
63C7B0
770730
E30730
E70730
670730
6E0E30
6E0E30
6E0E70
670E30
E71C30
771EE0
77F7E0
67E7C0
70E300
380000
180080
1E03C0
0F07C0
0FFF00
07FC00
ENDCHAR
STARTCHAR A
ENCODING 65
SWIDTH 600 0
DWIDTH 22 0
BBX 21 24 1 0
BITMAP
01F800
01FC00
03FC00
03FC00
03DE00
03FE00
079E00
0F8F00
079F00
0F0F80
0F8F80
1F0F80
1F07C0
1F07C0
3FFFC0
3FFFC0
3FFFE0
7FFFE0
7C03E0
7C01F0
F801F0
F801F0
F800F8
F801F8
ENDCHAR
STARTCHAR B
ENCODING 66
SWIDTH 600 0
DWIDTH 22 0
BBX 19 24 2 0
BITMAP
7FC000
FFFE00
7FFF80
FFFF80
7C7F80
7C0F80
7C0F80
7C0F80
7C0F80
FFFF00
7FFE00
7FF800
7FFF80
7C3F80
7C07E0
7C03E0
7C03E0
7C03E0
7C07E0
7C1FC0
7FFFC0
7FFF80
7FFF80
7FE000
ENDCHAR
STARTCHAR C
ENCODING 67
SWIDTH 600 0
DWIDTH 22 0
BBX 20 25 1 0
BITMAP
002000
07FE00
0FFF00
1FFFC0
3FFFC0
3FFFC0
7E07E0
7C03C0
7E0000
7C0000
7C0000
7C0000
7C0000
7C0000
7C0000
7C0000
FC0000
7C01F0
7E03E0
3E07E0
3F8FC0
1FFFC0
1FFF80
07FE00
01F800
ENDCHAR
STARTCHAR D
ENCODING 68
SWIDTH 600 0
DWIDTH 22 0
BBX 19 24 2 0
BITMAP
7E0000
7FFC00
FFFE00
FFFE00
7DFF80
7C1F80
7C0FC0
7C07C0
7C0FC0
7C07E0
7C07C0
7C07C0
7C07C0
7C07E0
7C0FC0
7C07C0
7C0F80
7C1F80
7C1F80
7DFF00
7FFF00
FFFC00
7FF800
7F0000
ENDCHAR
STARTCHAR E
ENCODING 69
SWIDTH 600 0
DWIDTH 22 0
BBX 18 24 2 0
BITMAP
FFFF80
FFFF80
FFFF80
FFFF80
7C0000
7C0000
7C0000
7C0000
7C0000
7C0000
FFFF00
FFFF00
FFFF00
FFFF00
7C0000
7C0000
7C0000
7C0000
7C0000
7C0000
FFFFC0
FFFFC0
FFFFC0
FFFFC0
ENDCHAR
STARTCHAR F
ENCODING 70
SWIDTH 600 0
DWIDTH 22 0
BBX 16 24 4 0
BITMAP
FFFF
FFFF
FFFF
FFFF
F800
F800
F800
F800
F800
F800
F800
FFFF
FFFF
FFFF
FFFF
F800
F800
F800
F800
F800
F800
F800
F800
F800
ENDCHAR
STARTCHAR G
ENCODING 71
SWIDTH 600 0
DWIDTH 22 0
BBX 19 25 1 0
BITMAP
002000
07FC00
0FFF00
1FFF80
3FFF80
3FFFC0
7E07C0
7C0700
FC0000
7C0000
7C0000
7C7FE0
7C7FE0
7C7FE0
7C7FE0
7C03E0
FC03E0
7C03E0
3E03E0
3E03E0
3F87E0
1FFFE0
1FFF80
07FE00
01F800
ENDCHAR
STARTCHAR H
ENCODING 72
SWIDTH 600 0
DWIDTH 22 0
BBX 17 24 2 0
BITMAP
7C0F80
7C0F80
7C0F80
7C0F80
7C0F80
7C0F80
7C0F80
7C0F80
7C0F80
FFFF80
FFFF80
FFFF80
FFFF80
7C0F80
7C0F80
7C0F80
7C0F80
7C0F80
7C0F80
7C0F80
7C0F80
7C0F80
7C0F80
7C0F80
ENDCHAR
STARTCHAR I
ENCODING 73
SWIDTH 600 0
DWIDTH 22 0
BBX 16 24 4 0
BITMAP
FFFF
FFFF
FFFF
FFFF
07E0
07E0
07E0
07E0
07E0
07E0
07E0
07E0
07E0
07E0
07E0
07E0
07E0
07E0
07E0
07E0
FFFF
FFFF
FFFF
FFFF
ENDCHAR
STARTCHAR J
ENCODING 74
SWIDTH 600 0
DWIDTH 22 0
BBX 17 24 2 0
BITMAP
03FF00
03FF00
03FF00
03FF00
001F00
001F00
001F00
001F00
001F00
001F00
001F00
001F00
001F00
001F00
001F00
001F00
7C1F00
FC1F00
7E1F80
3E1F00
3FFF00
1FFE00
1FFC00
03F000
ENDCHAR
STARTCHAR K
ENCODING 75
SWIDTH 600 0
DWIDTH 22 0
BBX 20 24 2 0
BITMAP
7C07E0
7C0FC0
7C1F80
7C1F80
7C3F00
7C7E00
7CFC00
7DF800
7DF000
7FE000
7FF000
FFF000
7FF800
FFF800
FEFC00
FC7E00
7C7E00
7C3F00
7C1F80
7C1F80
7C0FC0
7C0FC0
7C07F0
7C03F0
ENDCHAR
STARTCHAR L
ENCODING 76
SWIDTH 600 0
DWIDTH 22 0
BBX 16 24 4 0
BITMAP
7C00
7C00
7C00
7C00
7C00
7C00
7C00
7C00
7C00
7C00
7C00
7C00
7C00
7C00
7C00
7C00
7C00
7C00
7C00
7C00
FFFF
FFFF
FFFF
FFFF
ENDCHAR
STARTCHAR M
ENCODING 77
SWIDTH 600 0
DWIDTH 22 0
BBX 19 24 2 0
BITMAP
7E07E0
FE0FC0
FE0FE0
7F0FE0
F70FE0
FF1DE0
F79FE0
F7BDE0
F79DE0
F3B9E0
F3FDE0
F3B9E0
F3B9E0
F1F9E0
F1F9E0
F1F1E0
F0F1E0
F001E0
F001E0
F001E0
F001E0
F001E0
F001E0
F001E0
ENDCHAR
STARTCHAR N
ENCODING 78
SWIDTH 600 0
DWIDTH 22 0
BBX 18 24 2 0
BITMAP
7E07C0
FE07C0
FE07C0
7F07C0
FF07C0
7F87C0
7F87C0
7F87C0
7BC7C0
7FC7C0
7BC7C0
79E7C0
F9E7C0
F8F7C0
F8F7C0
F8F780
F87F80
F87F80
F87F80
F83FC0
F83F80
F83F80
F81FC0
F81F80
ENDCHAR
STARTCHAR O
ENCODING 79
SWIDTH 600 0
DWIDTH 22 0
BBX 20 25 1 0
BITMAP
002000
03FE00
0FFF80
1FFFC0
1FFFC0
7FFFC0
3E07C0
7C03E0
FC03F0
7C03E0
7C03E0
7C03E0
7C03E0
7C03E0
7C03E0
7C03E0
FC03F0
7C07E0
3E03E0
3E07C0
3F0FC0
1FFFC0
1FFFC0
07FF00
01F800
ENDCHAR
STARTCHAR P
ENCODING 80
SWIDTH 600 0
DWIDTH 22 0
BBX 19 24 2 0
BITMAP
7F8000
FFFE00
7FFF00
FFFF80
7C7FC0
7C0FC0
7C0FC0
7C07E0
7C0FC0
7C07C0
7C0FC0
FFFF80
FFFF00
FFFE00
7FFC00
7C0000
7C0000
7C0000
7C0000
7C0000
7C0000
7C0000
7C0000
7C0000
ENDCHAR
STARTCHAR Q
ENCODING 81
SWIDTH 600 0
DWIDTH 22 0
BBX 20 32 1 -7
BITMAP
002000
03FE00
0FFF80
1FFFC0
1FFFC0
7FFFC0
3E07C0
7C03E0
FC03F0
7C03E0
7C03E0
7C03E0
7C03E0
7C03E0
7C03E0
7C03E0
FC03F0
7C07E0
7C03E0
3E07C0
3F0FC0
1FFFC0
0FFF80
07FF00
01F800
00FC00
00FC00
007E00
003FF0
003FE0
001FF0
0001F0
ENDCHAR
STARTCHAR R
ENCODING 82
SWIDTH 600 0
DWIDTH 22 0
BBX 20 24 2 0
BITMAP
FF8000
7FFF00
FFFF00
7FFFC0
7CFFC0
7C0FC0
7C07C0
7C07C0
7C07E0
7C0FC0
FFFF80
FFFF80
FFFE00
7FFC00
7CFC00
7C7E00
7C3F00
7C3F00
7C1F80
7C1F80
7C0FC0
7C07E0
7C07E0
7C03F0
ENDCHAR
STARTCHAR S
ENCODING 83
SWIDTH 600 0
DWIDTH 22 0
BBX 19 25 2 0
BITMAP
004000
07FE00
1FFF00
3FFFC0
7FFFC0
7E0FC0
7C07C0
7C0000
FC0000
7E0000
7FE000
1FFE00
1FFF00
07FFC0
007FC0
003FE0
0007E0
0803E0
F803E0
FC07E0
FC07E0
7FFFC0
3FFF80
1FFF80
03F800
ENDCHAR
STARTCHAR T
ENCODING 84
SWIDTH 600 0
DWIDTH 22 0
BBX 19 24 2 0
BITMAP
FFFFE0
FFFFE0
FFFFE0
FFFFE0
01F000
01F000
01F000
01F000
01F000
01F000
01F000
01F000
01F000
01F000
01F000
01F000
01F000
01F000
01F000
01F000
01F000
01F000
01F000
01F000
ENDCHAR
STARTCHAR U
ENCODING 85
SWIDTH 600 0
DWIDTH 22 0
BBX 17 24 3 0
BITMAP
F81F00
F81F00
F81F00
F81F00
F81F00
F81F00
F81F00
F81F00
F81F00
F81F00
F81F00
F81F00
F81F00
F81F00
F81F00
F81F00
F81F00
F81F80
FC1F00
F87E00
FFFE00
7FFC00
7FF800
07E000
ENDCHAR
STARTCHAR V
ENCODING 86
SWIDTH 600 0
DWIDTH 22 0
BBX 22 24 0 0
BITMAP
FC007C
7C00F8
3E01F8
3E00F8
3E01F0
1F03F0
1F01F0
1F03E0
1F03E0
0F83E0
0F87C0
0F87C0
07C7C0
07CF80
07CF80
03EF80
03FF00
03EF00
01FF00
01FE00
00FE00
00FE00
00FC00
007C00
ENDCHAR
STARTCHAR W
ENCODING 87
SWIDTH 600 0
DWIDTH 22 0
BBX 22 24 0 0
BITMAP
F8007C
7C003C
7C0078
780078
78007C
3C00F8
3C7878
7C7878
7C7C78
3C7CF0
3CFCF0
3CFCF0
1EFEF0
1FFEF0
1EFEF0
1FCEF0
1FEEF0
1FCFE0
0FCFE0
0FC7E0
0FC7E0
1F83E0
0F83E0
0F03E0
ENDCHAR
STARTCHAR X
ENCODING 88
SWIDTH 600 0
DWIDTH 22 0
BBX 21 24 1 0
BITMAP
FC01F0
7C03F0
3F07C0
1F07C0
1F0F80
0FDF00
07DF00
07FE00
03FE00
01FC00
01F800
01F800
01FC00
03FE00
07FE00
07DF00
0F9F00
0F8FC0
3F07C0
3E07C0
3E07E0
FC01F0
F801F8
F801F8
ENDCHAR
STARTCHAR Y
ENCODING 89
SWIDTH 600 0
DWIDTH 22 0
BBX 20 24 1 0
BITMAP
FC01F0
7C01F0
7C03E0
3E03E0
3E07C0
1F07C0
1F1F80
0F9F00
07DF00
07FE00
03FE00
03FC00
01FC00
00F800
00F800
00F800
00F800
00F800
00F800
00F800
00F800
00F800
00F800
00F800
ENDCHAR
STARTCHAR Z
ENCODING 90
SWIDTH 600 0
DWIDTH 22 0
BBX 18 24 3 0
BITMAP
7FFFC0
7FFFC0
7FFFC0
FFFF80
001F80
003F00
007E00
00FC00
00FC00
01F800
03F000
07E000
07E000
0FC000
1F8000
1F8000
3F0000
7E0000
FC0000
FFFFC0
FFFFC0
FFFFC0
FFFFC0
FFFFC0
ENDCHAR
STARTCHAR bracketleft
ENCODING 91
SWIDTH 600 0
DWIDTH 22 0
BBX 11 34 7 -7
BITMAP
FFE0
FFE0
FFE0
FFE0
F800
F800
F800
F800
F800
F800
F800
F800
F800
F800
F800
F800
F800
F800
F800
F800
F800
F800
F800
F800
F800
F800
F800
F800
F800
F800
F800
FFE0
FFE0
FFE0
ENDCHAR
STARTCHAR backslash
ENCODING 92
SWIDTH 600 0
DWIDTH 22 0
BBX 18 27 3 0
BITMAP
F00000
F00000
780000
780000
3C0000
3C0000
1E0000
1E0000
0F0000
0F0000
078000
078000
03C000
01E000
01E000
00F000
00F000
007800
007800
003C00
003C00
001E00
001E00
000F00
000780
000780
0003C0
ENDCHAR
STARTCHAR bracketright
ENCODING 93
SWIDTH 600 0
DWIDTH 22 0
BBX 11 34 4 -7
BITMAP
FFE0
FFE0
FFE0
FFE0
03E0
03E0
03E0
03E0
03E0
03E0
03E0
03E0
03E0
03E0
03E0
03E0
03E0
03E0
03E0
03E0
03E0
03E0
03E0
03E0
03E0
03E0
03E0
03E0
03E0
03E0
03E0
FFE0
FFE0
FFE0
ENDCHAR
STARTCHAR asciicircum
ENCODING 94
SWIDTH 600 0
DWIDTH 22 0
BBX 18 15 2 10
BITMAP
03F000
03F800
07F800
07BC00
0F3C00
0F1E00
1E1E00
1E1E00
1E0F00
3C0F00
3C0780
780780
7803C0
F003C0
F003C0
ENDCHAR
STARTCHAR underscore
ENCODING 95
SWIDTH 600 0
DWIDTH 22 0
BBX 22 1 0 -3
BITMAP
FFFFFC
ENDCHAR
STARTCHAR grave
ENCODING 96
SWIDTH 600 0
DWIDTH 22 0
BBX 8 5 7 21
BITMAP
F8
7C
3E
0F
07
ENDCHAR
STARTCHAR a
ENCODING 97
SWIDTH 600 0
DWIDTH 22 0
BBX 19 20 2 0
BITMAP
004000
0FFE00
1FFE00
3FFF00
7E1F00
7C0F80
000F80
000F80
00FF80
1FFF80
3FFF00
7F0F80
FC0F80
7C0F80
7C1F80
7C1F80
7FFF80
7FEFE0
3FC7E0
0FC7C0
ENDCHAR
STARTCHAR b
ENCODING 98
SWIDTH 600 0
DWIDTH 22 0
BBX 18 27 2 0
BITMAP
7C0000
7C0000
7C0000
7C0000
7C0000
7C0000
7C0000
7C1000
7DFE00
7FFF00
7FFF00
FFFF80
7E0FC0
7C0F80
7C07C0
7C07C0
7C07C0
7C07C0
7C07C0
7C07C0
7C0F80
7E0F80
FE0F80
7FFF80
7FFF00
7DFE00
F9F800
ENDCHAR
STARTCHAR c
ENCODING 99
SWIDTH 600 0
DWIDTH 22 0
BBX 18 20 2 0
BITMAP
004000
0FFE00
1FFE00
1FFF80
3FCFC0
7C07C0
FC07C0
7C0000
7C0000
7C0000
7C0000
7C0000
7C0000
FC07C0
7C07C0
7E0FC0
3FFF80
1FFF80
0FFC00
01FC00
ENDCHAR
STARTCHAR d
ENCODING 100
SWIDTH 600 0
DWIDTH 22 0
BBX 18 27 2 0
BITMAP
0007C0
0007C0
0007C0
0007C0
0007C0
0007C0
0007C0
0707C0
0FE7C0
3FF7C0
1FFFC0
3FFFC0
7C0FC0
FC07C0
7C07C0
7C07C0
7C07C0
7C07C0
7C07C0
7C07C0
FC07C0
7C0FC0
7C0FC0
3FFFC0
3FF7C0
1FE7C0
07C7C0
ENDCHAR
STARTCHAR e
ENCODING 101
SWIDTH 600 0
DWIDTH 22 0
BBX 19 20 2 0
BITMAP
004000
07FE00
1FFF00
1FFF00
3E0F80
3E07C0
7C07C0
7C07C0
FFFFC0
7FFFE0
7FFFE0
7C0000
7C0000
FC0000
7C0300
3E07E0
3F8F80
1FFF80
0FFE00
03FE00
ENDCHAR
STARTCHAR f
ENCODING 102
SWIDTH 600 0
DWIDTH 22 0
BBX 18 27 3 0
BITMAP
001F80
03FFC0
07FFC0
0FFF80
0FC000
0F8000
0F8000
0F8000
FFFF80
FFFF80
FFFF80
0F8000
0F8000
0F8000
0F8000
0F8000
0F8000
0F8000
0F8000
0F8000
0F8000
0F8000
0F8000
0F8000
0F8000
0F8000
0F8000
ENDCHAR
STARTCHAR g
ENCODING 103
SWIDTH 600 0
DWIDTH 22 0
BBX 18 27 2 -7
BITMAP
070000
0FE7C0
3FF7C0
3FFFC0
3FFFC0
7E0FC0
FC07C0
7C07C0
7C07C0
7C07C0
7C07C0
7C07C0
7C07C0
FC07C0
7C0FC0
3F1FC0
3FFFC0
3FE7C0
0FE7C0
0007C0
0007C0
040F80
7C0F80
3F0F80
3FFF00
1FFE00
1FF800
ENDCHAR
STARTCHAR h
ENCODING 104
SWIDTH 600 0
DWIDTH 22 0
BBX 17 27 3 0
BITMAP
F80000
F80000
F80000
F80000
F80000
F80000
F80000
F81000
F8FF00
F9FF00
FBFF80
FFFF80
7E1F80
7C0F80
7C0F80
F80F80
F80F80
F80F80
F80F80
F80F80
F80F80
F80F80
F80F80
F80F80
F80F80
F80F80
F80F80
ENDCHAR
STARTCHAR i
ENCODING 105
SWIDTH 600 0
DWIDTH 22 0
BBX 18 27 3 0
BITMAP
03E000
03E000
03E000
03E000
000000
000000
000000
000000
7FE000
7FE000
7FE000
03E000
03E000
03E000
03E000
03E000
03E000
03E000
03E000
03E000
03E000
03E000
03E000
FFFFC0
FFFFC0
FFFFC0
FFFFC0
ENDCHAR
STARTCHAR j
ENCODING 106
SWIDTH 600 0
DWIDTH 22 0
BBX 13 34 3 -7
BITMAP
00F8
00F8
00F8
00F8
0000
0000
0000
0000
3FF8
3FF8
3FF8
00F8
00F8
00F8
00F8
00F8
00F8
00F8
00F8
00F8
00F8
00F8
00F8
00F8
00F8
00F8
00F8
00F8
01F0
03F0
FFF0
FFF0
FFC0
FF80
ENDCHAR
STARTCHAR k
ENCODING 107
SWIDTH 600 0
DWIDTH 22 0
BBX 18 27 3 0
BITMAP
F80000
F80000
F80000
F80000
F80000
F80000
F80000
F80000
F81F00
F81F00
F83E00
F87C00
F9F800
F9F000
FBE000
FFE000
7FF000
FFF000
7FF800
F87C00
F87C00
F83E00
F83E00
F83F00
F80F80
F80F80
F807C0
ENDCHAR
STARTCHAR l
ENCODING 108
SWIDTH 600 0
DWIDTH 22 0
BBX 18 27 3 0
BITMAP
7FE000
7FE000
7FE000
7FE000
03E000
03E000
03E000
03E000
03E000
03E000
03E000
03E000
03E000
03E000
03E000
03E000
03E000
03E000
03E000
03E000
03E000
03E000
03E000
FFFFC0
FFFFC0
FFFFC0
FFFFC0
ENDCHAR
STARTCHAR m
ENCODING 109
SWIDTH 600 0
DWIDTH 22 0
BBX 20 20 1 0
BITMAP
008100
F3E7C0
FFEFE0
FDFFF0
F8F9E0
F8F9E0
78F0F0
78F0F0
78F0F0
78F0F0
78F0F0
78F0F0
78F0F0
78F0F0
78F0F0
78F0F0
78F0F0
78F0F0
78F0F0
78F0F0
ENDCHAR
STARTCHAR n
ENCODING 110
SWIDTH 600 0
DWIDTH 22 0
BBX 18 20 2 0
BITMAP
001000
F8FF00
FBFF00
7FFF80
FFFF80
7E0FC0
FC0F80
7C07C0
7C07C0
7C07C0
7C07C0
7C07C0
7C07C0
7C07C0
7C07C0
7C07C0
7C07C0
7C07C0
7C07C0
7C07C0
ENDCHAR
STARTCHAR o
ENCODING 111
SWIDTH 600 0
DWIDTH 22 0
BBX 19 20 2 0
BITMAP
004000
0FFE00
1FFF00
1FFFC0
3FFFC0
7C0FC0
FC07C0
7C03E0
7C03E0
7C03E0
7C03E0
7C03E0
7C03E0
FC07C0
7C07E0
3E07C0
3FFF80
1FFF80
0FFE00
01F800
ENDCHAR
STARTCHAR p
ENCODING 112
SWIDTH 600 0
DWIDTH 22 0
BBX 18 27 2 -7
BITMAP
001000
F8FE00
7FFF00
7FFF00
FE7F80
7E0FC0
7C0F80
7C07C0
7C07C0
7C07C0
7C07C0
7C07C0
7C07C0
7C0F80
7C0F80
7E0F80
FE7F00
7FFF00
7DFE00
7DF800
7C0000
7C0000
7C0000
7C0000
7C0000
7C0000
7C0000
ENDCHAR
STARTCHAR q
ENCODING 113
SWIDTH 600 0
DWIDTH 22 0
BBX 18 27 2 -7
BITMAP
010000
1FE7C0
3FF7C0
3FFFC0
7F9FC0
7C0FC0
FC07C0
7C07C0
7C07C0
7C07C0
7C07C0
7C07C0
7C07C0
FC07C0
7C0FC0
7C0FC0
7FBFC0
3FFFC0
1FE7C0
07E7C0
0007C0
0007C0
0007C0
0007C0
0007C0
0007C0
0007C0
ENDCHAR
STARTCHAR r
ENCODING 114
SWIDTH 600 0
DWIDTH 22 0
BBX 16 20 3 0
BITMAP
000F
F87F
7DFF
7DFF
7FFF
3F80
7F00
7E00
3E00
7C00
7C00
7C00
7C00
7C00
7C00
7C00
7C00
7C00
7C00
7C00
ENDCHAR
STARTCHAR s
ENCODING 115
SWIDTH 600 0
DWIDTH 22 0
BBX 17 20 3 0
BITMAP
078000
1FFC00
3FFE00
7FFF00
7C3F00
F80E00
F80000
7F0000
7FF000
7FFC00
1FFC00
1FFF00
007F80
000F80
700F80
F80F80
F81F00
7FFF00
3FFC00
3FE000
ENDCHAR
STARTCHAR t
ENCODING 116
SWIDTH 600 0
DWIDTH 22 0
BBX 16 24 3 0
BITMAP
0780
0F00
0F00
0F80
1F00
FFFE
FFFE
FFFE
1F00
1F00
1F00
1F00
1F00
1F00
1F00
1F00
1F00
1F00
1F00
0F80
0FFF
0FFF
07FF
01FF
ENDCHAR
STARTCHAR u
ENCODING 117
SWIDTH 600 0
DWIDTH 22 0
BBX 17 19 2 0
BITMAP
F80F80
F80F80
F80F80
F80F80
F80F80
F80F80
F80F80
F80F80
F80F80
F80F80
F80F80
F80F80
7C0F80
FC1F80
7E1F80
7FFF80
7FEF80
3FCF80
0F0F80
ENDCHAR
STARTCHAR v
ENCODING 118
SWIDTH 600 0
DWIDTH 22 0
BBX 21 19 1 0
BITMAP
FC00F8
7C01F0
3E01F0
3F03E0
3E03E0
1F03E0
1F07C0
1F07C0
0F87C0
0F8F80
0F8F80
07DF00
07DF00
07DE00
03FE00
01FE00
01FE00
01FC00
00FC00
ENDCHAR
STARTCHAR w
ENCODING 119
SWIDTH 600 0
DWIDTH 22 0
BBX 21 19 1 0
BITMAP
F00078
F000F0
F000F0
F000F0
F0F0F0
F0F8F0
78F8F0
78F9E0
79F9E0
79F9E0
7B9DE0
7BBDE0
7B9DE0
3F8FC0
3F1FC0
3F0FC0
3E07C0
3E07C0
1E0780
ENDCHAR
STARTCHAR x
ENCODING 120
SWIDTH 600 0
DWIDTH 22 0
BBX 20 19 2 0
BITMAP
7C07E0
7C0F80
3E0F80
1F1F00
0FBE00
0FBE00
07FC00
03F800
03F000
03F800
07F800
0FFC00
0FBE00
1F1F00
3E1F00
3E0FC0
7E07C0
F807C0
F803F0
ENDCHAR
STARTCHAR y
ENCODING 121
SWIDTH 600 0
DWIDTH 22 0
BBX 20 26 1 -7
BITMAP
FC01F0
7C01F0
3E01F0
3E03E0
1F03E0
1F07C0
1F07C0
0F87C0
0F8F80
0F8F80
07CF80
03CF00
03FE00
03DE00
01FE00
01FC00
01FC00
00FC00
00F800
00F800
01F000
01F000
3FE000
1FE000
1FC000
1FC000
ENDCHAR
STARTCHAR z
ENCODING 122
SWIDTH 600 0
DWIDTH 22 0
BBX 16 19 3 0
BITMAP
FFFE
FFFE
FFFE
007E
00FC
01F8
03F0
03F0
07E0
0FC0
1F80
3F00
7E00
7E00
FC00
FFFF
FFFF
FFFF
FFFF
ENDCHAR
STARTCHAR braceleft
ENCODING 123
SWIDTH 600 0
DWIDTH 22 0
BBX 16 34 3 -7
BITMAP
003F
03FE
03FF
07FF
0FF0
07C0
0F80
0F80
0F80
0F80
0F80
0F80
0F80
0F80
0F80
7F80
FF00
F800
7F00
FF00
0F80
0F80
0F80
0F80
0F80
0F80
0F80
0F80
0F80
07C0
07C0
07FE
03FF
03FF
ENDCHAR
STARTCHAR bar
ENCODING 124
SWIDTH 600 0
DWIDTH 22 0
BBX 5 34 8 -7
BITMAP
F8
F8
F8
F8
F8
F8
F8
F8
F8
F8
F8
F8
F8
F8
F8
F8
F8
F8
F8
F8
F8
F8
F8
F8
F8
F8
F8
F8
F8
F8
F8
F8
F8
F8
ENDCHAR
STARTCHAR braceright
ENCODING 125
SWIDTH 600 0
DWIDTH 22 0
BBX 16 34 3 -7
BITMAP
FC00
7FC0
FFC0
FFE0
0FF0
03E0
01F0
01F0
01F0
01F0
01F0
01F0
01F0
01F0
01F0
01FE
00FF
003E
00FE
00FF
01F8
01F0
01F0
01F0
01F0
01F0
01F0
01F0
01F0
03E0
03E0
7FE0
FFC0
FFC0
ENDCHAR
STARTCHAR asciitilde
ENCODING 126
SWIDTH 600 0
DWIDTH 22 0
BBX 19 5 2 10
BITMAP
040020
FF8060
7FFFE0
7FFFE0
607FE0
ENDCHAR
STARTCHAR space.dup1
ENCODING 160
SWIDTH 600 0
DWIDTH 22 0
BBX 1 1 0 0
BITMAP
00
ENDCHAR
STARTCHAR exclamdown
ENCODING 161
SWIDTH 600 0
DWIDTH 22 0
BBX 5 23 9 -4
BITMAP
F8
F8
F8
F8
00
00
00
F0
F0
F8
F8
F8
F8
F8
F8
F8
F8
F8
F8
F8
F8
F8
F8
ENDCHAR
STARTCHAR cent
ENCODING 162
SWIDTH 600 0
DWIDTH 22 0
BBX 19 26 2 -1
BITMAP
00E000
00E000
00E000
00E000
00E000
1FFF00
3FFF00
3FFFC0
7C0FC0
7C03E0
7C0000
7C0000
F80000
F80000
7C0000
7C0380
7E03E0
7C07C0
3F07C0
1FFF80
0FFF80
07FC00
00E000
00E000
00E000
00E000
ENDCHAR
STARTCHAR sterling
ENCODING 163
SWIDTH 600 0
DWIDTH 22 0
BBX 20 25 1 0
BITMAP
001000
01FF00
03FF00
0FFF80
0FE7C0
0F83E0
1F0000
1F0000
1F0000
1F0000
1F0000
FFF800
FFF800
FFF800
1F0000
1F0000
1F0000
0F0100
1E00F0
1E01F0
7803E0
7FFFE0
7FFFC0
7FFFC0
FFF800
ENDCHAR
STARTCHAR currency
ENCODING 164
SWIDTH 600 0
DWIDTH 22 0
BBX 18 18 3 3
BITMAP
600300
F08780
FFFFC0
7FFF80
3FFF00
7FFE00
7C1F00
780F80
780F00
780F80
780F00
3C1E00
3FFF00
7FFF80
FFFFC0
FFF780
600300
200000
ENDCHAR
STARTCHAR yen
ENCODING 165
SWIDTH 600 0
DWIDTH 22 0
BBX 19 24 2 0
BITMAP
F803E0
F803E0
7C07C0
3E07C0
3E0F80
1F0F80
1F1F00
0F9F00
0FBE00
07FC00
03FC00
7FFFC0
7FFFC0
7FFFC0
01F000
01F000
01F000
7FFFC0
7FFFC0
01F000
01F000
01F000
01F000
01F000
ENDCHAR
STARTCHAR brokenbar
ENCODING 166
SWIDTH 600 0
DWIDTH 22 0
BBX 5 33 8 -7
BITMAP
F8
F8
F8
F8
F8
F8
F8
F8
F8
F8
F8
F8
F8
F8
00
00
00
00
00
00
F8
F8
F8
F8
F8
F8
F8
F8
F8
F8
F8
F8
F8
ENDCHAR
STARTCHAR section
ENCODING 167
SWIDTH 600 0
DWIDTH 22 0
BBX 17 29 3 -2
BITMAP
008000
0FFC00
3FFC00
7FFF00
7C1F00
780C00
780000
7C0000
3E0000
3FC000
0FFE00
3FFF80
7FFF80
781F80
F00F80
F80780
780F00
7FFF80
3FFE00
0FFC00
01FF00
01FF80
001F80
000F80
F00780
F80F00
F80F00
7FFE00
3FFC00
ENDCHAR
STARTCHAR dieresis
ENCODING 168
SWIDTH 600 0
DWIDTH 22 0
BBX 12 4 5 22
BITMAP
F0F0
F0F0
F0F0
F0F0
ENDCHAR
STARTCHAR copyright
ENCODING 169
SWIDTH 600 0
DWIDTH 22 0
BBX 21 26 1 1
BITMAP
002000
03FE00
07FF00
0FFFC0
1C00E0
3800E0
702030
63FE70
63FF30
E70318
670018
670018
670018
670018
670018
670018
E70398
738730
63FE38
33FC30
387C70
180060
1C01C0
0F0780
07FF00
00FC00
ENDCHAR
STARTCHAR ordfeminine
ENCODING 170
SWIDTH 600 0
DWIDTH 22 0
BBX 15 14 4 12
BITMAP
0100
1FF0
7FF0
79F8
0878
0078
03F8
3FF8
7878
F078
F078
7CF8
7F3E
3F3E
ENDCHAR
STARTCHAR guillemotleft
ENCODING 171
SWIDTH 600 0
DWIDTH 22 0
BBX 18 14 2 3
BITMAP
0F87C0
0F8F80
1F1F00
3E1F00
3E3E00
7C7C00
F87C00
F8F800
7C7C00
3E3E00
3E1F00
1F1F00
0F8F80
0F87C0
ENDCHAR
STARTCHAR logicalnot
ENCODING 172
SWIDTH 600 0
DWIDTH 22 0
BBX 18 11 2 3
BITMAP
FFFFC0
FFFFC0
FFFFC0
FFFFC0
0003C0
0003C0
0003C0
0003C0
0003C0
0003C0
0003C0
ENDCHAR
STARTCHAR hyphen.dup2
ENCODING 173
SWIDTH 600 0
DWIDTH 22 0
BBX 10 4 7 8
BITMAP
FFC0
FFC0
FFC0
FFC0
ENDCHAR
STARTCHAR registered
ENCODING 174
SWIDTH 600 0
DWIDTH 22 0
BBX 21 26 1 1
BITMAP
002000
03FE00
07FF00
0FFFC0
1C00E0
3800E0
77E030
63FE70
63BF30
E38718
638718
638718
638718
63FF18
67F818
639C18
E39C18
738E30
638738
338730
380070
180060
1C01C0
0F0780
07FF00
00FC00
ENDCHAR
STARTCHAR overscore
ENCODING 175
SWIDTH 600 0
DWIDTH 22 0
BBX 22 2 0 26
BITMAP
FFFFFC
FFFFFC
ENDCHAR
STARTCHAR degree
ENCODING 176
SWIDTH 600 0
DWIDTH 22 0
BBX 12 11 5 14
BITMAP
3C00
7FC0
7FE0
F0E0
E070
E070
7070
70E0
3FE0
3FC0
0600
ENDCHAR
STARTCHAR plusminus
ENCODING 177
SWIDTH 600 0
DWIDTH 22 0
BBX 18 23 3 0
BITMAP
03C000
03C000
03C000
03C000
03C000
03C000
FFFFC0
FFFFC0
FFFFC0
FFFFC0
03C000
03C000
03C000
03C000
03C000
03C000
000000
000000
000000
FFFFC0
FFFFC0
FFFFC0
FFFFC0
ENDCHAR
STARTCHAR twosuperior
ENCODING 178
SWIDTH 600 0
DWIDTH 22 0
BBX 13 15 5 10
BITMAP
0200
1FE0
7FF0
78F0
00F0
01F0
01E0
07C0
0780
1F00
7C00
FC00
7FF8
7FF8
7FF8
ENDCHAR
STARTCHAR threesuperior
ENCODING 179
SWIDTH 600 0
DWIDTH 22 0
BBX 12 15 6 10
BITMAP
0400
3FC0
FFE0
F9E0
01E0
01E0
0FE0
0F80
07E0
00F0
E0F0
F0F0
FFE0
7FC0
1FE0
ENDCHAR
STARTCHAR acute
ENCODING 180
SWIDTH 600 0
DWIDTH 22 0
BBX 8 5 7 21
BITMAP
1F
3E
7C
F0
E0
ENDCHAR
STARTCHAR mu1
ENCODING 181
SWIDTH 600 0
DWIDTH 22 0
BBX 18 26 2 -7
BITMAP
F80F80
F80F80
F80F80
F80F80
F80F80
F80F80
F80F80
F80F80
F80F80
F80F80
F80F80
F80F80
7C0F80
FC1F80
7E1F80
7FFFC0
FFF7C0
FFE7C0
F9C7C0
F80000
F80000
F80000
F80000
F80000
F80000
F80000
ENDCHAR
STARTCHAR paragraph
ENCODING 182
SWIDTH 600 0
DWIDTH 22 0
BBX 17 29 3 -5
BITMAP
03FF80
7FFF80
7F0E00
FF8E00
FF8E00
FF8E00
FF8E00
FF8E00
FF8E00
FF0E00
7F8E00
7F0E00
038E00
038E00
038E00
038E00
038E00
038E00
038E00
038E00
038E00
038E00
038E00
038E00
038E00
038E00
038E00
038E00
038E00
ENDCHAR
STARTCHAR middot.001
ENCODING 183
SWIDTH 600 0
DWIDTH 22 0
BBX 5 5 9 8
BITMAP
F8
F8
F8
F8
F8
ENDCHAR
STARTCHAR cedilla
ENCODING 184
SWIDTH 600 0
DWIDTH 22 0
BBX 8 8 2 -7
BITMAP
38
30
38
3E
0F
0E
FE
FC
ENDCHAR
STARTCHAR onesuperior
ENCODING 185
SWIDTH 600 0
DWIDTH 22 0
BBX 12 15 5 10
BITMAP
0780
1F00
FF00
FF00
6780
0780
0780
0780
0780
0780
0780
0780
FFF0
FFF0
FFF0
ENDCHAR
STARTCHAR ordmasculine
ENCODING 186
SWIDTH 600 0
DWIDTH 22 0
BBX 15 14 4 12
BITMAP
0100
1FF0
3FF0
7FF8
7C3C
783C
783C
F03C
783E
783C
7878
3FF8
3FF0
0FE0
ENDCHAR
STARTCHAR guillemotright
ENCODING 187
SWIDTH 600 0
DWIDTH 22 0
BBX 18 14 2 3
BITMAP
F8F800
7C7C00
3E3E00
3E1F00
1F1F00
0F8F80
0F87C0
0F87C0
0F8F80
1F1F00
3E1F00
3E3E00
7C7C00
F8F800
ENDCHAR
STARTCHAR onequarter
ENCODING 188
SWIDTH 600 0
DWIDTH 22 0
BBX 21 24 0 0
BITMAP
0E00E0
1F01C0
FE0380
FE0380
6E0700
0E0700
0E0E00
0E0E00
0E1C00
0E1C00
0E38F0
0E71F0
0E71F0
00E3F0
00E770
01CE70
01CE70
039C70
03BFF8
073FF8
073FF8
0E0070
1C0070
1C0000
ENDCHAR
STARTCHAR onehalf
ENCODING 189
SWIDTH 600 0
DWIDTH 22 0
BBX 22 24 0 0
BITMAP
0E01C0
1F01C0
FE0380
FE0380
6E0700
0E0E00
0E0E00
0E1C00
0E1C00
0E3800
0E39C0
0E77F0
0E7F78
00EE1C
00E01C
01C07C
0380F8
0381F8
0703E0
070780
0E0F00
0E0FFC
1C0FFC
1C0000
ENDCHAR
STARTCHAR threequarters
ENCODING 190
SWIDTH 600 0
DWIDTH 22 0
BBX 22 24 0 0
BITMAP
040070
3F80E0
7BC0E0
79E1C0
03C380
0FC380
0F0700
0FC700
03CE00
F1EE00
79FCF0
7FDCF8
3FB9F0
3C3BF0
007770
00EF70
00EE70
01DC70
01DFFC
039FFC
039FFC
070070
070070
0E0000
ENDCHAR
STARTCHAR questiondown
ENCODING 191
SWIDTH 600 0
DWIDTH 22 0
BBX 19 24 2 -5
BITMAP
00F800
00F800
00F800
00F800
000000
000000
000000
00F800
01F000
01F000
07E000
1FC000
1F8000
3E0000
7E0000
7E0000
F803E0
F807C0
FC0FC0
7C0F80
3FFF80
1FFF00
1FFF00
00C000
ENDCHAR
STARTCHAR Agrave
ENCODING 192
SWIDTH 600 0
DWIDTH 22 0
BBX 21 30 1 0
BITMAP
0F8000
07C000
01F000
00F000
000000
000000
01F800
01FC00
03FC00
03FC00
03DE00
03FE00
079E00
0F8F00
079F00
0F0F80
0F8F80
1F0F80
1F07C0
1F07C0
3FFFC0
3FFFC0
3FFFE0
7FFFE0
7C03E0
7C01F0
F801F0
F801F0
F800F8
F801F8
ENDCHAR
STARTCHAR Aacute
ENCODING 193
SWIDTH 600 0
DWIDTH 22 0
BBX 21 30 1 0
BITMAP
001F00
003E00
007800
00F000
000000
000000
01F800
01FC00
03FC00
03FC00
03DE00
03FE00
079E00
0F8F00
079F00
0F0F80
0F8F80
1F0F80
1F07C0
1F07C0
3FFFC0
3FFFC0
3FFFE0
7FFFE0
7C03E0
7C01F0
F801F0
F801F0
F800F8
F801F8
ENDCHAR
STARTCHAR Acircumflex
ENCODING 194
SWIDTH 600 0
DWIDTH 22 0
BBX 21 30 1 0
BITMAP
01F800
03FC00
03DF00
0F0F00
000000
000000
01F800
01FC00
03FC00
03FC00
03DE00
03FE00
079E00
0F8F00
079F00
0F0F80
0F8F80
1F0F80
1F07C0
1F07C0
3FFFC0
3FFFC0
3FFFE0
7FFFE0
7C03E0
7C01F0
F801F0
F801F0
F800F8
F801F8
ENDCHAR
STARTCHAR Atilde
ENCODING 195
SWIDTH 600 0
DWIDTH 22 0
BBX 21 30 1 0
BITMAP
018380
07F380
0FFF80
1C7F80
0C1E00
000000
01F800
01FC00
03FC00
03FC00
03DE00
03FE00
079E00
0F8F00
079F00
0F0F80
0F8F80
1F0F80
1F07C0
1F07C0
3FFFC0
3FFFC0
3FFFE0
7FFFE0
7C03E0
7C01F0
F801F0
F801F0
F800F8
F801F8
ENDCHAR
STARTCHAR Adieresis
ENCODING 196
SWIDTH 600 0
DWIDTH 22 0
BBX 21 30 1 0
BITMAP
078F00
078F00
078F00
078F00
000000
000000
01F800
01FC00
03FC00
03FC00
03DE00
03FE00
079E00
0F8F00
079F00
0F0F80
0F8F80
1F0F80
1F07C0
1F07C0
3FFFC0
3FFFC0
3FFFE0
7FFFE0
7C03E0
7C01F0
F801F0
F801F0
F800F8
F801F8
ENDCHAR
STARTCHAR Aring
ENCODING 197
SWIDTH 600 0
DWIDTH 22 0
BBX 21 30 1 0
BITMAP
002000
01F800
03FC00
038E00
038E00
01FC00
01F800
01FC00
03FC00
03FC00
03DE00
03FE00
079E00
0F8F00
079F00
0F0F80
0F8F80
1F0F80
1F07C0
1F07C0
3FFFC0
3FFFC0
3FFFE0
7FFFE0
7C03E0
7C01F0
F801F0
F801F0
F800F8
F801F8
ENDCHAR
STARTCHAR AE
ENCODING 198
SWIDTH 600 0
DWIDTH 22 0
BBX 22 24 0 0
BITMAP
03FFF8
03FFF8
03FFF8
03DE00
07DE00
03DE00
079E00
07DE00
0F9E00
079E00
0F1FF8
0F9FF8
0F1FF8
1FFE00
1FFF00
1FFF00
1FFF00
3E1E00
3E1E00
7C1E00
7C1FFC
7C1FFC
7C1FFC
F81FFC
ENDCHAR
STARTCHAR Ccedilla
ENCODING 199
SWIDTH 600 0
DWIDTH 22 0
BBX 20 32 1 -7
BITMAP
002000
07FE00
0FFF00
1FFFC0
3FFFC0
3FFFC0
7E07E0
7C03C0
7E0000
7C0000
7C0000
7C0000
7C0000
7C0000
7C0000
7C0000
FC0000
7C01F0
7E03E0
3E07E0
3F8FC0
1FFFC0
1FFF80
07FE00
01F800
00E000
00E000
01F800
003C00
001C00
01FC00
01F800
ENDCHAR
STARTCHAR Egrave
ENCODING 200
SWIDTH 600 0
DWIDTH 22 0
BBX 18 30 2 0
BITMAP
1F0000
0F8000
03E000
01E000
000000
000000
FFFF80
FFFF80
FFFF80
FFFF80
7C0000
7C0000
7C0000
7C0000
7C0000
7C0000
FFFF00
FFFF00
FFFF00
FFFF00
7C0000
7C0000
7C0000
7C0000
7C0000
7C0000
FFFFC0
FFFFC0
FFFFC0
FFFFC0
ENDCHAR
STARTCHAR Eacute
ENCODING 201
SWIDTH 600 0
DWIDTH 22 0
BBX 18 30 2 0
BITMAP
003E00
007C00
01F000
01E000
000000
000000
FFFF80
FFFF80
FFFF80
FFFF80
7C0000
7C0000
7C0000
7C0000
7C0000
7C0000
FFFF00
FFFF00
FFFF00
FFFF00
7C0000
7C0000
7C0000
7C0000
7C0000
7C0000
FFFFC0
FFFFC0
FFFFC0
FFFFC0
ENDCHAR
STARTCHAR Ecircumflex
ENCODING 202
SWIDTH 600 0
DWIDTH 22 0
BBX 18 30 2 0
BITMAP
03F000
07F800
0FBC00
1E1E00
000000
000000
FFFF80
FFFF80
FFFF80
FFFF80
7C0000
7C0000
7C0000
7C0000
7C0000
7C0000
FFFF00
FFFF00
FFFF00
FFFF00
7C0000
7C0000
7C0000
7C0000
7C0000
7C0000
FFFFC0
FFFFC0
FFFFC0
FFFFC0
ENDCHAR
STARTCHAR Edieresis
ENCODING 203
SWIDTH 600 0
DWIDTH 22 0
BBX 18 30 2 0
BITMAP
1E1E00
1E1E00
1E1E00
1E1E00
000000
000000
FFFF80
FFFF80
FFFF80
FFFF80
7C0000
7C0000
7C0000
7C0000
7C0000
7C0000
FFFF00
FFFF00
FFFF00
FFFF00
7C0000
7C0000
7C0000
7C0000
7C0000
7C0000
FFFFC0
FFFFC0
FFFFC0
FFFFC0
ENDCHAR
STARTCHAR Igrave
ENCODING 204
SWIDTH 600 0
DWIDTH 22 0
BBX 16 30 4 0
BITMAP
3E00
1F00
0780
03C0
0000
0000
FFFF
FFFF
FFFF
FFFF
07E0
07E0
07E0
07E0
07E0
07E0
07E0
07E0
07E0
07E0
07E0
07E0
07E0
07E0
07E0
07E0
FFFF
FFFF
FFFF
FFFF
ENDCHAR
STARTCHAR Iacute
ENCODING 205
SWIDTH 600 0
DWIDTH 22 0
BBX 16 30 4 0
BITMAP
007C
01F0
01E0
0780
0000
0000
FFFF
FFFF
FFFF
FFFF
07E0
07E0
07E0
07E0
07E0
07E0
07E0
07E0
07E0
07E0
07E0
07E0
07E0
07E0
07E0
07E0
FFFF
FFFF
FFFF
FFFF
ENDCHAR
STARTCHAR Icircumflex
ENCODING 206
SWIDTH 600 0
DWIDTH 22 0
BBX 16 30 4 0
BITMAP
07E0
0FF0
1EF0
783C
0000
0000
FFFF
FFFF
FFFF
FFFF
07E0
07E0
07E0
07E0
07E0
07E0
07E0
07E0
07E0
07E0
07E0
07E0
07E0
07E0
07E0
07E0
FFFF
FFFF
FFFF
FFFF
ENDCHAR
STARTCHAR Idieresis
ENCODING 207
SWIDTH 600 0
DWIDTH 22 0
BBX 16 30 4 0
BITMAP
3C78
3C78
3C78
3C78
0000
0000
FFFF
FFFF
FFFF
FFFF
07E0
07E0
07E0
07E0
07E0
07E0
07E0
07E0
07E0
07E0
07E0
07E0
07E0
07E0
07E0
07E0
FFFF
FFFF
FFFF
FFFF
ENDCHAR
STARTCHAR Eth
ENCODING 208
SWIDTH 600 0
DWIDTH 22 0
BBX 20 24 1 0
BITMAP
3F8000
3FFF00
3FFF80
3FFF80
7EFFC0
7E07E0
7E07E0
7E03F0
7E03E0
7E03E0
FFE3E0
FFE1F0
FFE3E0
FFE3E0
7E03E0
7E03F0
7E03E0
7E07E0
7E0FC0
7E7FC0
3FFF80
3FFF00
3FFE00
3FC000
ENDCHAR
STARTCHAR Ntilde
ENCODING 209
SWIDTH 600 0
DWIDTH 22 0
BBX 18 30 2 0
BITMAP
030300
1FC700
3FFE00
39FE00
303C00
000000
7E07C0
FE07C0
FE07C0
7F07C0
FF07C0
7F87C0
7F87C0
7F87C0
7BC7C0
7FC7C0
7BC7C0
79E7C0
F9E7C0
F8F7C0
F8F7C0
F8F780
F87F80
F87F80
F87F80
F83FC0
F83F80
F83F80
F81FC0
F81F80
ENDCHAR
STARTCHAR Ograve
ENCODING 210
SWIDTH 600 0
DWIDTH 22 0
BBX 20 30 1 0
BITMAP
0FC000
07C000
01F000
00F000
000000
002000
03FE00
0FFF80
1FFFC0
1FFFC0
7FFFC0
3E07C0
7C03E0
FC03F0
7C03E0
7C03E0
7C03E0
7C03E0
7C03E0
7C03E0
7C03E0
FC03F0
7C07E0
3E03E0
3E07C0
3F0FC0
1FFFC0
1FFFC0
07FF00
01F800
ENDCHAR
STARTCHAR Oacute
ENCODING 211
SWIDTH 600 0
DWIDTH 22 0
BBX 20 30 1 0
BITMAP
001F80
003E00
007C00
00F000
000000
002000
03FE00
0FFF80
1FFFC0
1FFFC0
7FFFC0
3E07C0
7C03E0
FC03F0
7C03E0
7C03E0
7C03E0
7C03E0
7C03E0
7C03E0
7C03E0
FC03F0
7C07E0
3E03E0
3E07C0
3F0FC0
1FFFC0
1FFFC0
07FF00
01F800
ENDCHAR
STARTCHAR Ocircumflex
ENCODING 212
SWIDTH 600 0
DWIDTH 22 0
BBX 20 30 1 0
BITMAP
01F800
03FC00
079E00
0F0F00
000000
002000
03FE00
0FFF80
1FFFC0
1FFFC0
7FFFC0
3E07C0
7C03E0
FC03F0
7C03E0
7C03E0
7C03E0
7C03E0
7C03E0
7C03E0
7C03E0
FC03F0
7C07E0
3E03E0
3E07C0
3F0FC0
1FFFC0
1FFFC0
07FF00
01F800
ENDCHAR
STARTCHAR Otilde
ENCODING 213
SWIDTH 600 0
DWIDTH 22 0
BBX 20 30 1 0
BITMAP
018180
0FE380
1FFF00
1CFF00
181E00
002000
03FE00
0FFF80
1FFFC0
1FFFC0
7FFFC0
3E07C0
7C03E0
FC03F0
7C03E0
7C03E0
7C03E0
7C03E0
7C03E0
7C03E0
7C03E0
FC03F0
7C07E0
3E03E0
3E07C0
3F0FC0
1FFFC0
1FFFC0
07FF00
01F800
ENDCHAR
STARTCHAR Odieresis
ENCODING 214
SWIDTH 600 0
DWIDTH 22 0
BBX 20 30 1 0
BITMAP
0F0F00
0F0F00
0F0F00
0F0F00
000000
002000
03FE00
0FFF80
1FFFC0
1FFFC0
7FFFC0
3E07C0
7C03E0
FC03F0
7C03E0
7C03E0
7C03E0
7C03E0
7C03E0
7C03E0
7C03E0
FC03F0
7C07E0
3E03E0
3E07C0
3F0FC0
1FFFC0
1FFFC0
07FF00
01F800
ENDCHAR
STARTCHAR multiply
ENCODING 215
SWIDTH 600 0
DWIDTH 22 0
BBX 19 18 2 3
BITMAP
300180
7803C0
FC07E0
7E0FC0
3F1F80
1FBF00
07FE00
03FC00
01F800
07F800
07FE00
0FFE00
1FBF00
3F1F80
7E0FC0
7803C0
300180
100000
ENDCHAR
STARTCHAR Oslash
ENCODING 216
SWIDTH 600 0
DWIDTH 22 0
BBX 19 25 2 0
BITMAP
004040
0FFCE0
1FFEE0
1FFFC0
3FFF80
7FBFC0
7E0FC0
7C0FE0
F81FE0
F83BE0
F83BE0
FC73E0
FCE3E0
FDC3E0
F9C3E0
FB83E0
FF03E0
FE07C0
7E0FC0
7C07C0
7F1FC0
3FFF80
7FFF80
FFFC00
C3F000
ENDCHAR
STARTCHAR Ugrave
ENCODING 217
SWIDTH 600 0
DWIDTH 22 0
BBX 17 30 3 0
BITMAP
7E0000
1F0000
0F8000
03C000
000000
000000
F81F00
F81F00
F81F00
F81F00
F81F00
F81F00
F81F00
F81F00
F81F00
F81F00
F81F00
F81F00
F81F00
F81F00
F81F00
F81F00
F81F00
F81F80
FC1F00
F87E00
FFFE00
7FFC00
7FF800
07E000
ENDCHAR
STARTCHAR Uacute
ENCODING 218
SWIDTH 600 0
DWIDTH 22 0
BBX 17 30 3 0
BITMAP
00FC00
00F800
03E000
03C000
000000
000000
F81F00
F81F00
F81F00
F81F00
F81F00
F81F00
F81F00
F81F00
F81F00
F81F00
F81F00
F81F00
F81F00
F81F00
F81F00
F81F00
F81F00
F81F80
FC1F00
F87E00
FFFE00
7FFC00
7FF800
07E000
ENDCHAR
STARTCHAR Ucircumflex
ENCODING 219
SWIDTH 600 0
DWIDTH 22 0
BBX 17 30 3 0
BITMAP
07E000
0FF000
1E7800
3C3C00
000000
000000
F81F00
F81F00
F81F00
F81F00
F81F00
F81F00
F81F00
F81F00
F81F00
F81F00
F81F00
F81F00
F81F00
F81F00
F81F00
F81F00
F81F00
F81F80
FC1F00
F87E00
FFFE00
7FFC00
7FF800
07E000
ENDCHAR
STARTCHAR Udieresis
ENCODING 220
SWIDTH 600 0
DWIDTH 22 0
BBX 17 30 3 0
BITMAP
3C3C00
3C3C00
3C3C00
3C3C00
000000
000000
F81F00
F81F00
F81F00
F81F00
F81F00
F81F00
F81F00
F81F00
F81F00
F81F00
F81F00
F81F00
F81F00
F81F00
F81F00
F81F00
F81F00
F81F80
FC1F00
F87E00
FFFE00
7FFC00
7FF800
07E000
ENDCHAR
STARTCHAR Yacute
ENCODING 221
SWIDTH 600 0
DWIDTH 22 0
BBX 20 30 1 0
BITMAP
001F00
003E00
007800
00F000
000000
000000
FC01F0
7C01F0
7C03E0
3E03E0
3E07C0
1F07C0
1F1F80
0F9F00
07DF00
07FE00
03FE00
03FC00
01FC00
00F800
00F800
00F800
00F800
00F800
00F800
00F800
00F800
00F800
00F800
00F800
ENDCHAR
STARTCHAR Thorn
ENCODING 222
SWIDTH 600 0
DWIDTH 22 0
BBX 18 24 2 0
BITMAP
7C0000
7C0000
7C0000
7C0000
FF8000
FFFE00
FFFF00
FFFF80
7C7FC0
7C0FC0
7C07C0
7C07C0
7C07C0
7C0FC0
7C0FC0
FFFF80
FFFF00
FFFE00
FFFC00
7C0000
7C0000
7C0000
7C0000
7C0000
ENDCHAR
STARTCHAR germandbls
ENCODING 223
SWIDTH 600 0
DWIDTH 22 0
BBX 19 27 2 0
BITMAP
004000
0FFC00
1FFE00
3FFF00
3FFF80
7E0F80
7C0F80
7C0F80
F80F80
F81F00
F83E00
F8FC00
F8F800
F8F800
F8F800
F87F00
F83F00
F81FC0
F81FC0
F803E0
F803E0
F803E0
F903E0
F8C3E0
F8FFC0
F9FF80
F8FE00
ENDCHAR
STARTCHAR agrave
ENCODING 224
SWIDTH 600 0
DWIDTH 22 0
BBX 19 26 2 0
BITMAP
1F0000
0F8000
07C000
01E000
00E000
000000
004000
0FFE00
1FFE00
3FFF00
7E1F00
7C0F80
000F80
000F80
00FF80
1FFF80
3FFF00
7F0F80
FC0F80
7C0F80
7C1F80
7C1F80
7FFF80
7FEFE0
3FC7E0
0FC7C0
ENDCHAR
STARTCHAR aacute
ENCODING 225
SWIDTH 600 0
DWIDTH 22 0
BBX 19 26 2 0
BITMAP
003E00
007C00
00F800
01E000
01C000
000000
004000
0FFE00
1FFE00
3FFF00
7E1F00
7C0F80
000F80
000F80
00FF80
1FFF80
3FFF00
7F0F80
FC0F80
7C0F80
7C1F80
7C1F80
7FFF80
7FEFE0
3FC7E0
0FC7C0
ENDCHAR
STARTCHAR acircumflex
ENCODING 226
SWIDTH 600 0
DWIDTH 22 0
BBX 19 26 2 0
BITMAP
01F000
03F800
0FBC00
1E1E00
1C0E00
000000
004000
0FFE00
1FFE00
3FFF00
7E1F00
7C0F80
000F80
000F80
00FF80
1FFF80
3FFF00
7F0F80
FC0F80
7C0F80
7C1F80
7C1F80
7FFF80
7FEFE0
3FC7E0
0FC7C0
ENDCHAR
STARTCHAR atilde
ENCODING 227
SWIDTH 600 0
DWIDTH 22 0
BBX 19 26 2 0
BITMAP
030700
0FE700
1FFF00
38FF00
183C00
000000
004000
0FFE00
1FFE00
3FFF00
7E1F00
7C0F80
000F80
000F80
00FF80
1FFF80
3FFF00
7F0F80
FC0F80
7C0F80
7C1F80
7C1F80
7FFF80
7FEFE0
3FC7E0
0FC7C0
ENDCHAR
STARTCHAR adieresis
ENCODING 228
SWIDTH 600 0
DWIDTH 22 0
BBX 19 26 2 0
BITMAP
1E1E00
1E1E00
1E1E00
1E1E00
000000
000000
004000
0FFE00
1FFE00
3FFF00
7E1F00
7C0F80
000F80
000F80
00FF80
1FFF80
3FFF00
7F0F80
FC0F80
7C0F80
7C1F80
7C1F80
7FFF80
7FEFE0
3FC7E0
0FC7C0
ENDCHAR
STARTCHAR aring
ENCODING 229
SWIDTH 600 0
DWIDTH 22 0
BBX 19 28 2 0
BITMAP
004000
03F000
07F800
071C00
061800
07F800
03F000
000000
004000
0FFE00
1FFE00
3FFF00
7E1F00
7C0F80
000F80
000F80
00FF80
1FFF80
3FFF00
7F0F80
FC0F80
7C0F80
7C1F80
7C1F80
7FFF80
7FEFE0
3FC7E0
0FC7C0
ENDCHAR
STARTCHAR ae
ENCODING 230
SWIDTH 600 0
DWIDTH 22 0
BBX 22 20 0 0
BITMAP
020100
1FCFE0
3FFFF0
3FFFF0
3CFC78
787878
007878
007878
03FFF8
3FFFF8
7FFFFC
FE7800
787800
F07800
F0F820
F0FC78
7BFC78
7F9FF0
3F8FE0
1F0FE0
ENDCHAR
STARTCHAR ccedilla
ENCODING 231
SWIDTH 600 0
DWIDTH 22 0
BBX 18 27 2 -7
BITMAP
004000
0FFE00
1FFE00
1FFF80
3FCFC0
7C07C0
FC07C0
7C0000
7C0000
7C0000
7C0000
7C0000
7C0000
FC07C0
7C07C0
7E0FC0
3FFF80
1FFF80
0FFC00
01FC00
01C000
01C000
01F800
007800
003C00
03F800
03F000
ENDCHAR
STARTCHAR egrave
ENCODING 232
SWIDTH 600 0
DWIDTH 22 0
BBX 19 26 2 0
BITMAP
1F0000
07C000
03E000
00F000
007000
000000
004000
07FE00
1FFF00
1FFF00
3E0F80
3E07C0
7C07C0
7C07C0
FFFFC0
7FFFE0
7FFFE0
7C0000
7C0000
FC0000
7C0300
3E07E0
3F8F80
1FFF80
0FFE00
03FE00
ENDCHAR
STARTCHAR eacute
ENCODING 233
SWIDTH 600 0
DWIDTH 22 0
BBX 19 26 2 0
BITMAP
001F80
003E00
007C00
00F000
01C000
000000
004000
07FE00
1FFF00
1FFF00
3E0F80
3E07C0
7C07C0
7C07C0
FFFFC0
7FFFE0
7FFFE0
7C0000
7C0000
FC0000
7C0300
3E07E0
3F8F80
1FFF80
0FFE00
03FE00
ENDCHAR
STARTCHAR ecircumflex
ENCODING 234
SWIDTH 600 0
DWIDTH 22 0
BBX 19 26 2 0
BITMAP
01F000
03F800
07FE00
0F1E00
1C0780
000000
004000
07FE00
1FFF00
1FFF00
3E0F80
3E07C0
7C07C0
7C07C0
FFFFC0
7FFFE0
7FFFE0
7C0000
7C0000
FC0000
7C0300
3E07E0
3F8F80
1FFF80
0FFE00
03FE00
ENDCHAR
STARTCHAR edieresis
ENCODING 235
SWIDTH 600 0
DWIDTH 22 0
BBX 19 26 2 0
BITMAP
0F1E00
0F1E00
0F1E00
0F1E00
000000
000000
004000
07FE00
1FFF00
1FFF00
3E0F80
3E07C0
7C07C0
7C07C0
FFFFC0
7FFFE0
7FFFE0
7C0000
7C0000
FC0000
7C0300
3E07E0
3F8F80
1FFF80
0FFE00
03FE00
ENDCHAR
STARTCHAR igrave
ENCODING 236
SWIDTH 600 0
DWIDTH 22 0
BBX 18 26 3 0
BITMAP
3E0000
0F8000
07C000
01E000
00F000
000000
000000
7FE000
7FE000
7FE000
03E000
03E000
03E000
03E000
03E000
03E000
03E000
03E000
03E000
03E000
03E000
03E000
FFFFC0
FFFFC0
FFFFC0
FFFFC0
ENDCHAR
STARTCHAR iacute
ENCODING 237
SWIDTH 600 0
DWIDTH 22 0
BBX 18 26 3 0
BITMAP
007E00
00F800
01F000
03C000
078000
000000
000000
7FE000
7FE000
7FE000
03E000
03E000
03E000
03E000
03E000
03E000
03E000
03E000
03E000
03E000
03E000
03E000
FFFFC0
FFFFC0
FFFFC0
FFFFC0
ENDCHAR
STARTCHAR icircumflex
ENCODING 238
SWIDTH 600 0
DWIDTH 22 0
BBX 18 26 3 0
BITMAP
07E000
0FF000
0FF800
1E3C00
3C0E00
000000
000000
7FE000
7FE000
7FE000
03E000
03E000
03E000
03E000
03E000
03E000
03E000
03E000
03E000
03E000
03E000
03E000
FFFFC0
FFFFC0
FFFFC0
FFFFC0
ENDCHAR
STARTCHAR idieresis
ENCODING 239
SWIDTH 600 0
DWIDTH 22 0
BBX 18 26 3 0
BITMAP
1E1E00
1E1E00
1E1E00
1E1E00
000000
000000
000000
7FE000
7FE000
7FE000
03E000
03E000
03E000
03E000
03E000
03E000
03E000
03E000
03E000
03E000
03E000
03E000
FFFFC0
FFFFC0
FFFFC0
FFFFC0
ENDCHAR
STARTCHAR eth
ENCODING 240
SWIDTH 600 0
DWIDTH 22 0
BBX 18 27 2 0
BITMAP
7E0400
0F9E00
07FF00
03FC00
0FF000
1FF800
0FFC00
087E00
001F00
039F80
0FFF80
3FFF80
3FFFC0
7FFFC0
FC0FC0
F807C0
F807C0
F807C0
F807C0
F807C0
F807C0
F80F80
7C0F80
7F7F00
3FFF00
3FFE00
03F000
ENDCHAR
STARTCHAR ntilde
ENCODING 241
SWIDTH 600 0
DWIDTH 22 0
BBX 18 26 2 0
BITMAP
030300
0FE700
1FFF00
39FE00
303C00
000000
001000
F8FF00
FBFF00
7FFF80
FFFF80
7E0FC0
FC0F80
7C07C0
7C07C0
7C07C0
7C07C0
7C07C0
7C07C0
7C07C0
7C07C0
7C07C0
7C07C0
7C07C0
7C07C0
7C07C0
ENDCHAR
STARTCHAR ograve
ENCODING 242
SWIDTH 600 0
DWIDTH 22 0
BBX 19 26 2 0
BITMAP
0F8000
07C000
03E000
00F000
003800
000000
004000
0FFE00
1FFF00
1FFFC0
3FFFC0
7C0FC0
FC07C0
7C03E0
7C03E0
7C03E0
7C03E0
7C03E0
7C03E0
FC07C0
7C07E0
3E07C0
3FFF80
1FFF80
0FFE00
01F800
ENDCHAR
STARTCHAR oacute
ENCODING 243
SWIDTH 600 0
DWIDTH 22 0
BBX 19 26 2 0
BITMAP
003F00
003E00
007C00
00F000
01C000
000000
004000
0FFE00
1FFF00
1FFFC0
3FFFC0
7C0FC0
FC07C0
7C03E0
7C03E0
7C03E0
7C03E0
7C03E0
7C03E0
FC07C0
7C07E0
3E07C0
3FFF80
1FFF80
0FFE00
01F800
ENDCHAR
STARTCHAR ocircumflex
ENCODING 244
SWIDTH 600 0
DWIDTH 22 0
BBX 19 26 2 0
BITMAP
01F000
03F800
07FE00
0F1E00
1C0780
000000
004000
0FFE00
1FFF00
1FFFC0
3FFFC0
7C0FC0
FC07C0
7C03E0
7C03E0
7C03E0
7C03E0
7C03E0
7C03E0
FC07C0
7C07E0
3E07C0
3FFF80
1FFF80
0FFE00
01F800
ENDCHAR
STARTCHAR otilde
ENCODING 245
SWIDTH 600 0
DWIDTH 22 0
BBX 19 26 2 0
BITMAP
018300
0FF700
1FFF00
1CFF00
1C1E00
000000
004000
0FFE00
1FFF00
1FFFC0
3FFFC0
7C0FC0
FC07C0
7C03E0
7C03E0
7C03E0
7C03E0
7C03E0
7C03E0
FC07C0
7C07E0
3E07C0
3FFF80
1FFF80
0FFE00
01F800
ENDCHAR
STARTCHAR odieresis
ENCODING 246
SWIDTH 600 0
DWIDTH 22 0
BBX 19 26 2 0
BITMAP
0F1E00
0F1E00
0F1E00
0F1E00
000000
000000
004000
0FFE00
1FFF00
1FFFC0
3FFFC0
7C0FC0
FC07C0
7C03E0
7C03E0
7C03E0
7C03E0
7C03E0
7C03E0
FC07C0
7C07E0
3E07C0
3FFF80
1FFF80
0FFE00
01F800
ENDCHAR
STARTCHAR divide
ENCODING 247
SWIDTH 600 0
DWIDTH 22 0
BBX 18 18 3 3
BITMAP
03C000
03C000
03C000
03C000
000000
000000
000000
FFFFC0
FFFFC0
FFFFC0
FFFFC0
000000
000000
03C000
03C000
03C000
03C000
03C000
ENDCHAR
STARTCHAR oslash
ENCODING 248
SWIDTH 600 0
DWIDTH 22 0
BBX 19 20 2 0
BITMAP
004080
0FFEE0
1FFFC0
3FFF80
3FFFC0
7C0FC0
FC1FC0
7C3BE0
7C73E0
7C73E0
7CE3E0
7DC3E0
7F83E0
7F07C0
7E07E0
3E07C0
3FFF80
7FFF00
7FFE00
21F800
ENDCHAR
STARTCHAR ugrave
ENCODING 249
SWIDTH 600 0
DWIDTH 22 0
BBX 17 26 2 0
BITMAP
1F0000
0F8000
07C000
01E000
00E000
000000
000000
F80F80
F80F80
F80F80
F80F80
F80F80
F80F80
F80F80
F80F80
F80F80
F80F80
F80F80
F80F80
7C0F80
FC1F80
7E1F80
7FFF80
7FEF80
3FCF80
0F0F80
ENDCHAR
STARTCHAR uacute
ENCODING 250
SWIDTH 600 0
DWIDTH 22 0
BBX 17 26 2 0
BITMAP
003F00
007C00
00F800
01E000
038000
000000
000000
F80F80
F80F80
F80F80
F80F80
F80F80
F80F80
F80F80
F80F80
F80F80
F80F80
F80F80
F80F80
7C0F80
FC1F80
7E1F80
7FFF80
7FEF80
3FCF80
0F0F80
ENDCHAR
STARTCHAR ucircumflex
ENCODING 251
SWIDTH 600 0
DWIDTH 22 0
BBX 17 26 2 0
BITMAP
03E000
07F000
0FF800
1E1E00
1C0E00
000000
000000
F80F80
F80F80
F80F80
F80F80
F80F80
F80F80
F80F80
F80F80
F80F80
F80F80
F80F80
F80F80
7C0F80
FC1F80
7E1F80
7FFF80
7FEF80
3FCF80
0F0F80
ENDCHAR
STARTCHAR udieresis
ENCODING 252
SWIDTH 600 0
DWIDTH 22 0
BBX 17 26 2 0
BITMAP
1E1E00
1E1E00
1E1E00
1E1E00
000000
000000
000000
F80F80
F80F80
F80F80
F80F80
F80F80
F80F80
F80F80
F80F80
F80F80
F80F80
F80F80
F80F80
7C0F80
FC1F80
7E1F80
7FFF80
7FEF80
3FCF80
0F0F80
ENDCHAR
STARTCHAR yacute
ENCODING 253
SWIDTH 600 0
DWIDTH 22 0
BBX 20 33 1 -7
BITMAP
000FC0
001F00
003E00
007800
00E000
000000
000000
FC01F0
7C01F0
3E01F0
3E03E0
1F03E0
1F07C0
1F07C0
0F87C0
0F8F80
0F8F80
07CF80
03CF00
03FE00
03DE00
01FE00
01FC00
01FC00
00FC00
00F800
00F800
01F000
01F000
3FE000
1FE000
1FC000
1FC000
ENDCHAR
STARTCHAR thorn
ENCODING 254
SWIDTH 600 0
DWIDTH 22 0
BBX 18 34 3 -7
BITMAP
F80000
F80000
F80000
F80000
F80000
F80000
F80000
F81000
F9FE00
FBFF00
FBFF00
7FFF80
FC0F80
7C0F80
7C07C0
F807C0
F807C0
F807C0
F807C0
7C07C0
7C0F80
FC0F80
FC0F80
FFFF00
FBFF00
F9FE00
F8F800
F80000
F80000
F80000
F80000
F80000
F80000
F80000
ENDCHAR
STARTCHAR ydieresis
ENCODING 255
SWIDTH 600 0
DWIDTH 22 0
BBX 20 33 1 -7
BITMAP
078F00
078F00
078F00
078F00
000000
000000
000000
FC01F0
7C01F0
3E01F0
3E03E0
1F03E0
1F07C0
1F07C0
0F87C0
0F8F80
0F8F80
07CF80
03CF00
03FE00
03DE00
01FE00
01FC00
01FC00
00FC00
00F800
00F800
01F000
01F000
3FE000
1FE000
1FC000
1FC000
ENDCHAR
STARTCHAR Amacron
ENCODING 256
SWIDTH 600 0
DWIDTH 22 0
BBX 21 29 1 0
BITMAP
07FF00
07FF00
07FF00
000000
000000
01F800
01FC00
03FC00
03FC00
03DE00
03FE00
079E00
0F8F00
079F00
0F0F80
0F8F80
1F0F80
1F07C0
1F07C0
3FFFC0
3FFFC0
3FFFE0
7FFFE0
7C03E0
7C01F0
F801F0
F801F0
F800F8
F801F8
ENDCHAR
STARTCHAR amacron
ENCODING 257
SWIDTH 600 0
DWIDTH 22 0
BBX 19 25 2 0
BITMAP
0FFE00
0FFE00
0FFE00
000000
000000
004000
0FFE00
1FFE00
3FFF00
7E1F00
7C0F80
000F80
000F80
00FF80
1FFF80
3FFF00
7F0F80
FC0F80
7C0F80
7C1F80
7C1F80
7FFF80
7FEFE0
3FC7E0
0FC7C0
ENDCHAR
STARTCHAR Abreve
ENCODING 258
SWIDTH 600 0
DWIDTH 22 0
BBX 21 30 1 0
BITMAP
0E0380
078700
07FE00
03FE00
000000
000000
01F800
01FC00
03FC00
03FC00
03DE00
03FE00
079E00
0F8F00
079F00
0F0F80
0F8F80
1F0F80
1F07C0
1F07C0
3FFFC0
3FFFC0
3FFFE0
7FFFE0
7C03E0
7C01F0
F801F0
F801F0
F800F8
F801F8
ENDCHAR
STARTCHAR abreve
ENCODING 259
SWIDTH 600 0
DWIDTH 22 0
BBX 19 26 2 0
BITMAP
1C0E00
1E1E00
0FFE00
07FC00
01F000
000000
004000
0FFE00
1FFE00
3FFF00
7E1F00
7C0F80
000F80
000F80
00FF80
1FFF80
3FFF00
7F0F80
FC0F80
7C0F80
7C1F80
7C1F80
7FFF80
7FEFE0
3FC7E0
0FC7C0
ENDCHAR
STARTCHAR Aogonek
ENCODING 260
SWIDTH 600 0
DWIDTH 22 0
BBX 21 31 1 -7
BITMAP
01F800
01FC00
03FC00
03FC00
03DE00
03FE00
079E00
0F8F00
079F00
0F0F80
0F8F80
1F0F80
1F07C0
1F07C0
3FFFC0
3FFFC0
3FFFE0
7FFFE0
7C03E0
7C01F0
F801F0
F801F0
F800F8
F801F8
0001C0
0001C0
000380
000380
0003F8
0001F8
0001F8
ENDCHAR
STARTCHAR aogonek
ENCODING 261
SWIDTH 600 0
DWIDTH 22 0
BBX 20 27 2 -7
BITMAP
004000
0FFE00
1FFE00
3FFF00
7E1F00
7C0F80
000F80
000F80
00FF80
1FFF80
3FFF00
7F0F80
FC0F80
7C0F80
7C1F80
7C1F80
7FFF80
7FEFE0
3FC7E0
0FC7C0
000700
000700
000700
000E00
000FE0
0007F0
0007E0
ENDCHAR
STARTCHAR Cacute
ENCODING 262
SWIDTH 600 0
DWIDTH 22 0
BBX 20 30 1 0
BITMAP
000F80
003E00
003C00
00F000
000000
002000
07FE00
0FFF00
1FFFC0
3FFFC0
3FFFC0
7E07E0
7C03C0
7E0000
7C0000
7C0000
7C0000
7C0000
7C0000
7C0000
7C0000
FC0000
7C01F0
7E03E0
3E07E0
3F8FC0
1FFFC0
1FFF80
07FE00
01F800
ENDCHAR
STARTCHAR cacute
ENCODING 263
SWIDTH 600 0
DWIDTH 22 0
BBX 18 26 2 0
BITMAP
001F00
003E00
00F800
00F000
03C000
000000
004000
0FFE00
1FFE00
1FFF80
3FCFC0
7C07C0
FC07C0
7C0000
7C0000
7C0000
7C0000
7C0000
7C0000
FC07C0
7C07C0
7E0FC0
3FFF80
1FFF80
0FFC00
01FC00
ENDCHAR
STARTCHAR Ccircumflex
ENCODING 264
SWIDTH 600 0
DWIDTH 22 0
BBX 20 30 1 0
BITMAP
01F800
03FC00
079F00
0F0F00
000000
002000
07FE00
0FFF00
1FFFC0
3FFFC0
3FFFC0
7E07E0
7C03C0
7E0000
7C0000
7C0000
7C0000
7C0000
7C0000
7C0000
7C0000
FC0000
7C01F0
7E03E0
3E07E0
3F8FC0
1FFFC0
1FFF80
07FE00
01F800
ENDCHAR
STARTCHAR ccircumflex
ENCODING 265
SWIDTH 600 0
DWIDTH 22 0
BBX 18 26 2 0
BITMAP
03F000
07F800
0FFC00
0F1E00
3C0700
000000
004000
0FFE00
1FFE00
1FFF80
3FCFC0
7C07C0
FC07C0
7C0000
7C0000
7C0000
7C0000
7C0000
7C0000
FC07C0
7C07C0
7E0FC0
3FFF80
1FFF80
0FFC00
01FC00
ENDCHAR
STARTCHAR Cdotaccent
ENCODING 266
SWIDTH 600 0
DWIDTH 22 0
BBX 20 29 1 0
BITMAP
00F800
00F800
00F800
00F800
002000
07FE00
0FFF00
1FFFC0
3FFFC0
3FFFC0
7E07E0
7C03C0
7E0000
7C0000
7C0000
7C0000
7C0000
7C0000
7C0000
7C0000
FC0000
7C01F0
7E03E0
3E07E0
3F8FC0
1FFFC0
1FFF80
07FE00
01F800
ENDCHAR
STARTCHAR cdotaccent
ENCODING 267
SWIDTH 600 0
DWIDTH 22 0
BBX 18 26 2 0
BITMAP
01F000
01F000
01F000
000000
000000
000000
004000
0FFE00
1FFE00
1FFF80
3FCFC0
7C07C0
FC07C0
7C0000
7C0000
7C0000
7C0000
7C0000
7C0000
FC07C0
7C07C0
7E0FC0
3FFF80
1FFF80
0FFC00
01FC00
ENDCHAR
STARTCHAR Ccaron
ENCODING 268
SWIDTH 600 0
DWIDTH 22 0
BBX 20 30 1 0
BITMAP
0F0F00
079F00
03FC00
01F800
000000
002000
07FE00
0FFF00
1FFFC0
3FFFC0
3FFFC0
7E07E0
7C03C0
7E0000
7C0000
7C0000
7C0000
7C0000
7C0000
7C0000
7C0000
FC0000
7C01F0
7E03E0
3E07E0
3F8FC0
1FFFC0
1FFF80
07FE00
01F800
ENDCHAR
STARTCHAR ccaron
ENCODING 269
SWIDTH 600 0
DWIDTH 22 0
BBX 18 26 2 0
BITMAP
1E0F00
0F9E00
07FC00
03F800
01F000
000000
004000
0FFE00
1FFE00
1FFF80
3FCFC0
7C07C0
FC07C0
7C0000
7C0000
7C0000
7C0000
7C0000
7C0000
FC07C0
7C07C0
7E0FC0
3FFF80
1FFF80
0FFC00
01FC00
ENDCHAR
STARTCHAR Dcaron
ENCODING 270
SWIDTH 600 0
DWIDTH 22 0
BBX 19 30 2 0
BITMAP
3C1E00
0F7800
0FF000
07E000
000000
000000
7E0000
7FFC00
FFFE00
FFFE00
7DFF80
7C1F80
7C0FC0
7C07C0
7C0FC0
7C07E0
7C07C0
7C07C0
7C07C0
7C07E0
7C0FC0
7C07C0
7C0F80
7C1F80
7C1F80
7DFF00
7FFF00
FFFC00
7FF800
7F0000
ENDCHAR
STARTCHAR dcaron
ENCODING 271
SWIDTH 600 0
DWIDTH 22 0
BBX 22 27 0 0
BITMAP
001F3C
001F78
001F78
001F70
001F70
001F70
001F70
021F00
1F9F00
3FDF00
3FFF00
7F3F00
7C1F00
7C1F00
7C1F00
7C1F00
7C1F00
F81F00
7C1F00
7C1F00
7C1F00
7C3E00
7C3F00
3FFF00
3FDF00
1F9F00
079F00
ENDCHAR
STARTCHAR Dcroat
ENCODING 272
SWIDTH 600 0
DWIDTH 22 0
BBX 20 24 1 0
BITMAP
3F8000
3FFF00
3FFF80
3FFF80
7EFFC0
7E07E0
7E07E0
7E03F0
7E03E0
7E03E0
FFE3E0
FFE1F0
FFE3E0
FFE3E0
7E03E0
7E03F0
7E03E0
7E07E0
7E0FC0
7E7FC0
3FFF80
3FFF00
3FFE00
3FC000
ENDCHAR
STARTCHAR dcroat
ENCODING 273
SWIDTH 600 0
DWIDTH 22 0
BBX 19 27 3 0
BITMAP
000F80
000F80
000F80
03FFE0
03FFE0
03FFE0
000F80
000F80
0E0F80
3FCF80
7FEF80
FFFF80
F81F80
FC1F80
F80F80
F80F80
F80F80
F80F80
F80F80
F80F80
F80F80
FC1F80
FC1F80
7FFF80
7FEF80
3FCF80
0F8F80
ENDCHAR
STARTCHAR Emacron
ENCODING 274
SWIDTH 600 0
DWIDTH 22 0
BBX 18 29 2 0
BITMAP
0FFE00
0FFE00
0FFE00
000000
000000
FFFF80
FFFF80
FFFF80
FFFF80
7C0000
7C0000
7C0000
7C0000
7C0000
7C0000
FFFF00
FFFF00
FFFF00
FFFF00
7C0000
7C0000
7C0000
7C0000
7C0000
7C0000
FFFFC0
FFFFC0
FFFFC0
FFFFC0
ENDCHAR
STARTCHAR emacron
ENCODING 275
SWIDTH 600 0
DWIDTH 22 0
BBX 19 25 2 0
BITMAP
0FFE00
0FFE00
0FFE00
000000
000000
004000
07FE00
1FFF00
1FFF00
3E0F80
3E07C0
7C07C0
7C07C0
FFFFC0
7FFFE0
7FFFE0
7C0000
7C0000
FC0000
7C0300
3E07E0
3F8F80
1FFF80
0FFE00
03FE00
ENDCHAR
STARTCHAR Ebreve
ENCODING 276
SWIDTH 600 0
DWIDTH 22 0
BBX 18 30 2 0
BITMAP
1C0E00
1E1C00
0FFC00
07F800
000000
000000
FFFF80
FFFF80
FFFF80
FFFF80
7C0000
7C0000
7C0000
7C0000
7C0000
7C0000
FFFF00
FFFF00
FFFF00
FFFF00
7C0000
7C0000
7C0000
7C0000
7C0000
7C0000
FFFFC0
FFFFC0
FFFFC0
FFFFC0
ENDCHAR
STARTCHAR ebreve
ENCODING 277
SWIDTH 600 0
DWIDTH 22 0
BBX 19 26 2 0
BITMAP
1C0700
1E0F00
0FFE00
07FC00
01F000
000000
004000
07FE00
1FFF00
1FFF00
3E0F80
3E07C0
7C07C0
7C07C0
FFFFC0
7FFFE0
7FFFE0
7C0000
7C0000
FC0000
7C0300
3E07E0
3F8F80
1FFF80
0FFE00
03FE00
ENDCHAR
STARTCHAR Edotaccent
ENCODING 278
SWIDTH 600 0
DWIDTH 22 0
BBX 18 29 2 0
BITMAP
03E000
03E000
03E000
03E000
000000
FFFF80
FFFF80
FFFF80
FFFF80
7C0000
7C0000
7C0000
7C0000
7C0000
7C0000
FFFF00
FFFF00
FFFF00
FFFF00
7C0000
7C0000
7C0000
7C0000
7C0000
7C0000
FFFFC0
FFFFC0
FFFFC0
FFFFC0
ENDCHAR
STARTCHAR edotaccent
ENCODING 279
SWIDTH 600 0
DWIDTH 22 0
BBX 19 26 2 0
BITMAP
01F000
01F000
01F000
000000
000000
000000
004000
07FE00
1FFF00
1FFF00
3E0F80
3E07C0
7C07C0
7C07C0
FFFFC0
7FFFE0
7FFFE0
7C0000
7C0000
FC0000
7C0300
3E07E0
3F8F80
1FFF80
0FFE00
03FE00
ENDCHAR
STARTCHAR Eogonek
ENCODING 280
SWIDTH 600 0
DWIDTH 22 0
BBX 18 31 2 -7
BITMAP
FFFF80
FFFF80
FFFF80
FFFF80
7C0000
7C0000
7C0000
7C0000
7C0000
7C0000
FFFF00
FFFF00
FFFF00
FFFF00
7C0000
7C0000
7C0000
7C0000
7C0000
7C0000
FFFFC0
FFFFC0
FFFFC0
FFFFC0
000E00
000E00
001C00
001C00
001FC0
001FC0
000FC0
ENDCHAR
STARTCHAR eogonek
ENCODING 281
SWIDTH 600 0
DWIDTH 22 0
BBX 19 27 2 -7
BITMAP
004000
07FE00
1FFF00
1FFF00
3E0F80
3E07C0
7C07C0
7C07C0
FFFFC0
7FFFE0
7FFFE0
7C0000
7C0000
FC0000
7C0300
3E07E0
3F8F80
1FFF80
0FFE00
03FE00
00E000
00E000
01C000
01C000
01FC00
00FC00
00FC00
ENDCHAR
STARTCHAR Ecaron
ENCODING 282
SWIDTH 600 0
DWIDTH 22 0
BBX 18 30 2 0
BITMAP
1E1E00
0F3E00
07F800
03F000
000000
000000
FFFF80
FFFF80
FFFF80
FFFF80
7C0000
7C0000
7C0000
7C0000
7C0000
7C0000
FFFF00
FFFF00
FFFF00
FFFF00
7C0000
7C0000
7C0000
7C0000
7C0000
7C0000
FFFFC0
FFFFC0
FFFFC0
FFFFC0
ENDCHAR
STARTCHAR ecaron
ENCODING 283
SWIDTH 600 0
DWIDTH 22 0
BBX 19 26 2 0
BITMAP
1E0F00
0F1E00
07FC00
03F800
01F000
000000
004000
07FE00
1FFF00
1FFF00
3E0F80
3E07C0
7C07C0
7C07C0
FFFFC0
7FFFE0
7FFFE0
7C0000
7C0000
FC0000
7C0300
3E07E0
3F8F80
1FFF80
0FFE00
03FE00
ENDCHAR
STARTCHAR Gcircumflex
ENCODING 284
SWIDTH 600 0
DWIDTH 22 0
BBX 19 30 1 0
BITMAP
01F800
03FC00
07DE00
0F0F00
000000
002000
07FC00
0FFF00
1FFF80
3FFF80
3FFFC0
7E07C0
7C0700
FC0000
7C0000
7C0000
7C7FE0
7C7FE0
7C7FE0
7C7FE0
7C03E0
FC03E0
7C03E0
3E03E0
3E03E0
3F87E0
1FFFE0
1FFF80
07FE00
01F800
ENDCHAR
STARTCHAR gcircumflex
ENCODING 285
SWIDTH 600 0
DWIDTH 22 0
BBX 18 33 2 -7
BITMAP
01F000
07F000
0FF800
1E1E00
1C0E00
000000
070000
0FE7C0
3FF7C0
3FFFC0
3FFFC0
7E0FC0
FC07C0
7C07C0
7C07C0
7C07C0
7C07C0
7C07C0
7C07C0
FC07C0
7C0FC0
3F1FC0
3FFFC0
3FE7C0
0FE7C0
0007C0
0007C0
040F80
7C0F80
3F0F80
3FFF00
1FFE00
1FF800
ENDCHAR
STARTCHAR Gbreve
ENCODING 286
SWIDTH 600 0
DWIDTH 22 0
BBX 19 30 1 0
BITMAP
0E0700
0F0E00
0FFE00
03FC00
000000
002000
07FC00
0FFF00
1FFF80
3FFF80
3FFFC0
7E07C0
7C0700
FC0000
7C0000
7C0000
7C7FE0
7C7FE0
7C7FE0
7C7FE0
7C03E0
FC03E0
7C03E0
3E03E0
3E03E0
3F87E0
1FFFE0
1FFF80
07FE00
01F800
ENDCHAR
STARTCHAR gbreve
ENCODING 287
SWIDTH 600 0
DWIDTH 22 0
BBX 18 33 2 -7
BITMAP
1C0E00
1E1E00
1FFC00
0FF800
03E000
000000
070000
0FE7C0
3FF7C0
3FFFC0
3FFFC0
7E0FC0
FC07C0
7C07C0
7C07C0
7C07C0
7C07C0
7C07C0
7C07C0
FC07C0
7C0FC0
3F1FC0
3FFFC0
3FE7C0
0FE7C0
0007C0
0007C0
040F80
7C0F80
3F0F80
3FFF00
1FFE00
1FF800
ENDCHAR
STARTCHAR Gdotaccent
ENCODING 288
SWIDTH 600 0
DWIDTH 22 0
BBX 19 29 1 0
BITMAP
00F800
00F800
00F800
00F800
002000
07FC00
0FFF00
1FFF80
3FFF80
3FFFC0
7E07C0
7C0700
FC0000
7C0000
7C0000
7C7FE0
7C7FE0
7C7FE0
7C7FE0
7C03E0
FC03E0
7C03E0
3E03E0
3E03E0
3F87E0
1FFFE0
1FFF80
07FE00
01F800
ENDCHAR
STARTCHAR gdotaccent
ENCODING 289
SWIDTH 600 0
DWIDTH 22 0
BBX 18 33 2 -7
BITMAP
03E000
03E000
03E000
000000
000000
000000
070000
0FE7C0
3FF7C0
3FFFC0
3FFFC0
7E0FC0
FC07C0
7C07C0
7C07C0
7C07C0
7C07C0
7C07C0
7C07C0
FC07C0
7C0FC0
3F1FC0
3FFFC0
3FE7C0
0FE7C0
0007C0
0007C0
040F80
7C0F80
3F0F80
3FFF00
1FFE00
1FF800
ENDCHAR
STARTCHAR Gcommaaccent
ENCODING 290
SWIDTH 600 0
DWIDTH 22 0
BBX 19 32 1 -7
BITMAP
002000
07FC00
0FFF00
1FFF80
3FFF80
3FFFC0
7E07C0
7C0700
FC0000
7C0000
7C0000
7C7FE0
7C7FE0
7C7FE0
7C7FE0
7C03E0
FC03E0
7C03E0
3E03E0
3E03E0
3F87E0
1FFFE0
1FFF80
07FE00
01F800
000000
00F800
00F800
00F000
01E000
01E000
03C000
ENDCHAR
STARTCHAR gcommaaccent
ENCODING 291
SWIDTH 600 0
DWIDTH 22 0
BBX 18 35 2 -7
BITMAP
007000
007000
00F000
01E000
03E000
03E000
000000
000000
070000
0FE7C0
3FF7C0
3FFFC0
3FFFC0
7E0FC0
FC07C0
7C07C0
7C07C0
7C07C0
7C07C0
7C07C0
7C07C0
FC07C0
7C0FC0
3F1FC0
3FFFC0
3FE7C0
0FE7C0
0007C0
0007C0
040F80
7C0F80
3F0F80
3FFF00
1FFE00
1FF800
ENDCHAR
STARTCHAR Hcircumflex
ENCODING 292
SWIDTH 600 0
DWIDTH 22 0
BBX 17 30 2 0
BITMAP
03F000
07F800
0FBC00
1E1E00
000000
000000
7C0F80
7C0F80
7C0F80
7C0F80
7C0F80
7C0F80
7C0F80
7C0F80
7C0F80
FFFF80
FFFF80
FFFF80
FFFF80
7C0F80
7C0F80
7C0F80
7C0F80
7C0F80
7C0F80
7C0F80
7C0F80
7C0F80
7C0F80
7C0F80
ENDCHAR
STARTCHAR hcircumflex
ENCODING 293
SWIDTH 600 0
DWIDTH 22 0
BBX 17 30 3 0
BITMAP
03F000
07F800
0FBC00
1E1E00
000000
000000
F80000
F80000
F80000
F80000
F81000
F8FF00
F9FF00
FBFF80
FFFF80
7E1F80
7C0F80
7C0F80
F80F80
F80F80
F80F80
F80F80
F80F80
F80F80
F80F80
F80F80
F80F80
F80F80
F80F80
F80F80
ENDCHAR
STARTCHAR Hbar
ENCODING 294
SWIDTH 600 0
DWIDTH 22 0
BBX 21 24 1 0
BITMAP
7E03E0
7E03E0
7E03E0
FFFFF8
FFFFF8
FFFFF8
7E03E0
7E03E0
7E03E0
3FFFE0
3FFFE0
3FFFE0
3FFFE0
7E03E0
7E03E0
7E03E0
7E03E0
7E03E0
7E03E0
7E03E0
7E03E0
7E03E0
7E03E0
7E03E0
ENDCHAR
STARTCHAR hbar
ENCODING 295
SWIDTH 600 0
DWIDTH 22 0
BBX 20 27 0 0
BITMAP
1F0000
1F0000
1F0000
FFF800
FFF800
FFF800
1F0000
1F0000
1F0400
1F7FC0
1FFFC0
1FFFF0
1FFFF0
1F83F0
1F81F0
1F01F0
1F01F0
1F01F0
1F01F0
1F01F0
1F01F0
1F01F0
1F01F0
1F01F0
1F01F0
1F01F0
1F01F0
ENDCHAR
STARTCHAR Itilde
ENCODING 296
SWIDTH 600 0
DWIDTH 22 0
BBX 16 30 4 0
BITMAP
0C0E
7F9C
7FFC
73FC
E078
0000
FFFF
FFFF
FFFF
FFFF
07E0
07E0
07E0
07E0
07E0
07E0
07E0
07E0
07E0
07E0
07E0
07E0
07E0
07E0
07E0
07E0
FFFF
FFFF
FFFF
FFFF
ENDCHAR
STARTCHAR itilde
ENCODING 297
SWIDTH 600 0
DWIDTH 22 0
BBX 18 26 3 0
BITMAP
060E00
1FCE00
3FFE00
71FE00
307800
000000
000000
7FE000
7FE000
7FE000
03E000
03E000
03E000
03E000
03E000
03E000
03E000
03E000
03E000
03E000
03E000
03E000
FFFFC0
FFFFC0
FFFFC0
FFFFC0
ENDCHAR
STARTCHAR Imacron
ENCODING 298
SWIDTH 600 0
DWIDTH 22 0
BBX 16 29 4 0
BITMAP
3FF8
3FF8
3FF8
0000
0000
FFFF
FFFF
FFFF
FFFF
07E0
07E0
07E0
07E0
07E0
07E0
07E0
07E0
07E0
07E0
07E0
07E0
07E0
07E0
07E0
07E0
FFFF
FFFF
FFFF
FFFF
ENDCHAR
STARTCHAR imacron
ENCODING 299
SWIDTH 600 0
DWIDTH 22 0
BBX 18 25 3 0
BITMAP
1FFC00
1FFC00
1FFC00
000000
000000
000000
7FE000
7FE000
7FE000
03E000
03E000
03E000
03E000
03E000
03E000
03E000
03E000
03E000
03E000
03E000
03E000
FFFFC0
FFFFC0
FFFFC0
FFFFC0
ENDCHAR
STARTCHAR Ibreve
ENCODING 300
SWIDTH 600 0
DWIDTH 22 0
BBX 16 30 4 0
BITMAP
701C
3C3C
3FF0
1FE0
0000
0000
FFFF
FFFF
FFFF
FFFF
07E0
07E0
07E0
07E0
07E0
07E0
07E0
07E0
07E0
07E0
07E0
07E0
07E0
07E0
07E0
07E0
FFFF
FFFF
FFFF
FFFF
ENDCHAR
STARTCHAR ibreve
ENCODING 301
SWIDTH 600 0
DWIDTH 22 0
BBX 18 26 3 0
BITMAP
380E00
3C1E00
1FFC00
0FF800
03E000
000000
000000
7FE000
7FE000
7FE000
03E000
03E000
03E000
03E000
03E000
03E000
03E000
03E000
03E000
03E000
03E000
03E000
FFFFC0
FFFFC0
FFFFC0
FFFFC0
ENDCHAR
STARTCHAR Iogonek
ENCODING 302
SWIDTH 600 0
DWIDTH 22 0
BBX 16 31 4 -7
BITMAP
FFFF
FFFF
FFFF
FFFF
07E0
07E0
07E0
07E0
07E0
07E0
07E0
07E0
07E0
07E0
07E0
07E0
07E0
07E0
07E0
07E0
FFFF
FFFF
FFFF
FFFF
0700
0700
0E00
0E00
0FE0
07F0
07E0
ENDCHAR
STARTCHAR iogonek
ENCODING 303
SWIDTH 600 0
DWIDTH 22 0
BBX 18 34 3 -7
BITMAP
03E000
03E000
03E000
03E000
000000
000000
000000
000000
7FE000
7FE000
7FE000
03E000
03E000
03E000
03E000
03E000
03E000
03E000
03E000
03E000
03E000
03E000
03E000
FFFFC0
FFFFC0
FFFFC0
FFFFC0
01C000
01C000
038000
038000
03F800
03F000
01F800
ENDCHAR
STARTCHAR Idotaccent
ENCODING 304
SWIDTH 600 0
DWIDTH 22 0
BBX 16 29 4 0
BITMAP
07C0
07C0
07C0
07C0
0000
FFFF
FFFF
FFFF
FFFF
07E0
07E0
07E0
07E0
07E0
07E0
07E0
07E0
07E0
07E0
07E0
07E0
07E0
07E0
07E0
07E0
FFFF
FFFF
FFFF
FFFF
ENDCHAR
STARTCHAR dotlessi
ENCODING 305
SWIDTH 600 0
DWIDTH 22 0
BBX 18 19 3 0
BITMAP
7FE000
7FE000
7FE000
03E000
03E000
03E000
03E000
03E000
03E000
03E000
03E000
03E000
03E000
03E000
03E000
FFFFC0
FFFFC0
FFFFC0
FFFFC0
ENDCHAR
STARTCHAR IJ
ENCODING 306
SWIDTH 600 0
DWIDTH 22 0
BBX 20 24 1 0
BITMAP
F83FE0
F83FE0
F83FE0
F83FE0
F801F0
F801F0
F801F0
F801F0
F801F0
F801F0
F801F0
F801F0
F801F0
F801F0
F801F0
F801F0
F801F0
FBE3E0
F9F3E0
F9F3E0
F9FFC0
F9FFC0
F8FF80
F83E00
ENDCHAR
STARTCHAR ij
ENCODING 307
SWIDTH 600 0
DWIDTH 22 0
BBX 16 34 3 -7
BITMAP
F81F
F81F
F81F
F81F
0000
0000
0000
0000
F81F
F81F
F81F
F81F
F81F
F81F
F81F
F81F
F81F
F81F
F81F
F81F
F81F
F81F
F81F
F81F
F81F
F81F
F81F
001F
001F
003E
3FFE
1FFE
1FFC
1FF8
ENDCHAR
STARTCHAR Jcircumflex
ENCODING 308
SWIDTH 600 0
DWIDTH 22 0
BBX 18 30 2 0
BITMAP
007E00
00FF00
03EF00
03C3C0
000000
000000
03FF00
03FF00
03FF00
03FF00
001F00
001F00
001F00
001F00
001F00
001F00
001F00
001F00
001F00
001F00
001F00
001F00
7C1F00
FC1F00
7E1F80
3E1F00
3FFF00
1FFE00
1FFC00
03F000
ENDCHAR
STARTCHAR jcircumflex
ENCODING 309
SWIDTH 600 0
DWIDTH 22 0
BBX 15 33 4 -7
BITMAP
03E0
07F0
0FF8
1E1E
1C0E
0000
0000
3FF8
3FF8
3FF8
00F8
00F8
00F8
00F8
00F8
00F8
00F8
00F8
00F8
00F8
00F8
00F8
00F8
00F8
00F8
00F8
00F8
01F0
03F0
FFF0
FFF0
FFC0
FF80
ENDCHAR
STARTCHAR Kcommaaccent
ENCODING 310
SWIDTH 600 0
DWIDTH 22 0
BBX 20 31 2 -7
BITMAP
7C07E0
7C0FC0
7C1F80
7C1F80
7C3F00
7C7E00
7CFC00
7DF800
7DF000
7FE000
7FF000
FFF000
7FF800
FFF800
FEFC00
FC7E00
7C7E00
7C3F00
7C1F80
7C1F80
7C0FC0
7C0FC0
7C07F0
7C03F0
000000
01F000
01F000
01E000
03C000
03C000
03C000
ENDCHAR
STARTCHAR kcommaaccent
ENCODING 311
SWIDTH 600 0
DWIDTH 22 0
BBX 18 34 3 -7
BITMAP
F80000
F80000
F80000
F80000
F80000
F80000
F80000
F80000
F81F00
F81F00
F83E00
F87C00
F9F800
F9F000
FBE000
FFE000
7FF000
FFF000
7FF800
F87C00
F87C00
F83E00
F83E00
F83F00
F80F80
F80F80
F807C0
000000
03E000
01E000
03C000
03C000
078000
070000
ENDCHAR
STARTCHAR kgreenlandic
ENCODING 312
SWIDTH 600 0
DWIDTH 22 0
BBX 18 19 3 0
BITMAP
F80F80
F81F00
F83E00
F8FC00
F8F800
F9F000
FBE000
FBE000
7FF000
FFF000
FEF800
7CF800
F87E00
F83E00
F83E00
F83F00
F80F80
F80FC0
F807C0
ENDCHAR
STARTCHAR Lacute
ENCODING 313
SWIDTH 600 0
DWIDTH 22 0
BBX 16 30 4 0
BITMAP
07C0
0F80
1F00
3C00
0000
0000
7C00
7C00
7C00
7C00
7C00
7C00
7C00
7C00
7C00
7C00
7C00
7C00
7C00
7C00
7C00
7C00
7C00
7C00
7C00
7C00
FFFF
FFFF
FFFF
FFFF
ENDCHAR
STARTCHAR lacute
ENCODING 314
SWIDTH 600 0
DWIDTH 22 0
BBX 18 30 3 0
BITMAP
003E00
00F800
00F000
03C000
000000
000000
7FE000
7FE000
7FE000
03E000
03E000
03E000
03E000
03E000
03E000
03E000
03E000
03E000
03E000
03E000
03E000
03E000
03E000
03E000
03E000
03E000
FFFFC0
FFFFC0
FFFFC0
FFFFC0
ENDCHAR
STARTCHAR Lcommaaccent
ENCODING 315
SWIDTH 600 0
DWIDTH 22 0
BBX 16 31 4 -7
BITMAP
7C00
7C00
7C00
7C00
7C00
7C00
7C00
7C00
7C00
7C00
7C00
7C00
7C00
7C00
7C00
7C00
7C00
7C00
7C00
7C00
FFFF
FFFF
FFFF
FFFF
0000
03E0
03E0
03C0
0780
0780
0F00
ENDCHAR
STARTCHAR lcommaaccent
ENCODING 316
SWIDTH 600 0
DWIDTH 22 0
BBX 18 34 3 -7
BITMAP
7FE000
7FE000
7FE000
7FE000
03E000
03E000
03E000
03E000
03E000
03E000
03E000
03E000
03E000
03E000
03E000
03E000
03E000
03E000
03E000
03E000
03E000
03E000
03E000
FFFFC0
FFFFC0
FFFFC0
FFFFC0
000000
03E000
01E000
03E000
03C000
078000
070000
ENDCHAR
STARTCHAR Lcaron
ENCODING 317
SWIDTH 600 0
DWIDTH 22 0
BBX 16 24 4 0
BITMAP
7C1F
7C1E
7C1E
7C3C
7C3C
7C38
7C00
7C00
7C00
7C00
7C00
7C00
7C00
7C00
7C00
7C00
7C00
7C00
7C00
7C00
FFFF
FFFF
FFFF
FFFF
ENDCHAR
STARTCHAR lcaron
ENCODING 318
SWIDTH 600 0
DWIDTH 22 0
BBX 20 27 2 0
BITMAP
7FE1F0
7FE3E0
7FE3C0
7FE3C0
03E3C0
03E380
03E700
03E000
03E000
03E000
03E000
03E000
03E000
03E000
03E000
03E000
03E000
03E000
03E000
03E000
03E000
03E000
03E000
FFFFC0
FFFFC0
FFFFC0
FFFFC0
ENDCHAR
STARTCHAR Ldot
ENCODING 319
SWIDTH 600 0
DWIDTH 22 0
BBX 16 24 4 0
BITMAP
7C00
7C00
7C00
7C00
7C00
7C00
7C00
7C00
7C00
7C00
7CF8
7CF8
7CF8
7C00
7C00
7C00
7C00
7C00
7C00
7C00
FFFF
FFFF
FFFF
FFFF
ENDCHAR
STARTCHAR ldot
ENCODING 320
SWIDTH 600 0
DWIDTH 22 0
BBX 18 27 3 0
BITMAP
7FE000
7FE000
7FE000
7FE000
03E000
03E000
03E000
03E000
03E000
03E000
03E000
03E000
03E000
03E7C0
03E7C0
03E7C0
03E000
03E000
03E000
03E000
03E000
03E000
03E000
FFFFC0
FFFFC0
FFFFC0
FFFFC0
ENDCHAR
STARTCHAR Lslash
ENCODING 321
SWIDTH 600 0
DWIDTH 22 0
BBX 19 24 1 0
BITMAP
1F0000
1F0000
1F0000
1F0000
1F0000
1F0000
1F0000
1F0800
1F3C00
1FFC00
1FFC00
1FF000
7FC000
FF0000
FF8000
FF0000
7F0000
1F0000
1F0000
1F0000
1FFFE0
1FFFE0
1FFFE0
1FFFE0
ENDCHAR
STARTCHAR lslash
ENCODING 322
SWIDTH 600 0
DWIDTH 22 0
BBX 18 27 3 0
BITMAP
7FE000
7FE000
7FE000
7FE000
03E000
03E000
03E000
03E000
03E300
03EF00
03FF00
01FE00
01F800
07F000
1FE000
7FE000
3FE000
33E000
03E000
03E000
03E000
03E000
03E000
FFFFC0
FFFFC0
FFFFC0
FFFFC0
ENDCHAR
STARTCHAR Nacute
ENCODING 323
SWIDTH 600 0
DWIDTH 22 0
BBX 18 30 2 0
BITMAP
003E00
007C00
00F000
01E000
000000
000000
7E07C0
FE07C0
FE07C0
7F07C0
FF07C0
7F87C0
7F87C0
7F87C0
7BC7C0
7FC7C0
7BC7C0
79E7C0
F9E7C0
F8F7C0
F8F7C0
F8F780
F87F80
F87F80
F87F80
F83FC0
F83F80
F83F80
F81FC0
F81F80
ENDCHAR
STARTCHAR nacute
ENCODING 324
SWIDTH 600 0
DWIDTH 22 0
BBX 18 26 2 0
BITMAP
001F00
003E00
00F800
00F000
01E000
000000
001000
F8FF00
FBFF00
7FFF80
FFFF80
7E0FC0
FC0F80
7C07C0
7C07C0
7C07C0
7C07C0
7C07C0
7C07C0
7C07C0
7C07C0
7C07C0
7C07C0
7C07C0
7C07C0
7C07C0
ENDCHAR
STARTCHAR Ncommaaccent
ENCODING 325
SWIDTH 600 0
DWIDTH 22 0
BBX 18 31 2 -7
BITMAP
7E07C0
FE07C0
FE07C0
7F07C0
FF07C0
7F87C0
7F87C0
7F87C0
7BC7C0
7FC7C0
7BC7C0
79E7C0
F9E7C0
F8F7C0
F8F7C0
F8F780
F87F80
F87F80
F87F80
F83FC0
F83F80
F83F80
F81FC0
F81F80
000000
03E000
01E000
03C000
03C000
078000
070000
ENDCHAR
STARTCHAR ncommaaccent
ENCODING 326
SWIDTH 600 0
DWIDTH 22 0
BBX 18 27 2 -7
BITMAP
001000
F8FF00
FBFF00
7FFF80
FFFF80
7E0FC0
FC0F80
7C07C0
7C07C0
7C07C0
7C07C0
7C07C0
7C07C0
7C07C0
7C07C0
7C07C0
7C07C0
7C07C0
7C07C0
7C07C0
000000
01F000
01E000
03C000
03C000
078000
038000
ENDCHAR
STARTCHAR Ncaron
ENCODING 327
SWIDTH 600 0
DWIDTH 22 0
BBX 18 30 2 0
BITMAP
1E1E00
1F3C00
07F800
03F000
000000
000000
7E07C0
FE07C0
FE07C0
7F07C0
FF07C0
7F87C0
7F87C0
7F87C0
7BC7C0
7FC7C0
7BC7C0
79E7C0
F9E7C0
F8F7C0
F8F7C0
F8F780
F87F80
F87F80
F87F80
F83FC0
F83F80
F83F80
F81FC0
F81F80
ENDCHAR
STARTCHAR ncaron
ENCODING 328
SWIDTH 600 0
DWIDTH 22 0
BBX 18 26 2 0
BITMAP
3C1E00
0F3C00
0FF800
07F000
03E000
000000
001000
F8FF00
FBFF00
7FFF80
FFFF80
7E0FC0
FC0F80
7C07C0
7C07C0
7C07C0
7C07C0
7C07C0
7C07C0
7C07C0
7C07C0
7C07C0
7C07C0
7C07C0
7C07C0
7C07C0
ENDCHAR
STARTCHAR napostrophe
ENCODING 329
SWIDTH 600 0
DWIDTH 22 0
BBX 20 24 1 0
BITMAP
7C0000
780000
F00000
F00000
F00200
EF9FE0
0FBFE0
0FBFF0
0FFFF0
0FC3F0
0F81F0
0F81F0
0F81F0
0F81F0
0F81F0
0F81F0
0F81F0
0F81F0
0F81F0
0F81F0
0F81F0
0F81F0
0F81F0
0F81F0
ENDCHAR
STARTCHAR Eng
ENCODING 330
SWIDTH 600 0
DWIDTH 22 0
BBX 18 24 2 0
BITMAP
7C0800
7CFF80
7DFF80
7FFFC0
FFFFC0
FF0FC0
7E07C0
FC07C0
FC07C0
7C07C0
7C07C0
7C07C0
7C07C0
7C07C0
7C07C0
7C07C0
7C07C0
7C07C0
7C47C0
7DE7C0
7DFFC0
7CFF80
7CFF80
7CFC00
ENDCHAR
STARTCHAR eng
ENCODING 331
SWIDTH 600 0
DWIDTH 22 0
BBX 18 27 2 -7
BITMAP
001000
F8FF00
FBFF00
7FFF80
FFFF80
7E0FC0
FC0F80
7C07C0
7C07C0
7C07C0
7C07C0
7C07C0
7C07C0
7C07C0
7C07C0
7C07C0
7C07C0
7C07C0
7C07C0
7C07C0
0007C0
0007C0
000F80
007F80
003F80
007F00
007F00
ENDCHAR
STARTCHAR Omacron
ENCODING 332
SWIDTH 600 0
DWIDTH 22 0
BBX 20 29 1 0
BITMAP
07FF00
07FF00
07FF00
000000
002000
03FE00
0FFF80
1FFFC0
1FFFC0
7FFFC0
3E07C0
7C03E0
FC03F0
7C03E0
7C03E0
7C03E0
7C03E0
7C03E0
7C03E0
7C03E0
FC03F0
7C07E0
3E03E0
3E07C0
3F0FC0
1FFFC0
1FFFC0
07FF00
01F800
ENDCHAR
STARTCHAR omacron
ENCODING 333
SWIDTH 600 0
DWIDTH 22 0
BBX 19 25 2 0
BITMAP
0FFE00
0FFE00
0FFE00
000000
000000
004000
0FFE00
1FFF00
1FFFC0
3FFFC0
7C0FC0
FC07C0
7C03E0
7C03E0
7C03E0
7C03E0
7C03E0
7C03E0
FC07C0
7C07E0
3E07C0
3FFF80
1FFF80
0FFE00
01F800
ENDCHAR
STARTCHAR Obreve
ENCODING 334
SWIDTH 600 0
DWIDTH 22 0
BBX 20 30 1 0
BITMAP
0E0700
0F0700
0FFE00
07FC00
000000
002000
03FE00
0FFF80
1FFFC0
1FFFC0
7FFFC0
3E07C0
7C03E0
FC03F0
7C03E0
7C03E0
7C03E0
7C03E0
7C03E0
7C03E0
7C03E0
FC03F0
7C07E0
3E03E0
3E07C0
3F0FC0
1FFFC0
1FFFC0
07FF00
01F800
ENDCHAR
STARTCHAR obreve
ENCODING 335
SWIDTH 600 0
DWIDTH 22 0
BBX 19 26 2 0
BITMAP
1C0700
0F0F00
0FFE00
07FC00
01F000
000000
004000
0FFE00
1FFF00
1FFFC0
3FFFC0
7C0FC0
FC07C0
7C03E0
7C03E0
7C03E0
7C03E0
7C03E0
7C03E0
FC07C0
7C07E0
3E07C0
3FFF80
1FFF80
0FFE00
01F800
ENDCHAR
STARTCHAR Ohungarumlaut
ENCODING 336
SWIDTH 600 0
DWIDTH 22 0
BBX 20 30 1 0
BITMAP
00F9F0
03E3E0
03C780
078E00
0E1C00
002000
03FE00
0FFF80
1FFFC0
1FFFC0
7FFFC0
3E07C0
7C03E0
FC03F0
7C03E0
7C03E0
7C03E0
7C03E0
7C03E0
7C03E0
7C03E0
FC03F0
7C07E0
3E03E0
3E07C0
3F0FC0
1FFFC0
1FFFC0
07FF00
01F800
ENDCHAR
STARTCHAR ohungarumlaut
ENCODING 337
SWIDTH 600 0
DWIDTH 22 0
BBX 20 26 2 0
BITMAP
00F9F0
01F3C0
03C780
078F00
0E0E00
000000
004000
0FFE00
1FFF00
1FFFC0
3FFFC0
7C0FC0
FC07C0
7C03E0
7C03E0
7C03E0
7C03E0
7C03E0
7C03E0
FC07C0
7C07E0
3E07C0
3FFF80
1FFF80
0FFE00
01F800
ENDCHAR
STARTCHAR OE
ENCODING 338
SWIDTH 600 0
DWIDTH 22 0
BBX 21 24 1 0
BITMAP
007FF0
0FFFF8
1FFFF8
3F9E00
7C1E00
7C1E00
7C1E00
7C1E00
F81E00
F81E00
F83FF0
F83FF0
F83FF0
F81E00
F81E00
7C1E00
7C1E00
7C1E00
7C1E00
3F1E00
3FFFF8
3FFFF8
0FFFF8
01FFF8
ENDCHAR
STARTCHAR oe
ENCODING 339
SWIDTH 600 0
DWIDTH 22 0
BBX 21 20 0 0
BITMAP
020100
1FCFE0
3FCFF0
3FFFF0
78F878
78F870
787838
F07878
F07FF8
F07FF8
F07FF8
F07800
F07800
78F800
78F820
787C78
7DFFF0
3FFFF0
1FCFE0
0F03E0
ENDCHAR
STARTCHAR Racute
ENCODING 340
SWIDTH 600 0
DWIDTH 22 0
BBX 20 30 2 0
BITMAP
007C00
00F800
01E000
03C000
000000
000000
FF8000
7FFF00
FFFF00
7FFFC0
7CFFC0
7C0FC0
7C07C0
7C07C0
7C07E0
7C0FC0
FFFF80
FFFF80
FFFE00
7FFC00
7CFC00
7C7E00
7C3F00
7C3F00
7C1F80
7C1F80
7C0FC0
7C07E0
7C07E0
7C03F0
ENDCHAR
STARTCHAR racute
ENCODING 341
SWIDTH 600 0
DWIDTH 22 0
BBX 16 26 3 0
BITMAP
007C
00F8
01F0
03C0
0700
0000
000F
F87F
7DFF
7DFF
7FFF
3F80
7F00
7E00
3E00
7C00
7C00
7C00
7C00
7C00
7C00
7C00
7C00
7C00
7C00
7C00
ENDCHAR
STARTCHAR Rcommaaccent
ENCODING 342
SWIDTH 600 0
DWIDTH 22 0
BBX 20 31 2 -7
BITMAP
FF8000
7FFF00
FFFF00
7FFFC0
7CFFC0
7C0FC0
7C07C0
7C07C0
7C07E0
7C0FC0
FFFF80
FFFF80
FFFE00
7FFC00
7CFC00
7C7E00
7C3F00
7C3F00
7C1F80
7C1F80
7C0FC0
7C07E0
7C07E0
7C03F0
000000
01F000
01F000
01E000
03C000
03C000
078000
ENDCHAR
STARTCHAR rcommaaccent
ENCODING 343
SWIDTH 600 0
DWIDTH 22 0
BBX 16 27 4 -7
BITMAP
000F
F8FE
F9FF
7FFE
7FFF
7F80
7F00
7E00
7C00
7C00
7C00
7C00
7C00
7C00
7C00
7C00
7C00
7C00
7C00
7C00
0000
7C00
F800
7800
F000
F000
E000
ENDCHAR
STARTCHAR Rcaron
ENCODING 344
SWIDTH 600 0
DWIDTH 22 0
BBX 20 30 2 0
BITMAP
3C1E00
0F7800
07F800
03F000
000000
000000
FF8000
7FFF00
FFFF00
7FFFC0
7CFFC0
7C0FC0
7C07C0
7C07C0
7C07E0
7C0FC0
FFFF80
FFFF80
FFFE00
7FFC00
7CFC00
7C7E00
7C3F00
7C3F00
7C1F80
7C1F80
7C0FC0
7C07E0
7C07E0
7C03F0
ENDCHAR
STARTCHAR rcaron
ENCODING 345
SWIDTH 600 0
DWIDTH 22 0
BBX 16 26 3 0
BITMAP
3C1E
3E78
0FF8
07F0
03E0
0000
000F
F87F
7DFF
7DFF
7FFF
3F80
7F00
7E00
3E00
7C00
7C00
7C00
7C00
7C00
7C00
7C00
7C00
7C00
7C00
7C00
ENDCHAR
STARTCHAR Sacute
ENCODING 346
SWIDTH 600 0
DWIDTH 22 0
BBX 19 30 2 0
BITMAP
001F80
003E00
007C00
00F000
000000
004000
07FE00
1FFF00
3FFFC0
7FFFC0
7E0FC0
7C07C0
7C0000
FC0000
7E0000
7FE000
1FFE00
1FFF00
07FFC0
007FC0
003FE0
0007E0
0803E0
F803E0
FC07E0
FC07E0
7FFFC0
3FFF80
1FFF80
03F800
ENDCHAR
STARTCHAR sacute
ENCODING 347
SWIDTH 600 0
DWIDTH 22 0
BBX 17 26 3 0
BITMAP
007C00
00F800
01F000
03C000
070000
000000
078000
1FFC00
3FFE00
7FFF00
7C3F00
F80E00
F80000
7F0000
7FF000
7FFC00
1FFC00
1FFF00
007F80
000F80
700F80
F80F80
F81F00
7FFF00
3FFC00
3FE000
ENDCHAR
STARTCHAR Scircumflex
ENCODING 348
SWIDTH 600 0
DWIDTH 22 0
BBX 19 30 2 0
BITMAP
01F800
03FC00
0FBC00
0F0F00
000000
004000
07FE00
1FFF00
3FFFC0
7FFFC0
7E0FC0
7C07C0
7C0000
FC0000
7E0000
7FE000
1FFE00
1FFF00
07FFC0
007FC0
003FE0
0007E0
0803E0
F803E0
FC07E0
FC07E0
7FFFC0
3FFF80
1FFF80
03F800
ENDCHAR
STARTCHAR scircumflex
ENCODING 349
SWIDTH 600 0
DWIDTH 22 0
BBX 17 26 3 0
BITMAP
07E000
0FF000
0FF800
1E3C00
3C0E00
000000
078000
1FFC00
3FFE00
7FFF00
7C3F00
F80E00
F80000
7F0000
7FF000
7FFC00
1FFC00
1FFF00
007F80
000F80
700F80
F80F80
F81F00
7FFF00
3FFC00
3FE000
ENDCHAR
STARTCHAR Scedilla
ENCODING 350
SWIDTH 600 0
DWIDTH 22 0
BBX 19 32 2 -7
BITMAP
004000
07FE00
1FFF00
3FFFC0
7FFFC0
7E0FC0
7C07C0
7C0000
FC0000
7E0000
7FE000
1FFE00
1FFF00
07FFC0
007FC0
003FE0
0007E0
0803E0
F803E0
FC07E0
FC07E0
7FFFC0
3FFF80
1FFF80
03F800
00E000
01C000
01F000
007800
003800
03F800
03F000
ENDCHAR
STARTCHAR scedilla
ENCODING 351
SWIDTH 600 0
DWIDTH 22 0
BBX 17 27 3 -7
BITMAP
078000
1FFC00
3FFE00
7FFF00
7C3F00
F80E00
F80000
7F0000
7FF000
7FFC00
1FFC00
1FFF00
007F80
000F80
700F80
F80F80
F81F00
7FFF00
3FFC00
3FE000
038000
038000
03F000
00F000
00F000
07F000
07E000
ENDCHAR
STARTCHAR Scaron
ENCODING 352
SWIDTH 600 0
DWIDTH 22 0
BBX 19 30 2 0
BITMAP
1E0F00
079E00
03FC00
01F800
000000
004000
07FE00
1FFF00
3FFFC0
7FFFC0
7E0FC0
7C07C0
7C0000
FC0000
7E0000
7FE000
1FFE00
1FFF00
07FFC0
007FC0
003FE0
0007E0
0803E0
F803E0
FC07E0
FC07E0
7FFFC0
3FFF80
1FFF80
03F800
ENDCHAR
STARTCHAR scaron
ENCODING 353
SWIDTH 600 0
DWIDTH 22 0
BBX 17 26 3 0
BITMAP
3C1E00
1F3C00
0FF800
07F000
03E000
000000
078000
1FFC00
3FFE00
7FFF00
7C3F00
F80E00
F80000
7F0000
7FF000
7FFC00
1FFC00
1FFF00
007F80
000F80
700F80
F80F80
F81F00
7FFF00
3FFC00
3FE000
ENDCHAR
STARTCHAR Tcommaaccent
ENCODING 354
SWIDTH 600 0
DWIDTH 22 0
BBX 19 31 2 -7
BITMAP
FFFFE0
FFFFE0
FFFFE0
FFFFE0
01F000
01F000
01F000
01F000
01F000
01F000
01F000
01F000
01F000
01F000
01F000
01F000
01F000
01F000
01F000
01F000
01F000
01F000
01F000
01F000
000000
01F000
03E000
03C000
03C000
03C000
038000
ENDCHAR
STARTCHAR tcommaaccent
ENCODING 355
SWIDTH 600 0
DWIDTH 22 0
BBX 16 31 3 -7
BITMAP
0780
0F00
0F00
0F80
1F00
FFFE
FFFE
FFFE
1F00
1F00
1F00
1F00
1F00
1F00
1F00
1F00
1F00
1F00
1F00
0F80
0FFF
0FFF
07FF
01FF
0000
01F0
03E0
03C0
03C0
03C0
0380
ENDCHAR
STARTCHAR Tcaron
ENCODING 356
SWIDTH 600 0
DWIDTH 22 0
BBX 19 30 2 0
BITMAP
1E1E00
0F3C00
07F800
03F000
000000
000000
FFFFE0
FFFFE0
FFFFE0
FFFFE0
01F000
01F000
01F000
01F000
01F000
01F000
01F000
01F000
01F000
01F000
01F000
01F000
01F000
01F000
01F000
01F000
01F000
01F000
01F000
01F000
ENDCHAR
STARTCHAR tcaron
ENCODING 357
SWIDTH 600 0
DWIDTH 22 0
BBX 21 27 1 0
BITMAP
0000F8
0000F8
0000F0
0780F0
0F01E0
0F01C0
0F81C0
1F0000
FFFE00
FFFE00
FFFE00
1F0000
1F0000
1F0000
1F0000
1F0000
1F0000
1F0000
1F0000
1F0000
1F0000
1F0000
0F8000
0FFF00
0FFF00
07FF00
01FF00
ENDCHAR
STARTCHAR Tbar
ENCODING 358
SWIDTH 600 0
DWIDTH 22 0
BBX 19 24 2 0
BITMAP
FFFFE0
FFFFE0
FFFFE0
FFFFE0
01F000
01F000
01F000
01F000
01F000
01F000
1FFF00
1FFF00
1FFF00
01F000
01F000
01F000
01F000
01F000
01F000
01F000
01F000
01F000
01F000
01F000
ENDCHAR
STARTCHAR tbar
ENCODING 359
SWIDTH 600 0
DWIDTH 22 0
BBX 16 24 3 0
BITMAP
0780
0F00
0F00
0F80
1F00
FFFE
FFFE
FFFE
1F00
1F00
1F00
1F00
FFFE
FFFE
FFFE
1F00
1F00
1F00
1F00
0F80
0FFF
0FFF
07FF
01FF
ENDCHAR
STARTCHAR Utilde
ENCODING 360
SWIDTH 600 0
DWIDTH 22 0
BBX 17 30 3 0
BITMAP
060600
3F8E00
7FFC00
73FC00
607800
000000
F81F00
F81F00
F81F00
F81F00
F81F00
F81F00
F81F00
F81F00
F81F00
F81F00
F81F00
F81F00
F81F00
F81F00
F81F00
F81F00
F81F00
F81F80
FC1F00
F87E00
FFFE00
7FFC00
7FF800
07E000
ENDCHAR
STARTCHAR utilde
ENCODING 361
SWIDTH 600 0
DWIDTH 22 0
BBX 17 26 2 0
BITMAP
030300
1FC700
3FFE00
39FE00
303C00
000000
000000
F80F80
F80F80
F80F80
F80F80
F80F80
F80F80
F80F80
F80F80
F80F80
F80F80
F80F80
F80F80
7C0F80
FC1F80
7E1F80
7FFF80
7FEF80
3FCF80
0F0F80
ENDCHAR
STARTCHAR Umacron
ENCODING 362
SWIDTH 600 0
DWIDTH 22 0
BBX 17 29 3 0
BITMAP
1FFC00
1FFC00
1FFC00
000000
000000
F81F00
F81F00
F81F00
F81F00
F81F00
F81F00
F81F00
F81F00
F81F00
F81F00
F81F00
F81F00
F81F00
F81F00
F81F00
F81F00
F81F00
F81F80
FC1F00
F87E00
FFFE00
7FFC00
7FF800
07E000
ENDCHAR
STARTCHAR umacron
ENCODING 363
SWIDTH 600 0
DWIDTH 22 0
BBX 17 25 2 0
BITMAP
1FFC00
1FFC00
1FFC00
000000
000000
000000
F80F80
F80F80
F80F80
F80F80
F80F80
F80F80
F80F80
F80F80
F80F80
F80F80
F80F80
F80F80
7C0F80
FC1F80
7E1F80
7FFF80
7FEF80
3FCF80
0F0F80
ENDCHAR
STARTCHAR Ubreve
ENCODING 364
SWIDTH 600 0
DWIDTH 22 0
BBX 17 30 3 0
BITMAP
381C00
3C1C00
3FF800
1FF000
000000
000000
F81F00
F81F00
F81F00
F81F00
F81F00
F81F00
F81F00
F81F00
F81F00
F81F00
F81F00
F81F00
F81F00
F81F00
F81F00
F81F00
F81F00
F81F80
FC1F00
F87E00
FFFE00
7FFC00
7FF800
07E000
ENDCHAR
STARTCHAR ubreve
ENCODING 365
SWIDTH 600 0
DWIDTH 22 0
BBX 17 26 2 0
BITMAP
1C0E00
1E1E00
1FFC00
0FF800
03E000
000000
000000
F80F80
F80F80
F80F80
F80F80
F80F80
F80F80
F80F80
F80F80
F80F80
F80F80
F80F80
F80F80
7C0F80
FC1F80
7E1F80
7FFF80
7FEF80
3FCF80
0F0F80
ENDCHAR
STARTCHAR Uring
ENCODING 366
SWIDTH 600 0
DWIDTH 22 0
BBX 17 30 3 0
BITMAP
008000
07F000
0E7000
1C3800
0FF000
0FE000
FFFF00
F81F00
F81F00
F81F00
F81F00
F81F00
F81F00
F81F00
F81F00
F81F00
F81F00
F81F00
F81F00
F81F00
F81F00
F81F00
F81F00
F81F80
FC1F00
F87E00
FFFE00
7FFC00
7FF800
07E000
ENDCHAR
STARTCHAR uring
ENCODING 367
SWIDTH 600 0
DWIDTH 22 0
BBX 17 28 2 0
BITMAP
008000
03F000
07F800
073800
0E3800
07F800
03F000
000000
000000
F80F80
F80F80
F80F80
F80F80
F80F80
F80F80
F80F80
F80F80
F80F80
F80F80
F80F80
F80F80
7C0F80
FC1F80
7E1F80
7FFF80
7FEF80
3FCF80
0F0F80
ENDCHAR
STARTCHAR Uhungarumlaut
ENCODING 368
SWIDTH 600 0
DWIDTH 22 0
BBX 17 30 3 0
BITMAP
07CF80
0F1E00
1E3C00
383800
387000
000000
F81F00
F81F00
F81F00
F81F00
F81F00
F81F00
F81F00
F81F00
F81F00
F81F00
F81F00
F81F00
F81F00
F81F00
F81F00
F81F00
F81F00
F81F80
FC1F00
F87E00
FFFE00
7FFC00
7FF800
07E000
ENDCHAR
STARTCHAR uhungarumlaut
ENCODING 369
SWIDTH 600 0
DWIDTH 22 0
BBX 18 26 2 0
BITMAP
03E7C0
078780
0F1E00
1E3C00
1C3800
000000
000000
F80F80
F80F80
F80F80
F80F80
F80F80
F80F80
F80F80
F80F80
F80F80
F80F80
F80F80
F80F80
7C0F80
FC1F80
7E1F80
7FFF80
7FEF80
3FCF80
0F0F80
ENDCHAR
STARTCHAR Uogonek
ENCODING 370
SWIDTH 600 0
DWIDTH 22 0
BBX 17 31 3 -7
BITMAP
F81F00
F81F00
F81F00
F81F00
F81F00
F81F00
F81F00
F81F00
F81F00
F81F00
F81F00
F81F00
F81F00
F81F00
F81F00
F81F00
F81F00
F81F80
FC1F00
F87E00
FFFE00
7FFC00
7FF800
0FE000
01C000
038000
038000
038000
03F800
03F000
01F800
ENDCHAR
STARTCHAR uogonek
ENCODING 371
SWIDTH 600 0
DWIDTH 22 0
BBX 18 26 2 -7
BITMAP
F80F80
F80F80
F80F80
F80F80
F80F80
F80F80
F80F80
F80F80
F80F80
F80F80
F80F80
F80F80
7C0F80
FC1F80
7E1F80
7FFF80
7FEF80
3FCF80
0F0F80
000E00
001C00
001C00
001C00
001FC0
001F80
000FC0
ENDCHAR
STARTCHAR Wcircumflex
ENCODING 372
SWIDTH 600 0
DWIDTH 22 0
BBX 22 30 0 0
BITMAP
00FC00
01FE00
01EF80
078780
000000
000000
F8007C
7C003C
7C0078
780078
78007C
3C00F8
3C7878
7C7878
7C7C78
3C7CF0
3CFCF0
3CFCF0
1EFEF0
1FFEF0
1EFEF0
1FCEF0
1FEEF0
1FCFE0
0FCFE0
0FC7E0
0FC7E0
1F83E0
0F83E0
0F03E0
ENDCHAR
STARTCHAR wcircumflex
ENCODING 373
SWIDTH 600 0
DWIDTH 22 0
BBX 21 26 1 0
BITMAP
00F800
01FC00
07DE00
0F0F00
0E0700
000000
000000
F00078
F000F0
F000F0
F000F0
F0F0F0
F0F8F0
78F8F0
78F9E0
79F9E0
79F9E0
7B9DE0
7BBDE0
7B9DE0
3F8FC0
3F1FC0
3F0FC0
3E07C0
3E07C0
1E0780
ENDCHAR
STARTCHAR Ycircumflex
ENCODING 374
SWIDTH 600 0
DWIDTH 22 0
BBX 20 30 1 0
BITMAP
01F800
03FC00
079F00
0F0F00
000000
000000
FC01F0
7C01F0
7C03E0
3E03E0
3E07C0
1F07C0
1F1F80
0F9F00
07DF00
07FE00
03FE00
03FC00
01FC00
00F800
00F800
00F800
00F800
00F800
00F800
00F800
00F800
00F800
00F800
00F800
ENDCHAR
STARTCHAR ycircumflex
ENCODING 375
SWIDTH 600 0
DWIDTH 22 0
BBX 20 33 1 -7
BITMAP
00F800
01FC00
03FF00
078F00
0E0780
000000
000000
FC01F0
7C01F0
3E01F0
3E03E0
1F03E0
1F07C0
1F07C0
0F87C0
0F8F80
0F8F80
07CF80
03CF00
03FE00
03DE00
01FE00
01FC00
01FC00
00FC00
00F800
00F800
01F000
01F000
3FE000
1FE000
1FC000
1FC000
ENDCHAR
STARTCHAR Ydieresis
ENCODING 376
SWIDTH 600 0
DWIDTH 22 0
BBX 20 30 1 0
BITMAP
0F0F00
0F0F00
0F0F00
0F0F00
000000
000000
FC01F0
7C01F0
7C03E0
3E03E0
3E07C0
1F07C0
1F1F80
0F9F00
07DF00
07FE00
03FE00
03FC00
01FC00
00F800
00F800
00F800
00F800
00F800
00F800
00F800
00F800
00F800
00F800
00F800
ENDCHAR
STARTCHAR Zacute
ENCODING 377
SWIDTH 600 0
DWIDTH 22 0
BBX 18 30 3 0
BITMAP
003E00
007C00
01F000
01E000
000000
000000
7FFFC0
7FFFC0
7FFFC0
FFFF80
001F80
003F00
007E00
00FC00
00FC00
01F800
03F000
07E000
07E000
0FC000
1F8000
1F8000
3F0000
7E0000
FC0000
FFFFC0
FFFFC0
FFFFC0
FFFFC0
FFFFC0
ENDCHAR
STARTCHAR zacute
ENCODING 378
SWIDTH 600 0
DWIDTH 22 0
BBX 16 26 3 0
BITMAP
007C
00F8
01F0
03C0
0700
0000
0000
FFFE
FFFE
FFFE
007E
00FC
01F8
03F0
03F0
07E0
0FC0
1F80
3F00
7E00
7E00
FC00
FFFF
FFFF
FFFF
FFFF
ENDCHAR
STARTCHAR Zdotaccent
ENCODING 379
SWIDTH 600 0
DWIDTH 22 0
BBX 18 29 3 0
BITMAP
03E000
03E000
03E000
03E000
000000
7FFFC0
7FFFC0
7FFFC0
FFFF80
001F80
003F00
007E00
00FC00
00FC00
01F800
03F000
07E000
07E000
0FC000
1F8000
1F8000
3F0000
7E0000
FC0000
FFFFC0
FFFFC0
FFFFC0
FFFFC0
FFFFC0
ENDCHAR
STARTCHAR zdotaccent
ENCODING 380
SWIDTH 600 0
DWIDTH 22 0
BBX 16 26 3 0
BITMAP
07C0
07C0
07C0
0000
0000
0000
0000
FFFE
FFFE
FFFE
007E
00FC
01F8
03F0
03F0
07E0
0FC0
1F80
3F00
7E00
7E00
FC00
FFFF
FFFF
FFFF
FFFF
ENDCHAR
STARTCHAR Zcaron
ENCODING 381
SWIDTH 600 0
DWIDTH 22 0
BBX 18 30 3 0
BITMAP
1E1E00
0FBC00
07F800
03F000
000000
000000
7FFFC0
7FFFC0
7FFFC0
FFFF80
001F80
003F00
007E00
00FC00
00FC00
01F800
03F000
07E000
07E000
0FC000
1F8000
1F8000
3F0000
7E0000
FC0000
FFFFC0
FFFFC0
FFFFC0
FFFFC0
FFFFC0
ENDCHAR
STARTCHAR zcaron
ENCODING 382
SWIDTH 600 0
DWIDTH 22 0
BBX 16 26 3 0
BITMAP
783C
1E78
1FF0
0FE0
07C0
0000
0000
FFFE
FFFE
FFFE
007E
00FC
01F8
03F0
03F0
07E0
0FC0
1F80
3F00
7E00
7E00
FC00
FFFF
FFFF
FFFF
FFFF
ENDCHAR
STARTCHAR longs
ENCODING 383
SWIDTH 600 0
DWIDTH 22 0
BBX 14 27 7 0
BITMAP
00FC
1FFC
3FFC
7FFC
FC00
7C00
F800
F800
F800
F800
F800
F800
F800
F800
F800
F800
F800
F800
F800
F800
F800
F800
F800
F800
F800
F800
F800
ENDCHAR
STARTCHAR uni0180
ENCODING 384
SWIDTH 600 0
DWIDTH 22 0
BBX 21 27 0 0
BITMAP
1F0000
1F0000
1F0000
FFF800
FFF800
FFF800
1F0000
1F0000
1F0400
1F7FC0
1FFFC0
1FFFE0
1F83F0
1F83F0
1F01F0
1F03F0
1F03F0
1F01F8
1F03F0
1F01F0
1F01F0
1F83E0
1F83E0
1FFFE0
1FFFC0
1F7F80
1F3F00
ENDCHAR
STARTCHAR uni0181
ENCODING 385
SWIDTH 600 0
DWIDTH 22 0
BBX 21 24 0 0
BITMAP
03F000
3FFFC0
7FFFE0
FFFFE0
FFEFF0
F7E3E0
F7E1F0
7FE3E0
07E3E0
03FFE0
03FF80
03FE00
07FFE0
07EFE0
07E1F8
07E0F8
07E1F8
07E1F8
07E1F8
07E3F8
07FFF0
07FFE0
03FFE0
03F800
ENDCHAR
STARTCHAR uni0182
ENCODING 386
SWIDTH 600 0
DWIDTH 22 0
BBX 19 24 2 0
BITMAP
7FFF80
7FFF80
7FFF80
7FFF80
7C0000
7C0000
7C0000
7C0000
7C0000
7FC000
FFFF00
FFFF00
7FFFC0
7C0FE0
7C07E0
7C07C0
7C07C0
7C07E0
7C0FC0
7C3F80
FFFF80
7FFF00
FFFC00
FF8000
ENDCHAR
STARTCHAR uni0183
ENCODING 387
SWIDTH 600 0
DWIDTH 22 0
BBX 18 27 2 0
BITMAP
FFFE00
FFFE00
FFFE00
FFFE00
7C0000
7C0000
7C0000
7C1000
7DFE00
7FFF00
7FFF00
FFFF80
7E0FC0
7C0F80
7C07C0
7C07C0
7C07C0
7C07C0
7C07C0
7C07C0
7C0F80
7E0F80
FE0F80
7FFF80
7FFF00
F9FE00
F9F800
ENDCHAR
STARTCHAR uni0184
ENCODING 388
SWIDTH 600 0
DWIDTH 22 0
BBX 21 24 0 0
BITMAP
070000
0F0000
3F0000
7F0000
FF0000
7F0000
3F0000
3F0000
3F0000
1FF800
1FFFE0
1FFFE0
3FFFF0
3F03F0
3F01F0
3F00F8
3F00F8
3F00F8
3F01F8
3F07F0
1FFFF0
1FFFE0
1FFF80
1FF000
ENDCHAR
STARTCHAR uni0185
ENCODING 389
SWIDTH 600 0
DWIDTH 22 0
BBX 20 27 1 0
BITMAP
020000
0E0000
3E0000
7E0000
FE0000
FE0000
7E0000
3E0800
3E7F00
3FFF80
3FFFC0
3FFFC0
3F07E0
3E03E0
3E03F0
3E03E0
3E03E0
3E03E0
3E03E0
3E03F0
3E03E0
3F03E0
3F07C0
3FFFC0
3FFF80
3EFF00
3E7C00
ENDCHAR
STARTCHAR uni0186
ENCODING 390
SWIDTH 600 0
DWIDTH 22 0
BBX 20 25 1 0
BITMAP
004000
07FC00
0FFF00
1FFFC0
3FFFC0
3FFFE0
7E07E0
7C07E0
0003F0
0003E0
0003E0
0003E0
0001F0
0001F0
0003E0
0003E0
0003F0
F807E0
FC07E0
7E07C0
7F1FC0
3FFF80
1FFF80
1FFE00
01F800
ENDCHAR
STARTCHAR uni0187
ENCODING 391
SWIDTH 600 0
DWIDTH 22 0
BBX 21 29 1 0
BITMAP
000030
0001F8
0003F8
0003F8
01E3E0
07FFC0
0FFFE0
1FFFE0
3FFFC0
7FCFC0
7E07E0
7E0780
FC0000
7C0000
7C0000
7C0000
7C0000
7C0000
7C0000
7C0000
FC0000
7C03E0
3E07C0
3E07C0
3F8FC0
1FFF80
1FFF00
07FF00
01F800
ENDCHAR
STARTCHAR uni0188
ENCODING 392
SWIDTH 600 0
DWIDTH 22 0
BBX 20 24 3 0
BITMAP
000080
0007F0
000FF0
001FE0
07DF00
1FFF00
3FFF00
3FFF00
7F3F00
F81F00
F81F00
F80000
F80000
F80000
F80000
F80000
F80000
F81F00
F81F00
F83E00
7FFE00
7FFC00
1FFC00
07E000
ENDCHAR
STARTCHAR uni0189
ENCODING 393
SWIDTH 600 0
DWIDTH 22 0
BBX 20 24 1 0
BITMAP
3F8000
3FFF00
3FFF80
3FFF80
7EFFC0
7E07E0
7E07E0
7E03F0
7E03E0
7E03E0
FFE3E0
FFE1F0
FFE3E0
FFE3E0
7E03E0
7E03F0
7E03E0
7E07E0
7E0FC0
7E7FC0
3FFF80
3FFF00
3FFE00
3FC000
ENDCHAR
STARTCHAR uni018A
ENCODING 394
SWIDTH 600 0
DWIDTH 22 0
BBX 22 24 0 0
BITMAP
03F000
3FFFC0
7FFFE0
7FFFE0
FFFFF0
F7E1F8
F7E1F8
7FE0FC
07E0F8
07E0F8
07E0F8
07E0F8
07E0F8
07E0F8
07E0F8
07E0FC
07E0F8
07E1F0
07E3F0
07EFF0
07FFE0
03FFE0
03FF80
03F800
ENDCHAR
STARTCHAR uni018B
ENCODING 395
SWIDTH 600 0
DWIDTH 22 0
BBX 19 24 1 0
BITMAP
0FFFC0
0FFFC0
0FFFC0
0FFFC0
0007C0
0007C0
0007C0
0007C0
0007C0
007FC0
1FFFE0
1FFFE0
7FFFC0
7E07C0
FC07C0
7C07C0
7C07C0
7C07C0
7E07C0
3F87C0
3FFFC0
1FFFE0
07FFE0
003FE0
ENDCHAR
STARTCHAR uni018C
ENCODING 396
SWIDTH 600 0
DWIDTH 22 0
BBX 18 27 2 0
BITMAP
07FFC0
07FFC0
07FFC0
07FFC0
0007C0
0007C0
0007C0
0707C0
0FE7C0
3FF7C0
1FFFC0
3FFFC0
7C0FC0
FC07C0
7C07C0
7C07C0
7C07C0
7C07C0
7C07C0
7C07C0
FC07C0
7C0FC0
7C0FC0
3FFFC0
3FF7C0
1FE7C0
07C7C0
ENDCHAR
STARTCHAR uni018D
ENCODING 397
SWIDTH 600 0
DWIDTH 22 0
BBX 19 27 2 -7
BITMAP
004000
0FFE00
3FFF00
7FFF00
FFFF80
7C07C0
FC07C0
F807C0
F807C0
F803E0
F803E0
F807C0
F807C0
FC0FC0
7C07C0
7C1F80
3FFF80
3FFE00
0FFC00
07E000
01F800
01FC00
007E00
7FFF80
7FFF80
7FFF80
7FFF80
ENDCHAR
STARTCHAR uni018E
ENCODING 398
SWIDTH 600 0
DWIDTH 22 0
BBX 18 24 1 0
BITMAP
FFFFC0
FFFFC0
FFFFC0
FFFFC0
0007C0
0007C0
0007C0
0007C0
0007C0
0007C0
3FFFC0
3FFFC0
3FFFC0
3FFFC0
0007C0
0007C0
0007C0
0007C0
0007C0
0007C0
7FFFC0
7FFFC0
7FFFC0
7FFFC0
ENDCHAR
STARTCHAR uni018F
ENCODING 399
SWIDTH 600 0
DWIDTH 22 0
BBX 20 25 1 0
BITMAP
004000
07FC00
07FF00
1FFF80
3FFF80
3F7FC0
3E07E0
0E03E0
0007E0
0003E0
0003E0
7FFFF0
7FFFF0
7FFFF0
7FFFF0
7C03E0
FC03F0
7E07E0
7C03E0
7E07E0
3F8FC0
1FFFC0
1FFFC0
07FF00
01F800
ENDCHAR
STARTCHAR uni0190
ENCODING 400
SWIDTH 600 0
DWIDTH 22 0
BBX 20 24 1 0
BITMAP
004000
0FFF00
3FFF80
3FFFC0
7E07E0
7C03E0
7C03C0
7C0000
3E0000
3FF000
0FF000
03F000
1FF000
3FE000
7E0000
7C0000
7C01C0
7C03F0
FC07E0
7E07E0
7FFFC0
3FFF80
1FFF80
03F800
ENDCHAR
STARTCHAR uni0191
ENCODING 401
SWIDTH 600 0
DWIDTH 22 0
BBX 20 31 0 -7
BITMAP
0FFFF0
0FFFF0
0FFFF0
0FFFF0
0F8000
0F8000
0F8000
0F8000
0F8000
0F8000
0F8000
1FFFE0
1FFFE0
1FFFE0
1FFFE0
0F8000
0F8000
0F8000
0F8000
0F8000
0F8000
0F8000
0F8000
0F8000
0F8000
1F0000
1F0000
FF0000
7F0000
FE0000
7C0000
ENDCHAR
STARTCHAR florin
ENCODING 402
SWIDTH 600 0
DWIDTH 22 0
BBX 16 32 4 -7
BITMAP
0070
01FF
01FF
07FE
07E0
07C0
0F80
0F80
FFFC
FFFC
FFFC
1F00
1F00
1F00
1F00
1F00
3E00
3E00
3E00
3E00
3E00
3E00
7C00
7C00
7C00
7C00
7C00
F800
F800
F800
F800
F800
ENDCHAR
STARTCHAR uni0193
ENCODING 403
SWIDTH 600 0
DWIDTH 22 0
BBX 21 29 1 0
BITMAP
000030
0001F8
0003F8
0003F8
01E3E0
07FFC0
0FFFE0
1FFFE0
3FFFC0
3FFFE0
3E07C0
7C0700
FC0000
7C0000
7C0000
7C7FE0
7C7FE0
7C7FE0
7C7FE0
7C03E0
FC03E0
7C03E0
3E03E0
3E03E0
3F87E0
1FFFE0
1FFF80
07FE00
01F800
ENDCHAR
STARTCHAR uni0194
ENCODING 404
SWIDTH 600 0
DWIDTH 22 0
BBX 22 31 0 -7
BITMAP
FC007C
7C00FC
3E00F8
3E01F0
1F01F0
3F01F0
1F03E0
0F83E0
0F87C0
07C7C0
07C7C0
07CF80
03EF80
03FF00
01FF00
01FE00
00FE00
00FC00
00FC00
007C00
00FE00
01FE00
01FF00
03CF00
03CF00
07C780
03C780
03FF80
03FF00
01FF00
01FE00
ENDCHAR
STARTCHAR uni0195
ENCODING 405
SWIDTH 600 0
DWIDTH 22 0
BBX 19 27 1 0
BITMAP
780000
780000
780000
780000
780000
780000
780000
788000
F3E1E0
F7E1E0
F7F1E0
7EF1E0
78F1E0
78F1E0
78F1E0
78F1E0
78F1E0
78F1E0
78F1E0
78F1E0
78F1E0
78F1E0
78F1E0
787FE0
787FC0
787FC0
780F00
ENDCHAR
STARTCHAR uni0196
ENCODING 406
SWIDTH 600 0
DWIDTH 22 0
BBX 16 24 4 0
BITMAP
FFFF
FFFF
FFFF
FFFF
07E0
07E0
07E0
07E0
07E0
07E0
07E0
07E0
07E0
07E0
07E0
07E0
07E0
07E0
07E0
07E0
FFFF
FFFF
FFFF
FFFF
ENDCHAR
STARTCHAR uni0197
ENCODING 407
SWIDTH 600 0
DWIDTH 22 0
BBX 16 24 4 0
BITMAP
FFFF
FFFF
FFFF
FFFF
07C0
07C0
07C0
07C0
07C0
07C0
7FFE
7FFE
7FFE
7FFE
07C0
07C0
07C0
07C0
07C0
07C0
FFFF
FFFF
FFFF
FFFF
ENDCHAR
STARTCHAR uni0198
ENCODING 408
SWIDTH 600 0
DWIDTH 22 0
BBX 20 25 2 0
BITMAP
0E0000
3F87E0
7F8FC0
7F9F80
FF9F80
FC3F00
7C7E00
7CFC00
7DF800
7DF000
7FE000
7FF000
FFF000
7FF800
FFF800
FEFC00
FC7E00
7C7E00
7C3F00
7C1F80
7C1F80
7C0FC0
7C0FC0
7C07F0
7C03F0
ENDCHAR
STARTCHAR uni0199
ENCODING 409
SWIDTH 600 0
DWIDTH 22 0
BBX 18 27 3 0
BITMAP
0E0000
3F8000
3F8000
7FC000
7F0000
7C0000
F80000
F80000
F81F00
F81F00
F83E00
F87C00
F9F800
F9F000
FBE000
FFE000
7FF000
FFF000
7FF800
F87C00
F87C00
F83E00
F83E00
F83F00
F80F80
F80F80
F807C0
ENDCHAR
STARTCHAR uni019A
ENCODING 410
SWIDTH 600 0
DWIDTH 22 0
BBX 18 27 3 0
BITMAP
7FE000
7FE000
7FE000
7FE000
03E000
03E000
03E000
03E000
03E000
03E000
03E000
03E000
3FFE00
3FFE00
3FFE00
03E000
03E000
03E000
03E000
03E000
03E000
03E000
03E000
FFFFC0
FFFFC0
FFFFC0
FFFFC0
ENDCHAR
STARTCHAR uni019B
ENCODING 411
SWIDTH 600 0
DWIDTH 22 0
BBX 20 27 1 0
BITMAP
07C000
07CC00
07FC00
03FE00
0FF800
1FF000
7FF000
3EF800
31F800
01FC00
01FC00
03FC00
03FE00
03DE00
079F00
0F9F00
0F9F00
0F8F80
1F0F80
1F0F80
1F07C0
3E07C0
3E07C0
3E03E0
7C03E0
FC01F0
7C01F0
ENDCHAR
STARTCHAR uni019C
ENCODING 412
SWIDTH 600 0
DWIDTH 22 0
BBX 19 24 2 0
BITMAP
F1E3C0
F1E3C0
F1E3C0
F1E3C0
F1E3C0
F1E3C0
F1E3C0
F1E3C0
F1E3C0
F1E3C0
F1E3C0
F1E3C0
F1E3C0
F1E3C0
F1E3C0
F1E3C0
F1E3C0
F3E3C0
F3E3E0
F3E3E0
F3E7E0
FEFFE0
FCF9E0
3CF9E0
ENDCHAR
STARTCHAR uni019D
ENCODING 413
SWIDTH 600 0
DWIDTH 22 0
BBX 21 31 -1 -7
BITMAP
0FC0F8
1FC0F8
0FE0F8
0FE0F8
0FF0F8
0FF0F8
0FF8F8
0FF0F8
0F78F8
1F78F8
1F3CF8
1F7CF8
1F3CF8
1F1EF0
1F1EF0
1F1EF0
1F0FF0
1F0FF0
1F07F8
1F07F8
1F07F0
1F03F8
1F03F0
1F03F0
1F0000
1F0000
1F0000
7F0000
7F0000
FE0000
FE0000
ENDCHAR
STARTCHAR uni019E
ENCODING 414
SWIDTH 600 0
DWIDTH 22 0
BBX 18 27 2 -7
BITMAP
001000
F8FF00
FBFF00
7FFF80
FFFF80
7E0FC0
FC0F80
7C07C0
7C07C0
7C07C0
7C07C0
7C07C0
7C07C0
7C07C0
7C07C0
7C07C0
7C07C0
7C07C0
7C07C0
7C07C0
0007C0
0007C0
0007C0
0007C0
0007C0
0007C0
0007C0
ENDCHAR
STARTCHAR uni019F
ENCODING 415
SWIDTH 600 0
DWIDTH 22 0
BBX 20 25 1 0
BITMAP
002000
03FE00
0FFF80
1FFFC0
1FFFC0
7FFFC0
3E07C0
7C03E0
FC03F0
7C03E0
7FFFF0
7FFFF0
7FFFF0
7FFFF0
7C03E0
7C03E0
FC03F0
7C07E0
7C03E0
7E07E0
3F0FC0
1FFFC0
1FFFC0
07FF00
01F800
ENDCHAR
STARTCHAR Ohorn
ENCODING 416
SWIDTH 600 0
DWIDTH 22 0
BBX 22 25 1 0
BITMAP
00403C
0FFC3C
1FFE3C
1FFFBC
3FFF8C
3FFFD8
7C07D8
7E0FF8
FC07F0
7C07E0
7C03E0
7C03E0
7C03E0
7C03E0
7C03E0
7C03E0
FC07C0
7E07C0
7C0FC0
3E07C0
3F1F80
1FFF80
1FFF00
07FE00
01F800
ENDCHAR
STARTCHAR ohorn
ENCODING 417
SWIDTH 600 0
DWIDTH 22 0
BBX 20 20 3 0
BITMAP
008000
1FF8F0
3FFEF0
7FFEF0
7FFFF0
F83F30
F81F30
F80FB0
F80FE0
F81FE0
F80FC0
F80F80
F80F80
F81F00
F81F80
7C1F00
7FFE00
3FFE00
1FFC00
07E000
ENDCHAR
STARTCHAR uni01A2
ENCODING 418
SWIDTH 600 0
DWIDTH 22 0
BBX 20 31 1 -7
BITMAP
0383F0
0FFFF0
1FFFF0
1FFFF0
7C3CF0
3C3CF0
783CF0
F83CF0
783CF0
783CF0
783CF0
783CF0
783CF0
783CF0
783CF0
F83CF0
7C3CF0
783CF0
3C3CF0
3E3CF0
1FFCF0
1FFCF0
07FCF0
03E0F0
0000F0
0000F0
0000F0
0000F0
0000F0
0000F0
0000F0
ENDCHAR
STARTCHAR uni01A3
ENCODING 419
SWIDTH 600 0
DWIDTH 22 0
BBX 21 27 1 -7
BITMAP
03C030
0FFFF8
3FFFF0
3FFFF0
7C3CF0
7C3CF0
F83CF0
783CF0
783CF0
783CF0
783CF0
783CF0
783CF0
F83CF0
783CF0
3C3CF0
3F3CF0
3FFCF0
0FFEF0
03F0F0
0000F0
0000F0
0000F0
0000F0
0000F0
0000F0
0000F0
ENDCHAR
STARTCHAR uni01A4
ENCODING 420
SWIDTH 600 0
DWIDTH 22 0
BBX 22 24 0 0
BITMAP
03F000
3FFFE0
7FFFE0
FFFFF0
FBEFF8
F3E1F8
F3E1F8
7BE0FC
03E1F8
03E0F8
03E1F8
03FFF8
03FFF0
03FFE0
03FF80
03E000
03E000
03E000
03E000
03E000
03E000
03E000
03E000
03E000
ENDCHAR
STARTCHAR uni01A5
ENCODING 421
SWIDTH 600 0
DWIDTH 22 0
BBX 18 34 3 -7
BITMAP
0F0000
3F8000
3FC000
7FC000
7F0000
7C0000
F80000
F81000
F8FE00
FBFF00
FBFF00
FE7F80
FC1F80
7C0F80
7C07C0
F807C0
F807C0
F807C0
F807C0
7C07C0
7C0F80
7C0FC0
7E0F80
FE7F00
FFFF00
F9FE00
F9F800
F80000
F80000
F80000
F80000
F80000
F80000
F80000
ENDCHAR
STARTCHAR uni01A6
ENCODING 422
SWIDTH 600 0
DWIDTH 22 0
BBX 19 29 2 -5
BITMAP
7C0000
7C0000
7C0000
FF8000
7FFF00
FFFF00
7FFFC0
7CFFC0
7C0FC0
7C07C0
7C07C0
7C07E0
7C0FC0
FFFF80
7FFF80
FFFE00
7FF800
7CF800
7CFC00
7C7C00
7C7E00
7C3E00
7C3F00
7C1F00
001F80
000F80
000FC0
0007E0
0007E0
ENDCHAR
STARTCHAR uni01A7
ENCODING 423
SWIDTH 600 0
DWIDTH 22 0
BBX 20 25 2 0
BITMAP
004000
0FFE00
1FFF00
3FFF80
7FFF80
FC0FC0
F807C0
0007C0
0007C0
000FC0
00FFC0
0FFF00
3FFF00
7FFC00
7FC000
FF8000
FC0000
F80200
F803F0
F807E0
FC0FC0
7FFFC0
3FFF80
3FFF00
03F800
ENDCHAR
STARTCHAR uni01A8
ENCODING 424
SWIDTH 600 0
DWIDTH 22 0
BBX 18 20 2 0
BITMAP
008000
1FFE00
3FFE00
3FFF80
7C0F80
180F80
000F80
003F80
01FF00
1FFF00
7FFC00
7FFC00
7F8000
7C0000
F80700
7C07C0
7C0F80
3FFF80
3FFE00
03FE00
ENDCHAR
STARTCHAR uni01A9
ENCODING 425
SWIDTH 600 0
DWIDTH 22 0
BBX 19 24 2 0
BITMAP
7FFFC0
7FFFC0
7FFFC0
7FFFC0
7E0000
3F0000
1F8000
07E000
03F000
01F800
01F800
00F800
01F800
03F000
07E000
0FC000
1F8000
3F0000
3E0000
FFFFE0
FFFFE0
FFFFE0
FFFFE0
FFFFE0
ENDCHAR
STARTCHAR uni01AA
ENCODING 426
SWIDTH 600 0
DWIDTH 22 0
BBX 15 34 3 -7
BITMAP
0800
7F00
7F80
E7C0
67C0
7FE0
7FC0
7FC0
03E0
03E0
03E0
03E0
03E0
03E0
03E0
03E0
03E0
03E0
03E0
03E0
03E0
03E0
03E0
03E0
03E0
03E0
03E0
03E0
03E0
03E0
03FE
03FC
01FE
007E
ENDCHAR
STARTCHAR uni01AB
ENCODING 427
SWIDTH 600 0
DWIDTH 22 0
BBX 16 31 3 -7
BITMAP
0780
0F00
0F00
0F80
1F00
FFFE
FFFE
FFFE
1F00
1F00
1F00
1F00
1F00
1F00
1F00
1F00
1F00
1F00
1F00
0F80
0FFF
0FFF
07FF
03FF
000F
000F
001F
00FF
01FE
01FC
01F0
ENDCHAR
STARTCHAR uni01AC
ENCODING 428
SWIDTH 600 0
DWIDTH 22 0
BBX 21 24 0 0
BITMAP
03FFF8
3FFFF8
7FFFF8
7FFFF8
7E7C00
F07C00
F07C00
787C00
007C00
007C00
007C00
007C00
007C00
007C00
007C00
007C00
007C00
007C00
007C00
007C00
007C00
007C00
007C00
007C00
ENDCHAR
STARTCHAR uni01AD
ENCODING 429
SWIDTH 600 0
DWIDTH 22 0
BBX 16 27 3 0
BITMAP
00F0
03FF
07FF
0FFF
0FC0
0F80
1F00
1F00
FFFE
FFFE
FFFE
1F00
1F00
1F00
1F00
1F00
1F00
1F00
1F00
1F00
1F00
1F00
0F80
0FFF
0FFF
07FF
03FF
ENDCHAR
STARTCHAR uni01AE
ENCODING 430
SWIDTH 600 0
DWIDTH 22 0
BBX 19 31 2 -7
BITMAP
FFFFE0
FFFFE0
FFFFE0
FFFFE0
01F000
01F000
01F000
01F000
01F000
01F000
01F000
01F000
01F000
01F000
01F000
01F000
01F000
01F000
01F000
01F000
01F000
01F000
01F000
01F000
01F000
01F000
01F800
01FE00
00FF00
00FE00
003F00
ENDCHAR
STARTCHAR Uhorn
ENCODING 431
SWIDTH 600 0
DWIDTH 22 0
BBX 20 25 3 0
BITMAP
0000F0
F83EF0
F83EF0
F83EF0
F83E30
F83E30
F83E30
F83E30
F83EE0
F83FE0
F83F80
F83E00
F83E00
F83E00
F83E00
F83E00
F83E00
F83E00
F83F00
FC3E00
F87E00
FFFC00
7FF800
7FF000
0FC000
ENDCHAR
STARTCHAR uhorn
ENCODING 432
SWIDTH 600 0
DWIDTH 22 0
BBX 21 19 2 0
BITMAP
F81F78
F81F78
F81F78
F81F78
F81F18
F81F18
F81F18
F81F30
F81F70
F81FE0
F81F80
F81F00
7C1F00
7C3F00
FC3F00
7FFF00
7FDF00
3FDF00
0F9F00
ENDCHAR
STARTCHAR uni01B1
ENCODING 433
SWIDTH 600 0
DWIDTH 22 0
BBX 20 24 1 0
BITMAP
FF9FF0
FF9FF0
FF9FF0
FF9FF0
0F9E00
1F9F80
3F07C0
3E07C0
3E03E0
3E03E0
7C01F0
7C01F0
7C01F0
7C01F0
7C01F0
FC01F0
7C01F0
3E03E0
7E07E0
3F8FE0
1FFFC0
0FFF80
07FE00
07FE00
ENDCHAR
STARTCHAR uni01B2
ENCODING 434
SWIDTH 600 0
DWIDTH 22 0
BBX 20 24 2 0
BITMAP
7C3C00
7C3FC0
7C3FE0
7C3FE0
7C07E0
7C03F0
7C03E0
7C03E0
7C03E0
7C03E0
7C03E0
7C03E0
7C03E0
7C03E0
7C03E0
7C03E0
7C03E0
FC07C0
7C07E0
3F07C0
3FFFC0
3FFF00
0FFF00
03F800
ENDCHAR
STARTCHAR uni01B3
ENCODING 435
SWIDTH 600 0
DWIDTH 22 0
BBX 22 25 0 0
BITMAP
000080
FC03F8
7C07FC
3E0FF8
3E0FF8
1F0FB8
1F1F00
1F1F00
0FBE00
0FBE00
07FC00
07FC00
03FC00
03F800
01F800
01F800
01F000
01F000
01F000
01F000
01F000
01F000
01F000
01F000
01F000
ENDCHAR
STARTCHAR uni01B4
ENCODING 436
SWIDTH 600 0
DWIDTH 22 0
BBX 25 34 0 -7
BITMAP
00000800
00007F80
00007F80
0000FF00
0000FF00
0001F000
0001E000
0001F000
FC01E000
7C03C000
3E03E000
3E03C000
3E078000
1F07C000
1F078000
0F8F0000
0F8F0000
0F8F0000
07CF0000
079E0000
03DE0000
03DE0000
03FC0000
01FC0000
01F80000
01F80000
00F80000
00F80000
01F00000
03E00000
3FE00000
3FC00000
3F800000
3F800000
ENDCHAR
STARTCHAR uni01B5
ENCODING 437
SWIDTH 600 0
DWIDTH 22 0
BBX 19 24 1 0
BITMAP
3FFFE0
3FFFE0
3FFFE0
3FFFE0
000FC0
001F80
003F00
003F00
007E00
FFFFC0
FFFFC0
FFFFC0
FFFFC0
07E000
0FC000
0FC000
1F8000
3F0000
7E0000
FFFFE0
FFFFE0
FFFFE0
FFFFE0
FFFFE0
ENDCHAR
STARTCHAR uni01B6
ENCODING 438
SWIDTH 600 0
DWIDTH 22 0
BBX 17 19 2 0
BITMAP
7FFF00
7FFF00
7FFF00
003F00
007E00
00FC00
01F800
FFFF00
FFFF00
FFFF00
FFFF00
1F8000
3F0000
3F0000
7E0000
FFFF80
FFFF80
FFFF80
FFFF80
ENDCHAR
STARTCHAR uni01B7
ENCODING 439
SWIDTH 600 0
DWIDTH 22 0
BBX 21 31 0 -7
BITMAP
3FFFF0
3FFFF0
3FFFF0
3FFFF0
0007E0
000FC0
001F80
003F00
007E00
00FC00
01F800
01F000
03E000
01FFC0
03FFC0
007FF0
0007F0
0001F8
0001F8
0000F8
0000F8
0000F8
0800F8
3801F0
FC01F8
7E01F0
7E0FE0
3FFFC0
1FFFC0
0FFF00
01F800
ENDCHAR
STARTCHAR uni01B8
ENCODING 440
SWIDTH 600 0
DWIDTH 22 0
BBX 21 31 1 -7
BITMAP
7FFFE0
7FFFE0
7FFFE0
7FFFE0
3F0000
1F8000
0FC000
07E000
03F000
01F800
00FC00
003E00
003E00
0FFE00
1FFE00
3FF800
7F0000
7E0000
FC0000
7C0000
7C0000
7C0000
7C0080
7C00E0
7C01F8
3E03F0
3FC3F0
1FFFE0
1FFFC0
07FF80
00FC00
ENDCHAR
STARTCHAR uni01B9
ENCODING 441
SWIDTH 600 0
DWIDTH 22 0
BBX 17 26 3 -7
BITMAP
FFFF00
FFFF00
FFFF00
7E0000
3F0000
1F8000
0FC000
07E000
03F000
01F800
01F800
3FF800
7FF000
FFC000
FC0000
F80000
F80000
F80000
F80000
F80F80
F80F80
F80F80
FE1F00
3FFF00
3FFE00
07F800
ENDCHAR
STARTCHAR uni01BA
ENCODING 442
SWIDTH 600 0
DWIDTH 22 0
BBX 18 26 2 -7
BITMAP
7FFF80
7FFF80
7FFF80
003F00
00FC00
00F800
01F000
07C000
07E000
07FF00
03FF80
000FC0
000F80
001F80
000F80
007F80
3FFE00
7FFC00
7F8000
FC0000
F807C0
F80F80
7E0F80
3FFF00
3FFE00
0FFC00
ENDCHAR
STARTCHAR uni01BB
ENCODING 443
SWIDTH 600 0
DWIDTH 22 0
BBX 18 25 2 0
BITMAP
004000
0FFC00
1FFE00
3FFF00
3FFF80
7E1F80
FC0F80
7C0F80
000F80
000F80
001F00
007E00
FFFF80
FFFF80
FFFF80
07F000
0FC000
1F8000
3F0000
7E0000
7FFFC0
7FFFC0
7FFFC0
7FFFC0
7FFFC0
ENDCHAR
STARTCHAR uni01BC
ENCODING 444
SWIDTH 600 0
DWIDTH 22 0
BBX 18 24 2 0
BITMAP
7FFFC0
7FFFC0
7FFFC0
7FFFC0
0F8000
0F8000
0F8000
0F8000
1F8000
0FFF00
1FFF00
0FFFC0
007FC0
000FC0
0007C0
0007C0
0007C0
F807C0
FC07C0
7E0F80
7FFF80
3FFF00
1FFF00
03F000
ENDCHAR
STARTCHAR uni01BD
ENCODING 445
SWIDTH 600 0
DWIDTH 22 0
BBX 18 19 2 0
BITMAP
7FFF80
7FFF80
7FFF80
0F0000
0F0000
0F0000
1F8000
0FFE00
0FFF00
1FFF80
000FC0
0007C0
0007C0
F807C0
7C0F80
7FFF80
1FFF80
1FFE00
03FC00
ENDCHAR
STARTCHAR uni01BE
ENCODING 446
SWIDTH 600 0
DWIDTH 22 0
BBX 20 24 0 0
BITMAP
070000
0F0000
0F0000
0F0000
1F0000
FFE000
FFE000
FFE000
1F0000
1F0000
1F8000
1F8000
0FF800
07FF80
03FFE0
007FE0
001FE0
0003E0
0E01F0
3E03E0
1F03E0
1FFFC0
0FFF80
07FE00
ENDCHAR
STARTCHAR uni01BF
ENCODING 447
SWIDTH 600 0
DWIDTH 22 0
BBX 19 27 2 -7
BITMAP
001000
F9FE00
FBFF80
FFFF80
7FFFC0
7E07E0
7C07C0
7C07C0
F807C0
F807C0
F807C0
F80FC0
F807C0
F80F80
F80F80
F81F00
F87F00
F8FE00
F9FC00
FFF000
FFE000
FF8000
FE0000
F80000
F80000
F80000
F80000
ENDCHAR
STARTCHAR uni01C0
ENCODING 448
SWIDTH 600 0
DWIDTH 22 0
BBX 4 27 10 0
BITMAP
F0
F0
F0
F0
F0
F0
F0
F0
F0
F0
F0
F0
F0
F0
F0
F0
F0
F0
F0
F0
F0
F0
F0
F0
F0
F0
F0
ENDCHAR
STARTCHAR uni01C1
ENCODING 449
SWIDTH 600 0
DWIDTH 22 0
BBX 11 27 6 0
BITMAP
F1E0
F1E0
F1E0
F1E0
F1E0
F1E0
F1E0
F1E0
F1E0
F1E0
F1E0
F1E0
F1E0
F1E0
F1E0
F1E0
F1E0
F1E0
F1E0
F1E0
F1E0
F1E0
F1E0
F1E0
F1E0
F1E0
F1E0
ENDCHAR
STARTCHAR uni01C2
ENCODING 450
SWIDTH 600 0
DWIDTH 22 0
BBX 18 27 3 0
BITMAP
01E000
01E000
01E000
01E000
01E000
01E000
01E000
01E000
FFFFC0
FFFFC0
FFFFC0
01E000
01E000
01E000
01E000
01E000
FFFFC0
FFFFC0
FFFFC0
FFFFC0
01E000
01E000
01E000
01E000
01E000
01E000
01E000
ENDCHAR
STARTCHAR uni01C3
ENCODING 451
SWIDTH 600 0
DWIDTH 22 0
BBX 5 24 9 0
BITMAP
F8
F8
F8
F8
F8
F8
F8
F8
F8
F8
F8
F8
F8
F8
F0
F0
00
00
00
F8
F8
F8
F8
F8
ENDCHAR
STARTCHAR uni01C4
ENCODING 452
SWIDTH 600 0
DWIDTH 22 0
BBX 22 30 1 0
BITMAP
003C3C
001E78
000FF0
0007E0
000000
000000
F01FF8
FF1FF8
FF9FF8
FF9FF8
FFC0F0
F3C0F8
F3C0F0
F1E1E0
F1E3E0
F1E1E0
F1E3C0
F1E7C0
F1E3C0
F1E7C0
F1E780
F1EF00
F1EF80
F3CF00
F3DE00
F7DFFC
FF9FFC
7F9FFC
7F1FFC
781FFC
ENDCHAR
STARTCHAR uni01C5
ENCODING 453
SWIDTH 600 0
DWIDTH 22 0
BBX 22 26 1 0
BITMAP
00783C
001E78
781FF0
FF0FE0
FF87C0
FF8000
FFC000
F3DFF0
F3DFF0
F1FFF0
F1E0F8
F1E0F0
F1E1E0
F1E1E0
F1E3C0
F1E7C0
F1E3C0
F1E780
F1E780
F3CF00
F3DF00
F7CF00
FF9FF8
7F9FF8
7F1FF8
F81FF8
ENDCHAR
STARTCHAR uni01C6
ENCODING 454
SWIDTH 600 0
DWIDTH 22 0
BBX 23 27 0 0
BITMAP
01E000
01FE1E
01EF3C
01EFF8
01E7F0
01E3E0
01E000
19E000
3FCFF8
3FEFF8
3FEFF8
7FE078
79E0F0
79E0F0
F1E1E0
F1E1E0
F1E3C0
F1E3C0
F1E780
F1E780
79E780
79EF00
79EF00
7FDFF8
3FFFF8
3FDFF8
1FFFF8
ENDCHAR
STARTCHAR uni01C7
ENCODING 455
SWIDTH 600 0
DWIDTH 22 0
BBX 20 24 1 0
BITMAP
7801E0
7801E0
7801E0
7801E0
7801E0
7801E0
7801E0
7801E0
7801E0
7801E0
7801E0
7801E0
7801E0
7801E0
7801E0
7801E0
7801E0
7801E0
7801F0
7801E0
FFDFC0
FFDFC0
FFCFC0
FFDE00
ENDCHAR
STARTCHAR uni01C8
ENCODING 456
SWIDTH 600 0
DWIDTH 22 0
BBX 19 34 1 -7
BITMAP
0001E0
0001E0
0001E0
7801E0
780000
780000
780000
780000
781FE0
781FE0
781FE0
7801E0
7801E0
7801E0
7801E0
7801E0
7801E0
7801E0
7801E0
7801E0
7801E0
7801E0
7801E0
FFC1E0
FFC1E0
FFC1E0
FFC1E0
0001E0
0001E0
0003C0
003FE0
003FC0
003FC0
003F00
ENDCHAR
STARTCHAR uni01C9
ENCODING 457
SWIDTH 600 0
DWIDTH 22 0
BBX 20 34 0 -7
BITMAP
3F80F0
3F80F0
3F80F0
3F80F0
078000
078000
078000
078000
078FF0
078FF0
078FF0
0780F0
0780F0
0780F0
0780F0
0780F0
0780F0
0780F0
0780F0
0780F0
0780F0
0780F0
0780F0
FFF0F0
FFF0F0
FFF0F0
FFF0F0
0000F0
0000F0
0001F0
000FF0
001FE0
000FE0
001F80
ENDCHAR
STARTCHAR uni01CA
ENCODING 458
SWIDTH 600 0
DWIDTH 22 0
BBX 20 24 1 0
BITMAP
79E1E0
79E1E0
F9E1E0
F9E1E0
F9E1E0
7DE1E0
7DE1E0
7DE1E0
FDE1E0
FDE1E0
FDE1E0
7FE1E0
7FE1E0
7FC1E0
7FC1E0
77E1E0
77E1E0
77C1E0
77C1F0
77C1E0
73FFC0
73FFC0
73EFC0
73DE00
ENDCHAR
STARTCHAR uni01CB
ENCODING 459
SWIDTH 600 0
DWIDTH 22 0
BBX 18 34 2 -7
BITMAP
000780
000780
000780
79E780
79E000
F9E000
F9E000
F9E000
7DFFC0
7DFFC0
7DFFC0
FDE780
FDE780
FDE780
7FE780
7FE780
7FC780
7FC780
77E780
77E780
77C780
77C780
77C780
73E780
73E780
73E780
73C780
000780
000780
0087C0
00FF80
00FF00
00FF00
00FC00
ENDCHAR
STARTCHAR uni01CC
ENCODING 460
SWIDTH 600 0
DWIDTH 22 0
BBX 20 34 1 -7
BITMAP
0001E0
0001E0
0001E0
0001E0
000000
000000
000000
008000
7FEFE0
7FFFE0
FFFFE0
FFF1E0
7CF1E0
F8F1E0
78F1E0
78F1E0
78F1E0
78F1E0
78F1E0
78F1E0
78F1E0
78F1E0
78F1E0
78F1E0
78F1E0
78F1E0
78F1E0
0001E0
0001F0
0001E0
003FC0
003FC0
001FC0
003F00
ENDCHAR
STARTCHAR uni01CD
ENCODING 461
SWIDTH 600 0
DWIDTH 22 0
BBX 21 30 1 0
BITMAP
0F0F00
079E00
03FC00
01F800
000000
000000
01F800
01FC00
03FC00
03FC00
03DE00
03FE00
079E00
0F8F00
079F00
0F0F80
0F8F80
1F0F80
1F07C0
1F07C0
3FFFC0
3FFFC0
3FFFE0
7FFFE0
7C03E0
7C01F0
F801F0
F801F0
F800F8
F801F8
ENDCHAR
STARTCHAR uni01CE
ENCODING 462
SWIDTH 600 0
DWIDTH 22 0
BBX 19 26 2 0
BITMAP
1E0F00
0F1E00
07FC00
03F800
01F000
000000
004000
0FFE00
1FFE00
3FFF00
7E1F00
7C0F80
000F80
000F80
00FF80
1FFF80
3FFF00
7F0F80
FC0F80
7C0F80
7C1F80
7C1F80
7FFF80
7FEFE0
3FC7E0
0FC7C0
ENDCHAR
STARTCHAR uni01CF
ENCODING 463
SWIDTH 600 0
DWIDTH 22 0
BBX 16 30 4 0
BITMAP
783C
1EF0
0FF0
07E0
0000
0000
FFFF
FFFF
FFFF
FFFF
07E0
07E0
07E0
07E0
07E0
07E0
07E0
07E0
07E0
07E0
07E0
07E0
07E0
07E0
07E0
07E0
FFFF
FFFF
FFFF
FFFF
ENDCHAR
STARTCHAR uni01D0
ENCODING 464
SWIDTH 600 0
DWIDTH 22 0
BBX 18 26 3 0
BITMAP
3C1E00
1E3C00
0FF800
07F000
03E000
000000
000000
7FE000
7FE000
7FE000
03E000
03E000
03E000
03E000
03E000
03E000
03E000
03E000
03E000
03E000
03E000
03E000
FFFFC0
FFFFC0
FFFFC0
FFFFC0
ENDCHAR
STARTCHAR uni01D1
ENCODING 465
SWIDTH 600 0
DWIDTH 22 0
BBX 20 30 1 0
BITMAP
0F0F00
07FE00
03FC00
01F800
000000
002000
03FE00
0FFF80
1FFFC0
1FFFC0
7FFFC0
3E07C0
7C03E0
FC03F0
7C03E0
7C03E0
7C03E0
7C03E0
7C03E0
7C03E0
7C03E0
FC03F0
7C07E0
3E03E0
3E07C0
3F0FC0
1FFFC0
1FFFC0
07FF00
01F800
ENDCHAR
STARTCHAR uni01D2
ENCODING 466
SWIDTH 600 0
DWIDTH 22 0
BBX 19 26 2 0
BITMAP
1E0F00
0F3E00
07FC00
03F800
01F000
000000
004000
0FFE00
1FFF00
1FFFC0
3FFFC0
7C0FC0
FC07C0
7C03E0
7C03E0
7C03E0
7C03E0
7C03E0
7C03E0
FC07C0
7C07E0
3E07C0
3FFF80
1FFF80
0FFE00
01F800
ENDCHAR
STARTCHAR uni01D3
ENCODING 467
SWIDTH 600 0
DWIDTH 22 0
BBX 17 30 3 0
BITMAP
3C3C00
1FF800
0FF000
07E000
000000
000000
F81F00
F81F00
F81F00
F81F00
F81F00
F81F00
F81F00
F81F00
F81F00
F81F00
F81F00
F81F00
F81F00
F81F00
F81F00
F81F00
F81F00
F81F80
FC1F00
F87E00
FFFE00
7FFC00
7FF800
07E000
ENDCHAR
STARTCHAR uni01D4
ENCODING 468
SWIDTH 600 0
DWIDTH 22 0
BBX 17 26 2 0
BITMAP
3C1E00
0F3E00
0FF800
07F000
03E000
000000
000000
F80F80
F80F80
F80F80
F80F80
F80F80
F80F80
F80F80
F80F80
F80F80
F80F80
F80F80
F80F80
7C0F80
FC1F80
7E1F80
7FFF80
7FEF80
3FCF80
0F0F80
ENDCHAR
STARTCHAR uni01D5
ENCODING 469
SWIDTH 600 0
DWIDTH 22 0
BBX 17 33 3 0
BITMAP
1FFC00
1FFC00
1FFC00
000000
1C3800
1C3800
1C3800
000000
000000
F81F00
F81F00
F81F00
F81F00
F81F00
F81F00
F81F00
F81F00
F81F00
F81F00
F81F00
F81F00
F81F00
F81F00
F81F00
F81F00
F81F00
F81F80
FC1F00
F87E00
FFFE00
7FFC00
7FF800
07E000
ENDCHAR
STARTCHAR uni01D6
ENCODING 470
SWIDTH 600 0
DWIDTH 22 0
BBX 17 30 2 0
BITMAP
1FFC00
1FFC00
1FFC00
000000
1E3C00
1E3C00
1E3C00
1E3C00
000000
000000
000000
F80F80
F80F80
F80F80
F80F80
F80F80
F80F80
F80F80
F80F80
F80F80
F80F80
F80F80
F80F80
7C0F80
FC1F80
7E1F80
7FFF80
7FEF80
3FCF80
0F0F80
ENDCHAR
STARTCHAR uni01D7
ENCODING 471
SWIDTH 600 0
DWIDTH 22 0
BBX 17 33 3 0
BITMAP
00F000
01E000
01C000
000000
1C3800
1C3800
1C3800
000000
000000
F81F00
F81F00
F81F00
F81F00
F81F00
F81F00
F81F00
F81F00
F81F00
F81F00
F81F00
F81F00
F81F00
F81F00
F81F00
F81F00
F81F00
F81F80
FC1F00
F87E00
FFFE00
7FFC00
7FF800
07E000
ENDCHAR
STARTCHAR uni01D8
ENCODING 472
SWIDTH 600 0
DWIDTH 22 0
BBX 17 31 2 0
BITMAP
003E00
00F800
00F000
03C000
000000
1E1E00
1E1E00
1E1E00
1E1E00
000000
000000
000000
F80F80
F80F80
F80F80
F80F80
F80F80
F80F80
F80F80
F80F80
F80F80
F80F80
F80F80
F80F80
7C0F80
FC1F80
7E1F80
7FFF80
7FEF80
3FCF80
0F0F80
ENDCHAR
STARTCHAR uni01D9
ENCODING 473
SWIDTH 600 0
DWIDTH 22 0
BBX 17 33 3 0
BITMAP
1C7800
0FF000
03E000
000000
1C3800
1C3800
1C3800
000000
000000
F81F00
F81F00
F81F00
F81F00
F81F00
F81F00
F81F00
F81F00
F81F00
F81F00
F81F00
F81F00
F81F00
F81F00
F81F00
F81F00
F81F00
F81F80
FC1F00
F87E00
FFFE00
7FFC00
7FF800
07E000
ENDCHAR
STARTCHAR uni01DA
ENCODING 474
SWIDTH 600 0
DWIDTH 22 0
BBX 17 31 2 0
BITMAP
1E1E00
0F7C00
0FF800
07F000
03E000
1E1E00
1E1E00
1E1E00
1E1E00
000000
000000
000000
F80F80
F80F80
F80F80
F80F80
F80F80
F80F80
F80F80
F80F80
F80F80
F80F80
F80F80
F80F80
7C0F80
FC1F80
7E1F80
7FFF80
7FEF80
3FCF80
0F0F80
ENDCHAR
STARTCHAR uni01DB
ENCODING 475
SWIDTH 600 0
DWIDTH 22 0
BBX 17 33 3 0
BITMAP
0F0000
078000
038000
000000
1C3800
1C3800
1C3800
000000
000000
F81F00
F81F00
F81F00
F81F00
F81F00
F81F00
F81F00
F81F00
F81F00
F81F00
F81F00
F81F00
F81F00
F81F00
F81F00
F81F00
F81F00
F81F80
FC1F00
F87E00
FFFE00
7FFC00
7FF800
07E000
ENDCHAR
STARTCHAR uni01DC
ENCODING 476
SWIDTH 600 0
DWIDTH 22 0
BBX 17 31 2 0
BITMAP
1F8000
0F8000
03E000
01E000
007000
1E1E00
1E1E00
1E1E00
1E1E00
000000
000000
000000
F80F80
F80F80
F80F80
F80F80
F80F80
F80F80
F80F80
F80F80
F80F80
F80F80
F80F80
F80F80
7C0F80
FC1F80
7E1F80
7FFF80
7FEF80
3FCF80
0F0F80
ENDCHAR
STARTCHAR uni01DD
ENCODING 477
SWIDTH 600 0
DWIDTH 22 0
BBX 18 20 3 0
BITMAP
008000
1FFC00
7FFE00
FFFE00
FC1F80
381F80
000F80
000F80
000F80
FFFFC0
FFFFC0
FFFFC0
F80F80
F00F80
780F80
7C1F00
781F00
3FFE00
1FF800
07F800
ENDCHAR
STARTCHAR uni01DE
ENCODING 478
SWIDTH 600 0
DWIDTH 22 0
BBX 21 33 1 0
BITMAP
07FF00
07FF00
07FF00
000000
038E00
038E00
038E00
000000
000000
01F800
01FC00
03FC00
03FC00
03DE00
03FE00
079E00
0F8F00
079F00
0F0F80
0F8F80
1F0F80
1F07C0
1F07C0
3FFFC0
3FFFC0
3FFFE0
7FFFE0
7C03E0
7C01F0
F801F0
F801F0
F800F8
F801F8
ENDCHAR
STARTCHAR uni01DF
ENCODING 479
SWIDTH 600 0
DWIDTH 22 0
BBX 19 30 2 0
BITMAP
0FFE00
0FFE00
0FFE00
000000
1E1E00
1E1E00
1E1E00
1E1E00
000000
000000
004000
0FFE00
1FFE00
3FFF00
7E1F00
7C0F80
000F80
000F80
00FF80
1FFF80
3FFF00
7F0F80
FC0F80
7C0F80
7C1F80
7C1F80
7FFF80
7FEFE0
3FC7E0
0FC7C0
ENDCHAR
STARTCHAR uni01E0
ENCODING 480
SWIDTH 600 0
DWIDTH 22 0
BBX 21 33 1 0
BITMAP
07FF00
07FF00
07FF00
000000
007000
007000
007000
000000
000000
01F800
01FC00
03FC00
03FC00
03DE00
03FE00
079E00
0F8F00
079F00
0F0F80
0F8F80
1F0F80
1F07C0
1F07C0
3FFFC0
3FFFC0
3FFFE0
7FFFE0
7C03E0
7C01F0
F801F0
F801F0
F800F8
F801F8
ENDCHAR
STARTCHAR uni01E1
ENCODING 481
SWIDTH 600 0
DWIDTH 22 0
BBX 19 30 2 0
BITMAP
0FFE00
0FFE00
0FFE00
000000
000000
01F000
01F000
01F000
000000
000000
004000
0FFE00
1FFE00
3FFF00
7E1F00
7C0F80
000F80
000F80
00FF80
1FFF80
3FFF00
7F0F80
FC0F80
7C0F80
7C1F80
7C1F80
7FFF80
7FEFE0
3FC7E0
0FC7C0
ENDCHAR
STARTCHAR uni01E2
ENCODING 482
SWIDTH 600 0
DWIDTH 22 0
BBX 22 29 0 0
BITMAP
00FFE0
00FFE0
00FFE0
000000
000000
03FFF8
03FFF8
03FFF8
03DE00
07DE00
03DE00
079E00
07DE00
0F9E00
079E00
0F1FF8
0F9FF8
0F1FF8
1FFE00
1FFF00
1FFF00
1FFF00
3E1E00
3E1E00
7C1E00
7C1FFC
7C1FFC
7C1FFC
F81FFC
ENDCHAR
STARTCHAR uni01E3
ENCODING 483
SWIDTH 600 0
DWIDTH 22 0
BBX 22 25 0 0
BITMAP
03FF80
03FF80
03FF80
000000
000000
020100
1FCFE0
3FFFF0
3FFFF0
3CFC78
787878
007878
007878
03FFF8
3FFFF8
7FFFFC
FE7800
787800
F07800
F0F820
F0FC78
7BFC78
7F9FF0
3F8FE0
1F0FE0
ENDCHAR
STARTCHAR uni01E4
ENCODING 484
SWIDTH 600 0
DWIDTH 22 0
BBX 20 25 1 0
BITMAP
002000
07FC00
0FFF00
1FFF80
3FFF80
3FFFC0
3E07C0
7C0700
FC0000
7C0000
7C0000
7C7FE0
7C7FE0
7C7FE0
7C7FE0
7C03E0
FC03E0
7C7FF0
3E7FF0
3E03E0
3F87E0
1FFFE0
1FFF80
07FE00
01F800
ENDCHAR
STARTCHAR uni01E5
ENCODING 485
SWIDTH 600 0
DWIDTH 22 0
BBX 20 27 2 -7
BITMAP
038000
0FE3E0
1FFFC0
1FFFC0
3FFFE0
7E0FC0
7C07E0
7C07C0
7C07C0
7C07C0
7C07C0
7C07C0
7C07C0
3E0FC0
7E0FC0
3FFFC0
1FFFC0
0FF7C0
03E7C0
FFFFF0
FFFFF0
0007C0
1E07C0
3F0FC0
1FFF80
1FFE00
07FE00
ENDCHAR
STARTCHAR uni01E6
ENCODING 486
SWIDTH 600 0
DWIDTH 22 0
BBX 19 30 1 0
BITMAP
0F0F00
07DE00
03FC00
01F800
000000
002000
07FC00
0FFF00
1FFF80
3FFF80
3FFFC0
7E07C0
7C0700
FC0000
7C0000
7C0000
7C7FE0
7C7FE0
7C7FE0
7C7FE0
7C03E0
FC03E0
7C03E0
3E03E0
3E03E0
3F87E0
1FFFE0
1FFF80
07FE00
01F800
ENDCHAR
STARTCHAR uni01E7
ENCODING 487
SWIDTH 600 0
DWIDTH 22 0
BBX 18 33 2 -7
BITMAP
3C1E00
0F3C00
0FF800
07F000
01F000
000000
070000
0FE7C0
3FF7C0
3FFFC0
3FFFC0
7E0FC0
FC07C0
7C07C0
7C07C0
7C07C0
7C07C0
7C07C0
7C07C0
FC07C0
7C0FC0
3F1FC0
3FFFC0
3FE7C0
0FE7C0
0007C0
0007C0
040F80
7C0F80
3F0F80
3FFF00
1FFE00
1FF800
ENDCHAR
STARTCHAR uni01E8
ENCODING 488
SWIDTH 600 0
DWIDTH 22 0
BBX 20 30 2 0
BITMAP
1E1E00
0FBC00
07F800
03F000
01E000
000000
7C07E0
7C0FC0
7C1F80
7C1F80
7C3F00
7C7E00
7CFC00
7DF800
7DF000
7FE000
7FF000
FFF000
7FF800
FFF800
FEFC00
FC7E00
7C7E00
7C3F00
7C1F80
7C1F80
7C0FC0
7C0FC0
7C07F0
7C03F0
ENDCHAR
STARTCHAR uni01E9
ENCODING 489
SWIDTH 600 0
DWIDTH 22 0
BBX 18 30 3 0
BITMAP
3C1E00
0F3C00
07F800
03F000
000000
000000
F80000
F80000
F80000
F80000
F80000
F81F00
F81F00
F83E00
F87C00
F9F800
F9F000
FBE000
FFE000
7FF000
FFF000
7FF800
F87C00
F87C00
F83E00
F83E00
F83F00
F80F80
F80F80
F807C0
ENDCHAR
STARTCHAR uni01EA
ENCODING 490
SWIDTH 600 0
DWIDTH 22 0
BBX 20 32 1 -7
BITMAP
002000
03FE00
0FFF80
1FFFC0
1FFFC0
7FFFC0
3E07C0
7C03E0
FC03F0
7C03E0
7C03E0
7C03E0
7C03E0
7C03E0
7C03E0
7C03E0
FC03F0
7C07E0
3E03E0
3E07C0
3F0FC0
1FFFC0
1FFFC0
07FF00
01FC00
007000
007000
007000
00E000
00FE00
007F00
007E00
ENDCHAR
STARTCHAR uni01EB
ENCODING 491
SWIDTH 600 0
DWIDTH 22 0
BBX 19 27 2 -7
BITMAP
004000
0FFE00
1FFF00
1FFFC0
3FFFC0
7C0FC0
FC07C0
7C03E0
7C03E0
7C03E0
7C03E0
7C03E0
7C03E0
FC07C0
7C07E0
3E07C0
3FFF80
1FFF80
0FFE00
01FC00
007000
007000
00E000
00E000
00FE00
007E00
007E00
ENDCHAR
STARTCHAR uni01EC
ENCODING 492
SWIDTH 600 0
DWIDTH 22 0
BBX 20 36 1 -7
BITMAP
07FF00
07FF00
07FF00
000000
002000
03FE00
0FFF80
1FFFC0
1FFFC0
7FFFC0
3E07C0
7C03E0
FC03F0
7C03E0
7C03E0
7C03E0
7C03E0
7C03E0
7C03E0
7C03E0
FC03F0
7C07E0
3E03E0
3E07C0
3F0FC0
1FFFC0
1FFFC0
07FF00
01FC00
007000
007000
007000
00E000
00FE00
007F00
007E00
ENDCHAR
STARTCHAR uni01ED
ENCODING 493
SWIDTH 600 0
DWIDTH 22 0
BBX 19 32 2 -7
BITMAP
0FFE00
0FFE00
0FFE00
000000
000000
004000
0FFE00
1FFF00
1FFFC0
3FFFC0
7C0FC0
FC07C0
7C03E0
7C03E0
7C03E0
7C03E0
7C03E0
7C03E0
FC07C0
7C07E0
3E07C0
3FFF80
1FFF80
0FFE00
01FC00
007000
007000
00E000
00E000
00FE00
007E00
007E00
ENDCHAR
STARTCHAR uni01EE
ENCODING 494
SWIDTH 600 0
DWIDTH 22 0
BBX 21 37 0 -7
BITMAP
078780
07CF00
01FE00
00FC00
000000
000000
3FFFF0
3FFFF0
3FFFF0
3FFFF0
0007E0
000FC0
001F80
003F00
007E00
00FC00
01F800
01F000
03E000
01FFC0
03FFC0
007FF0
0007F0
0001F8
0001F8
0000F8
0000F8
0000F8
0800F8
3801F0
FC01F8
7E01F0
7E0FE0
3FFFC0
1FFFC0
0FFF00
01F800
ENDCHAR
STARTCHAR uni01EF
ENCODING 495
SWIDTH 600 0
DWIDTH 22 0
BBX 18 33 2 -7
BITMAP
1E0F00
0F1E00
07FC00
03F800
01F000
000000
000000
7FFF80
7FFF80
7FFF80
001F80
003F00
007E00
00FC00
01F800
03F000
03E000
03FE00
07FF00
01FF00
000FC0
000FC0
0007C0
0007C0
0007C0
0007C0
F807C0
7C07C0
7C0F80
3E3F80
3FFF00
1FFF00
03F800
ENDCHAR
STARTCHAR uni01F0
ENCODING 496
SWIDTH 600 0
DWIDTH 22 0
BBX 16 33 4 -7
BITMAP
3C0F
0F3C
0FF8
03F8
01F0
0000
0000
3FF8
3FF8
3FF8
00F8
00F8
00F8
00F8
00F8
00F8
00F8
00F8
00F8
00F8
00F8
00F8
00F8
00F8
00F8
00F8
00F8
01F0
03F0
FFF0
FFF0
FFC0
FF80
ENDCHAR
STARTCHAR uni01F1
ENCODING 497
SWIDTH 600 0
DWIDTH 22 0
BBX 22 24 1 0
BITMAP
F01FF8
FF1FF8
FF9FF8
FF9FF8
FFC0F0
F3C0F8
F3C0F0
F1E1E0
F1E3E0
F1E1E0
F1E3C0
F1E7C0
F1E3C0
F1E7C0
F1E780
F1EF00
F1EF80
F3CF00
F3DE00
F7DFFC
FF9FFC
7F9FFC
7F1FFC
781FFC
ENDCHAR
STARTCHAR uni01F2
ENCODING 498
SWIDTH 600 0
DWIDTH 22 0
BBX 21 24 1 0
BITMAP
780000
FF0000
FF8000
FF8000
FFC000
F3DFF0
F3DFF0
F1FFF0
F1E0F8
F1E0F0
F1E1E0
F1E1E0
F1E3C0
F1E7C0
F1E3C0
F1E780
F1E780
F3CF00
F3DF00
F7CF00
FF9FF8
7F9FF8
7F1FF8
F81FF8
ENDCHAR
STARTCHAR uni01F3
ENCODING 499
SWIDTH 600 0
DWIDTH 22 0
BBX 21 27 0 0
BITMAP
01E000
01E000
01E000
01E000
01E000
01E000
01E000
19E000
3FCFF8
3FEFF8
3FEFF8
7FE078
79E0F0
79E0F0
F1E1E0
F1E1E0
F1E3C0
F1E3C0
F1E780
F1E780
79E780
79EF00
79EF00
7FDFF8
3FFFF8
3FDFF8
1FFFF8
ENDCHAR
STARTCHAR uni01F4
ENCODING 500
SWIDTH 600 0
DWIDTH 22 0
BBX 19 30 1 0
BITMAP
000F80
003E00
003C00
00F000
000000
002000
07FC00
0FFF00
1FFF80
3FFF80
3FFFC0
7E07C0
7C0700
FC0000
7C0000
7C0000
7C7FE0
7C7FE0
7C7FE0
7C7FE0
7C03E0
FC03E0
7C03E0
3E03E0
3E03E0
3F87E0
1FFFE0
1FFF80
07FE00
01F800
ENDCHAR
STARTCHAR uni01F5
ENCODING 501
SWIDTH 600 0
DWIDTH 22 0
BBX 18 33 2 -7
BITMAP
001F00
003E00
00F800
00F000
03C000
000000
070000
0FE7C0
3FF7C0
3FFFC0
3FFFC0
7E0FC0
FC07C0
7C07C0
7C07C0
7C07C0
7C07C0
7C07C0
7C07C0
FC07C0
7C0FC0
3F1FC0
3FFFC0
3FE7C0
0FE7C0
0007C0
0007C0
040F80
7C0F80
3F0F80
3FFF00
1FFE00
1FF800
ENDCHAR
STARTCHAR uni01F6
ENCODING 502
SWIDTH 600 0
DWIDTH 22 0
BBX 20 24 2 0
BITMAP
78F000
78F000
78F000
78F000
78F000
78F1E0
78F1E0
78F1E0
78F1E0
FFF1E0
FFF1E0
FFF1E0
FFF1E0
78F1E0
78F1E0
78F1E0
78F1E0
78F1F0
78F1F0
78F1E0
787FE0
78FFC0
783FC0
783F80
ENDCHAR
STARTCHAR uni01F7
ENCODING 503
SWIDTH 600 0
DWIDTH 22 0
BBX 19 31 2 -6
BITMAP
001000
F9FE00
FBFE00
FFFF00
FFFF80
FFFF80
7E0FC0
7C0FC0
7C07E0
7C07C0
7C07C0
7C07C0
7C07E0
7C07C0
7C07C0
7C0F80
7C1F80
7C1F00
7C3F00
7C3E00
7C7E00
7DFC00
7FF800
7FF000
7FC000
FF0000
FC0000
7C0000
7C0000
7C0000
7C0000
ENDCHAR
STARTCHAR uni01F8
ENCODING 504
SWIDTH 600 0
DWIDTH 22 0
BBX 18 30 2 0
BITMAP
1F8000
0F8000
03E000
01E000
000000
000000
7E07C0
FE07C0
FE07C0
7F07C0
FF07C0
7F87C0
7F87C0
7F87C0
7BC7C0
7FC7C0
7BC7C0
79E7C0
F9E7C0
F8F7C0
F8F7C0
F8F780
F87F80
F87F80
F87F80
F83FC0
F83F80
F83F80
F81FC0
F81F80
ENDCHAR
STARTCHAR uni01F9
ENCODING 505
SWIDTH 600 0
DWIDTH 22 0
BBX 18 26 2 0
BITMAP
1F0000
0F8000
07C000
01E000
00E000
000000
001000
F8FF00
FBFF00
7FFF80
FFFF80
7E0FC0
FC0F80
7C07C0
7C07C0
7C07C0
7C07C0
7C07C0
7C07C0
7C07C0
7C07C0
7C07C0
7C07C0
7C07C0
7C07C0
7C07C0
ENDCHAR
STARTCHAR Aringacute
ENCODING 506
SWIDTH 600 0
DWIDTH 22 0
BBX 21 30 1 0
BITMAP
000F80
003E00
007800
007000
000000
002000
01F800
038E00
030C00
03FC00
01FC00
03FC00
03FC00
03DE00
079F00
07DE00
079F00
0F0F80
0F8F80
1F0F80
1F07C0
1FFFC0
3FFFC0
3FFFE0
7FFFE0
7C01F0
7C01F0
F801F0
F800F8
F801F8
ENDCHAR
STARTCHAR aringacute
ENCODING 507
SWIDTH 600 0
DWIDTH 22 0
BBX 19 30 2 0
BITMAP
001F00
007C00
007800
01E000
000000
004000
03F000
07F800
061800
073800
03F800
0FFE00
1FFE00
3FFF00
7E1F00
7C0F80
000F80
000F80
00FF80
1FFF80
3FFF00
7F0F80
FC0F80
7C0F80
7C1F80
7C1F80
7FFF80
7FEFE0
3FC7E0
0FC7C0
ENDCHAR
STARTCHAR AEacute
ENCODING 508
SWIDTH 600 0
DWIDTH 22 0
BBX 22 30 0 0
BITMAP
0003F0
0003E0
000F80
000F00
000000
000000
03FFF8
03FFF8
03FFF8
03DE00
07DE00
03DE00
079E00
07DE00
0F9E00
079E00
0F1FF8
0F9FF8
0F1FF8
1FFE00
1FFF00
1FFF00
1FFF00
3E1E00
3E1E00
7C1E00
7C1FFC
7C1FFC
7C1FFC
F81FFC
ENDCHAR
STARTCHAR aeacute
ENCODING 509
SWIDTH 600 0
DWIDTH 22 0
BBX 22 26 0 0
BITMAP
000F80
001F00
003E00
007800
007000
000000
020100
1FCFE0
3FFFF0
3FFFF0
3CFC78
787878
007878
007878
03FFF8
3FFFF8
7FFFFC
FE7800
787800
F07800
F0F820
F0FC78
7BFC78
7F9FF0
3F8FE0
1F0FE0
ENDCHAR
STARTCHAR Oslashacute
ENCODING 510
SWIDTH 600 0
DWIDTH 22 0
BBX 19 30 2 0
BITMAP
001F00
007C00
007800
01E000
000000
004040
0FFCE0
1FFEE0
1FFFC0
3FFF80
7FBFC0
7E0FC0
7C0FE0
F81FE0
F83BE0
F83BE0
FC73E0
FCE3E0
FDC3E0
F9C3E0
FB83E0
FF03E0
FE07C0
7E0FC0
7C07C0
7F1FC0
3FFF80
7FFF80
FFFC00
C3F000
ENDCHAR
STARTCHAR oslashacute
ENCODING 511
SWIDTH 600 0
DWIDTH 22 0
BBX 19 26 2 0
BITMAP
003F00
003E00
007C00
00F000
01C000
000000
004080
0FFEE0
1FFFC0
3FFF80
3FFFC0
7C0FC0
FC1FC0
7C3BE0
7C73E0
7C73E0
7CE3E0
7DC3E0
7F83E0
7F07C0
7E07E0
3E07C0
3FFF80
7FFF00
7FFE00
21F800
ENDCHAR
STARTCHAR uni0200
ENCODING 512
SWIDTH 600 0
DWIDTH 22 0
BBX 21 31 1 0
BITMAP
F9F000
7CF800
1E3C00
0F1E00
070E00
038700
000000
01F800
01FC00
03FC00
03FC00
03DE00
03FE00
079E00
0F8F00
079F00
0F0F80
0F8F80
1F0F80
1F07C0
1F07C0
3FFFC0
3FFFC0
3FFFE0
7FFFE0
7C03E0
7C01F0
F801F0
F801F0
F800F8
F801F8
ENDCHAR
STARTCHAR uni0201
ENCODING 513
SWIDTH 600 0
DWIDTH 22 0
BBX 19 27 2 0
BITMAP
F1E000
F9F000
78F000
3C7800
1E3C00
070E00
000000
004000
0FFE00
1FFE00
3FFF00
7E1F00
7C0F80
000F80
000F80
00FF80
1FFF80
3FFF00
FE0F80
7C0F80
7C0F80
7C1F80
7C1F80
7FFF80
7FEFE0
3FC7E0
0FC7C0
ENDCHAR
STARTCHAR uni0202
ENCODING 514
SWIDTH 600 0
DWIDTH 22 0
BBX 21 30 1 0
BITMAP
002000
03FC00
07FE00
0F0F00
0E0700
000000
01F800
01FC00
03FC00
03FC00
03DE00
03FE00
079E00
0F8F00
079F00
0F0F80
0F8F80
1F0F80
1F07C0
1F07C0
3FFFC0
3FFFC0
3FFFE0
7FFFE0
7C03E0
7C01F0
F801F0
F801F0
F800F8
F801F8
ENDCHAR
STARTCHAR uni0203
ENCODING 515
SWIDTH 600 0
DWIDTH 22 0
BBX 19 27 2 0
BITMAP
004000
07F800
07FC00
0FFE00
1E1E00
1C0E00
000000
004000
0FFE00
1FFE00
3FFF00
7E1F00
7C0F80
000F80
000F80
00FF80
1FFF80
3FFF00
7F0F80
FC0F80
7C0F80
7C1F80
7C1F80
7FFF80
7FEFE0
3FC7E0
0FC7C0
ENDCHAR
STARTCHAR uni0204
ENCODING 516
SWIDTH 600 0
DWIDTH 22 0
BBX 18 31 3 0
BITMAP
F1E000
F9F000
787800
3C3C00
0F1E00
070E00
000000
FFFF80
FFFF80
FFFF80
FFFF80
FC0000
FC0000
FC0000
FC0000
FC0000
FC0000
FFFF00
FFFF00
FFFF00
FFFF00
FC0000
FC0000
FC0000
FC0000
FC0000
FC0000
FFFFC0
FFFFC0
FFFFC0
FFFFC0
ENDCHAR
STARTCHAR uni0205
ENCODING 517
SWIDTH 600 0
DWIDTH 22 0
BBX 19 27 1 0
BITMAP
78F000
7CF800
3C7800
1E3C00
0F1E00
038700
000000
002000
07FE00
1FFF00
3FFF80
3E07C0
3F0FC0
7C03E0
7C03E0
7FFFE0
7FFFE0
7FFFE0
FC0000
7C0000
7C0000
3E0380
3E07C0
1FC7C0
1FFF00
07FF00
01FE00
ENDCHAR
STARTCHAR uni0206
ENCODING 518
SWIDTH 600 0
DWIDTH 22 0
BBX 18 30 2 0
BITMAP
004000
07F800
0FFE00
1E1E00
1C0E00
000000
FFFF80
FFFF80
FFFF80
FFFF80
7C0000
7C0000
7C0000
7C0000
7C0000
7C0000
FFFF00
FFFF00
FFFF00
FFFF00
7C0000
7C0000
7C0000
7C0000
7C0000
7C0000
FFFFC0
FFFFC0
FFFFC0
FFFFC0
ENDCHAR
STARTCHAR uni0207
ENCODING 519
SWIDTH 600 0
DWIDTH 22 0
BBX 19 27 2 0
BITMAP
004000
03FC00
03FC00
0FFE00
0F1E00
0E0700
000000
004000
07FE00
1FFF00
1FFF00
3E0F80
3E07C0
7C07C0
7C07C0
FFFFC0
7FFFE0
7FFFE0
7C0000
7C0000
FC0000
7C0300
3E07E0
3F8F80
1FFF80
0FFE00
03FE00
ENDCHAR
STARTCHAR uni0208
ENCODING 520
SWIDTH 600 0
DWIDTH 22 0
BBX 17 31 2 0
BITMAP
F1E000
F9F000
787800
3C3C00
0F1E00
070E00
000000
7FFF80
7FFF80
7FFF80
7FFF80
01F000
01F000
01F000
01F000
01F000
01F000
01F000
01F000
01F000
01F000
01F000
01F000
01F000
01F000
01F000
01F000
7FFF80
7FFF80
7FFF80
7FFF80
ENDCHAR
STARTCHAR uni0209
ENCODING 521
SWIDTH 600 0
DWIDTH 22 0
BBX 18 27 2 0
BITMAP
F1E000
F9F000
78F000
3C7800
1E3C00
070E00
000000
000000
3FF000
3FF000
3FF000
01F000
01F000
01F000
01F000
01F000
01F000
01F000
01F000
01F000
01F000
01F000
01F000
FFFFC0
FFFFC0
FFFFC0
FFFFC0
ENDCHAR
STARTCHAR uni020A
ENCODING 522
SWIDTH 600 0
DWIDTH 22 0
BBX 16 30 4 0
BITMAP
0100
0FF0
1FF8
3C78
381C
0000
FFFF
FFFF
FFFF
FFFF
07E0
07E0
07E0
07E0
07E0
07E0
07E0
07E0
07E0
07E0
07E0
07E0
07E0
07E0
07E0
07E0
FFFF
FFFF
FFFF
FFFF
ENDCHAR
STARTCHAR uni020B
ENCODING 523
SWIDTH 600 0
DWIDTH 22 0
BBX 18 27 3 0
BITMAP
008000
07F800
07F800
1FFC00
1E3C00
1C0E00
000000
000000
7FE000
7FE000
7FE000
03E000
03E000
03E000
03E000
03E000
03E000
03E000
03E000
03E000
03E000
03E000
03E000
FFFFC0
FFFFC0
FFFFC0
FFFFC0
ENDCHAR
STARTCHAR uni020C
ENCODING 524
SWIDTH 600 0
DWIDTH 22 0
BBX 20 31 1 0
BITMAP
79F000
7CF800
1E3C00
0F1E00
078E00
038700
002000
03FE00
0FFF80
1FFFC0
1FFFC0
7FFFC0
3E07C0
7C03E0
FC03F0
7C03E0
7C03E0
7C03E0
7C03E0
7C03E0
7C03E0
7C03E0
FC03F0
7C07E0
3E03E0
3E07C0
3F0FC0
1FFFC0
1FFFC0
07FF00
01F800
ENDCHAR
STARTCHAR uni020D
ENCODING 525
SWIDTH 600 0
DWIDTH 22 0
BBX 18 27 2 0
BITMAP
F1E000
F9F000
78F000
3C7800
1E3C00
070E00
000000
004000
0FFE00
3FFF00
1FFF80
7FFF80
7E07C0
7C07C0
F807C0
F807C0
F807C0
F807C0
F807C0
F807C0
7C07C0
7E07C0
7C0F80
3FFF80
3FFF00
0FFE00
03F000
ENDCHAR
STARTCHAR uni020E
ENCODING 526
SWIDTH 600 0
DWIDTH 22 0
BBX 20 30 1 0
BITMAP
002000
03FE00
07FF00
0F0F00
0E0700
002000
03FE00
0FFF80
1FFFC0
1FFFC0
7FFFC0
3E07C0
7C03E0
FC03F0
7C03E0
7C03E0
7C03E0
7C03E0
7C03E0
7C03E0
7C03E0
FC03F0
7C07E0
3E03E0
3E07C0
3F0FC0
1FFFC0
1FFFC0
07FF00
01F800
ENDCHAR
STARTCHAR uni020F
ENCODING 527
SWIDTH 600 0
DWIDTH 22 0
BBX 19 27 2 0
BITMAP
004000
03FC00
03FC00
0FFE00
0F0F00
0E0700
000000
004000
0FFE00
1FFF00
1FFFC0
3FFFC0
7C0FC0
FC07C0
7C03E0
7C03E0
7C03E0
7C03E0
7C03E0
7C03E0
FC07C0
7C07E0
3E07C0
3FFF80
1FFF80
0FFE00
01F800
ENDCHAR
STARTCHAR uni0210
ENCODING 528
SWIDTH 600 0
DWIDTH 22 0
BBX 20 31 2 0
BITMAP
F1E000
F9F000
787800
3C3C00
0F1E00
070E00
000000
FF8000
7FFF00
FFFF00
7FFFC0
7CFFC0
7C0FC0
7C07C0
7C07C0
7C07E0
7C0FC0
7FFFC0
FFFF80
FFFE00
7FFC00
7C7E00
7C7E00
7C3F00
7C3F00
7C1F80
7C1F80
7C0FC0
7C07E0
7C07E0
7C03F0
ENDCHAR
STARTCHAR uni0211
ENCODING 529
SWIDTH 600 0
DWIDTH 22 0
BBX 18 27 2 0
BITMAP
F1E000
F9F000
78F000
3C7800
1E3C00
070E00
000000
0003C0
3E3F80
3E7FC0
1FFF80
1FFFC0
1FE000
1FC000
1F8000
1F8000
1F8000
1F0000
1F0000
1F0000
1F0000
1F0000
1F0000
1F0000
1F0000
1F0000
1F0000
ENDCHAR
STARTCHAR uni0212
ENCODING 530
SWIDTH 600 0
DWIDTH 22 0
BBX 20 30 2 0
BITMAP
008000
07F800
1FFC00
1E1E00
1C0E00
000000
FF8000
7FFF00
FFFF00
7FFFC0
7CFFC0
7C0FC0
7C07C0
7C07C0
7C07E0
7C0FC0
FFFF80
FFFF80
FFFE00
7FFC00
7CFC00
7C7E00
7C3F00
7C3F00
7C1F80
7C1F80
7C0FC0
7C07E0
7C07E0
7C03F0
ENDCHAR
STARTCHAR uni0213
ENCODING 531
SWIDTH 600 0
DWIDTH 22 0
BBX 16 27 3 0
BITMAP
0080
0FF0
0FF0
1FFC
3C3C
381C
0000
000F
F87F
7DFF
7DFF
7FFF
3F80
7F00
7E00
3E00
7C00
7C00
7C00
7C00
7C00
7C00
7C00
7C00
7C00
7C00
7C00
ENDCHAR
STARTCHAR uni0214
ENCODING 532
SWIDTH 600 0
DWIDTH 22 0
BBX 18 31 3 0
BITMAP
F1E000
F9F000
787800
3C3C00
0F1E00
070E00
000000
F80FC0
F80FC0
F80FC0
F80FC0
F80FC0
F80FC0
F80FC0
F80FC0
F80FC0
F80FC0
F80FC0
F80FC0
F80FC0
F80FC0
F80FC0
F81F80
F80F80
F80F80
7C1F00
7C3F80
3FFF00
3FFE00
3FFC00
07E000
ENDCHAR
STARTCHAR uni0215
ENCODING 533
SWIDTH 600 0
DWIDTH 22 0
BBX 18 27 2 0
BITMAP
F1E000
F9F000
78F000
3C7800
1E3C00
070E00
000000
000000
7C0F80
7C0F80
7C0F80
7C0F80
7C0F80
7C0F80
7C0F80
7C0F80
7C0F80
7C0F80
7C0F80
7C0F80
7C0FC0
7E1F80
7C1F80
7FFF80
3FFF80
3FC7C0
0787C0
ENDCHAR
STARTCHAR uni0216
ENCODING 534
SWIDTH 600 0
DWIDTH 22 0
BBX 17 30 3 0
BITMAP
008000
0FF800
1FFC00
3C3C00
381C00
000000
F81F00
F81F00
F81F00
F81F00
F81F00
F81F00
F81F00
F81F00
F81F00
F81F00
F81F00
F81F00
F81F00
F81F00
F81F00
F81F00
F81F00
F81F80
FC1F00
F87E00
FFFE00
7FFC00
7FF800
07E000
ENDCHAR
STARTCHAR uni0217
ENCODING 535
SWIDTH 600 0
DWIDTH 22 0
BBX 17 27 2 0
BITMAP
008000
07F800
07F800
1FFC00
1E1E00
1C0E00
000000
000000
F80F80
F80F80
F80F80
F80F80
F80F80
F80F80
F80F80
F80F80
F80F80
F80F80
F80F80
F80F80
7C0F80
FC1F80
7E1F80
7FFF80
7FEF80
3FCF80
0F0F80
ENDCHAR
STARTCHAR Scommaaccent
ENCODING 536
SWIDTH 600 0
DWIDTH 22 0
BBX 19 33 2 -8
BITMAP
004000
07FE00
1FFF00
3FFFC0
7FFFC0
7E0FC0
7C07C0
7C0000
FC0000
7E0000
7FE000
1FFE00
1FFF00
07FFC0
007FC0
003FE0
0007E0
0803E0
F803E0
FC07E0
FC07E0
7FFFC0
3FFF80
1FFF80
03F800
000000
00F000
00F000
00F000
00F000
003000
007000
00C000
ENDCHAR
STARTCHAR scommaaccent
ENCODING 537
SWIDTH 600 0
DWIDTH 22 0
BBX 17 28 3 -8
BITMAP
078000
1FFC00
3FFE00
7FFF00
7C3F00
F80E00
F80000
7F0000
7FF000
7FFC00
1FFC00
1FFF00
007F80
000F80
700F80
F80F80
F81F00
7FFF00
3FFC00
3FE000
000000
03C000
03C000
03C000
03C000
00C000
01C000
038000
ENDCHAR
STARTCHAR uni021A
ENCODING 538
SWIDTH 600 0
DWIDTH 22 0
BBX 19 31 2 -7
BITMAP
FFFFE0
FFFFE0
FFFFE0
FFFFE0
01F000
01F000
01F000
01F000
01F000
01F000
01F000
01F000
01F000
01F000
01F000
01F000
01F000
01F000
01F000
01F000
01F000
01F000
01F000
01F000
000000
01E000
01E000
01E000
007000
006000
00C000
ENDCHAR
STARTCHAR uni021B
ENCODING 539
SWIDTH 600 0
DWIDTH 22 0
BBX 16 32 3 -8
BITMAP
0780
0F00
0F00
0F80
1F00
FFFE
FFFE
FFFE
1F00
1F00
1F00
1F00
1F00
1F00
1F00
1F00
1F00
1F00
1F00
0F80
0FFF
0FFF
07FF
01FF
0000
01E0
01E0
01E0
01E0
0060
00E0
0180
ENDCHAR
STARTCHAR uni021C
ENCODING 540
SWIDTH 600 0
DWIDTH 22 0
BBX 20 31 1 -6
BITMAP
01C000
07FE00
1FFF80
7FFFC0
FFFFC0
7F87E0
1807E0
0003F0
0003F0
0003E0
0007C0
000FC0
007F80
00FF80
01FFC0
7FFFC0
3FE3E0
3F07E0
3803E0
0003E0
0003F0
0003E0
0007C0
000FC0
007F80
00FF80
00FF00
3FFC00
3FFC00
7F8000
7F8000
ENDCHAR
STARTCHAR uni021D
ENCODING 541
SWIDTH 600 0
DWIDTH 22 0
BBX 17 27 3 -7
BITMAP
008000
1FFC00
1FFC00
7FFF00
7C1F00
780F80
000F80
000F80
000F80
001F00
007E00
03FC00
7FFE00
FFFF00
7FFF00
F00F80
000F80
000F80
001F00
001F80
007F00
00FF00
03FC00
FFF800
FFE000
7F8000
7F8000
ENDCHAR
STARTCHAR uni021E
ENCODING 542
SWIDTH 600 0
DWIDTH 22 0
BBX 17 30 2 0
BITMAP
1E1E00
1F3C00
07F800
03F000
000000
000000
7C0F80
7C0F80
7C0F80
7C0F80
7C0F80
7C0F80
7C0F80
7C0F80
7C0F80
FFFF80
FFFF80
FFFF80
FFFF80
7C0F80
7C0F80
7C0F80
7C0F80
7C0F80
7C0F80
7C0F80
7C0F80
7C0F80
7C0F80
7C0F80
ENDCHAR
STARTCHAR uni021F
ENCODING 543
SWIDTH 600 0
DWIDTH 22 0
BBX 17 30 3 0
BITMAP
1E1E00
0F3C00
07F800
03F000
000000
000000
F80000
F80000
F80000
F80000
F81000
F8FF00
F9FF00
FBFF80
FFFF80
7E1F80
7C0F80
7C0F80
F80F80
F80F80
F80F80
F80F80
F80F80
F80F80
F80F80
F80F80
F80F80
F80F80
F80F80
F80F80
ENDCHAR
STARTCHAR uni0220
ENCODING 544
SWIDTH 600 0
DWIDTH 22 0
BBX 18 32 2 -7
BITMAP
002000
7CFE00
7FFF00
7FFF00
7FFF80
FFFF80
7C1F80
7C1F80
7C0FC0
7C0FC0
7C0F80
7C0F80
7C0F80
7C0F80
7C0F80
7C0F80
7C0F80
7C0F80
7C0F80
7C0F80
7C0F80
7C0F80
7C0F80
7C0F80
7C0F80
000F80
000F80
000F80
000F80
000F80
000F80
000F80
ENDCHAR
STARTCHAR uni0221
ENCODING 545
SWIDTH 600 0
DWIDTH 22 0
BBX 20 34 2 -7
BITMAP
007800
007800
007800
007800
007800
007800
007800
187800
3E7800
7F7800
7FF800
FFF000
F8F800
F0F000
F0F000
F07800
F07800
F07800
F07800
F0F000
F0F000
F8F800
F0F800
FF7900
FF7FE0
3F7FE0
1E7FF0
007CF0
00F8F0
00FC70
01FCF0
03FFE0
01FFC0
0087C0
ENDCHAR
STARTCHAR uni0222
ENCODING 546
SWIDTH 600 0
DWIDTH 22 0
BBX 20 26 1 0
BITMAP
001000
001F00
009F80
1F9FC0
3F9FE0
7F87E0
7E03E0
7C03E0
7C03F0
3E03E0
3F07C0
3FFF80
07FE00
07FE00
3FFFE0
3E03E0
7C03E0
7C01F0
7C01F0
7C01F0
FC03E0
7E07E0
3FFFE0
1FFFC0
1FFF80
01FC00
ENDCHAR
STARTCHAR uni0223
ENCODING 547
SWIDTH 600 0
DWIDTH 22 0
BBX 20 25 1 0
BITMAP
020400
1E07C0
3F0FC0
3E03E0
7C03F0
7C03E0
7C03E0
7C03E0
3E03E0
3E07E0
1FFF80
07FF00
07FE00
3FFFC0
3E03E0
7C01F0
7C01F0
7C03F0
7C03F0
FC01F0
7E03F0
7F9FE0
1FFFC0
1FFF80
01FC00
ENDCHAR
STARTCHAR uni0224
ENCODING 548
SWIDTH 600 0
DWIDTH 22 0
BBX 20 28 2 -4
BITMAP
3FFFE0
3FFFE0
3FFFE0
7FFFC0
000FC0
001F80
003F00
007E00
007E00
00FC00
01F800
03F000
03F000
07E000
0FC000
0FC000
1F8000
3F0000
7E0000
7FFC00
7FFFC0
FFFFC0
FFFFE0
7FFFF0
0000F0
0000F0
0001E0
0001E0
ENDCHAR
STARTCHAR uni0225
ENCODING 549
SWIDTH 600 0
DWIDTH 22 0
BBX 18 23 2 -4
BITMAP
7FFF00
7FFF00
7FFF00
003F00
007E00
00FC00
01F800
01F800
03F000
07E000
0FC000
1F8000
3F0000
3F0000
7E0000
FFF000
7FFF80
7FFFC0
FFFFC0
0003C0
0003C0
0003C0
0003C0
ENDCHAR
STARTCHAR uni0226
ENCODING 550
SWIDTH 600 0
DWIDTH 22 0
BBX 21 29 1 0
BITMAP
00F800
00F800
00F800
000000
000000
01F800
01FC00
03FC00
03FC00
03DE00
03FE00
079E00
0F8F00
079F00
0F0F80
0F8F80
1F0F80
1F07C0
1F07C0
3FFFC0
3FFFC0
3FFFE0
7FFFE0
7C03E0
7C01F0
F801F0
F801F0
F800F8
F801F8
ENDCHAR
STARTCHAR uni0227
ENCODING 551
SWIDTH 600 0
DWIDTH 22 0
BBX 19 26 2 0
BITMAP
01F000
01F000
01F000
000000
000000
000000
004000
0FFE00
1FFE00
3FFF00
7E1F00
7C0F80
000F80
000F80
00FF80
1FFF80
3FFF00
7F0F80
FC0F80
7C0F80
7C1F80
7C1F80
7FFF80
7FEFE0
3FC7E0
0FC7C0
ENDCHAR
STARTCHAR uni0228
ENCODING 552
SWIDTH 600 0
DWIDTH 22 0
BBX 18 31 2 -7
BITMAP
FFFF80
FFFF80
FFFF80
FFFF80
7C0000
7C0000
7C0000
7C0000
7C0000
7C0000
FFFF00
FFFF00
FFFF00
FFFF00
7C0000
7C0000
7C0000
7C0000
7C0000
7C0000
FFFFC0
FFFFC0
FFFFC0
FFFFC0
007000
00E000
00F800
001E00
001C00
01FC00
01F800
ENDCHAR
STARTCHAR uni0229
ENCODING 553
SWIDTH 600 0
DWIDTH 22 0
BBX 19 27 2 -7
BITMAP
004000
07FE00
1FFF00
1FFF00
3E0F80
3E07C0
7C07C0
7C07C0
FFFFC0
7FFFE0
7FFFE0
7C0000
7C0000
FC0000
7C0300
3E07E0
3F8F80
1FFF80
0FFE00
03FE00
00E000
01C000
01F000
007800
003C00
03F800
03F000
ENDCHAR
STARTCHAR uni022A
ENCODING 554
SWIDTH 600 0
DWIDTH 22 0
BBX 20 33 1 0
BITMAP
07FF00
07FF00
07FF00
000000
070E00
070E00
070E00
000000
002000
03FE00
0FFF80
1FFFC0
1FFFC0
7FFFC0
3E07C0
7C03E0
FC03F0
7C03E0
7C03E0
7C03E0
7C03E0
7C03E0
7C03E0
7C03E0
FC03F0
7C07E0
3E03E0
3E07C0
3F0FC0
1FFFC0
1FFFC0
07FF00
01F800
ENDCHAR
STARTCHAR uni022B
ENCODING 555
SWIDTH 600 0
DWIDTH 22 0
BBX 19 30 2 0
BITMAP
0FFE00
0FFE00
0FFE00
000000
0F1E00
0F1E00
0F1E00
0F1E00
000000
000000
004000
0FFE00
1FFF00
1FFFC0
3FFFC0
7C0FC0
FC07C0
7C03E0
7C03E0
7C03E0
7C03E0
7C03E0
7C03E0
FC07C0
7C07E0
3E07C0
3FFF80
1FFF80
0FFE00
01F800
ENDCHAR
STARTCHAR uni022C
ENCODING 556
SWIDTH 600 0
DWIDTH 22 0
BBX 20 33 1 0
BITMAP
07FF00
07FF00
07FF00
010300
03C600
07FF00
067E00
000000
002000
03FE00
0FFF80
1FFFC0
1FFFC0
7FFFC0
3E07C0
7C03E0
FC03F0
7C03E0
7C03E0
7C03E0
7C03E0
7C03E0
7C03E0
7C03E0
FC03F0
7C07E0
3E03E0
3E07C0
3F0FC0
1FFFC0
1FFFC0
07FF00
01F800
ENDCHAR
STARTCHAR uni022D
ENCODING 557
SWIDTH 600 0
DWIDTH 22 0
BBX 19 30 2 0
BITMAP
0FFE00
0FFE00
0FFE00
000000
010300
07C600
0FFF00
1CFE00
0C7C00
000000
004000
0FFE00
1FFF00
1FFFC0
3FFFC0
7C0FC0
FC07C0
7C03E0
7C03E0
7C03E0
7C03E0
7C03E0
7C03E0
FC07C0
7C07E0
3E07C0
3FFF80
1FFF80
0FFE00
01F800
ENDCHAR
STARTCHAR uni022E
ENCODING 558
SWIDTH 600 0
DWIDTH 22 0
BBX 20 30 1 0
BITMAP
00F800
00F800
00F800
00F800
000000
002000
03FE00
0FFF80
1FFFC0
1FFFC0
7FFFC0
3E07C0
7C03E0
FC03F0
7C03E0
7C03E0
7C03E0
7C03E0
7C03E0
7C03E0
7C03E0
FC03F0
7C07E0
3E03E0
3E07C0
3F0FC0
1FFFC0
1FFFC0
07FF00
01F800
ENDCHAR
STARTCHAR uni022F
ENCODING 559
SWIDTH 600 0
DWIDTH 22 0
BBX 19 26 2 0
BITMAP
01F000
01F000
01F000
000000
000000
000000
004000
0FFE00
1FFF00
1FFFC0
3FFFC0
7C0FC0
FC07C0
7C03E0
7C03E0
7C03E0
7C03E0
7C03E0
7C03E0
FC07C0
7C07E0
3E07C0
3FFF80
1FFF80
0FFE00
01F800
ENDCHAR
STARTCHAR uni0230
ENCODING 560
SWIDTH 600 0
DWIDTH 22 0
BBX 20 33 1 0
BITMAP
07FF00
07FF00
07FF00
000000
00E000
00E000
00E000
000000
002000
03FE00
0FFF80
1FFFC0
1FFFC0
7FFFC0
3E07C0
7C03E0
FC03F0
7C03E0
7C03E0
7C03E0
7C03E0
7C03E0
7C03E0
7C03E0
FC03F0
7C07E0
3E03E0
3E07C0
3F0FC0
1FFFC0
1FFFC0
07FF00
01F800
ENDCHAR
STARTCHAR uni0231
ENCODING 561
SWIDTH 600 0
DWIDTH 22 0
BBX 19 30 2 0
BITMAP
0FFE00
0FFE00
0FFE00
000000
000000
01F000
01F000
01F000
000000
000000
004000
0FFE00
1FFF00
1FFFC0
3FFFC0
7C0FC0
FC07C0
7C03E0
7C03E0
7C03E0
7C03E0
7C03E0
7C03E0
FC07C0
7C07E0
3E07C0
3FFF80
1FFF80
0FFE00
01F800
ENDCHAR
STARTCHAR uni0232
ENCODING 562
SWIDTH 600 0
DWIDTH 22 0
BBX 20 29 1 0
BITMAP
07FF00
07FF00
07FF00
000000
000000
FC01F0
7C01F0
7C03E0
3E03E0
3E07C0
1F07C0
1F1F80
0F9F00
07DF00
07FE00
03FE00
03FC00
01FC00
00F800
00F800
00F800
00F800
00F800
00F800
00F800
00F800
00F800
00F800
00F800
ENDCHAR
STARTCHAR uni0233
ENCODING 563
SWIDTH 600 0
DWIDTH 22 0
BBX 20 32 1 -7
BITMAP
07FF00
07FF00
07FF00
000000
000000
000000
FC01F0
7C01F0
3E01F0
3E03E0
1F03E0
1F07C0
1F07C0
0F87C0
0F8F80
0F8F80
07CF80
03CF00
03FE00
03DE00
01FE00
01FC00
01FC00
00FC00
00F800
00F800
01F000
01F000
3FE000
1FE000
1FC000
1FC000
ENDCHAR
STARTCHAR uni0234
ENCODING 564
SWIDTH 600 0
DWIDTH 22 0
BBX 18 34 3 -7
BITMAP
3E0000
3E0000
3E0000
3E0000
3E0000
3E0000
3E0000
3E0000
3E0000
3E0000
3E0000
3E0000
3E0000
3E0000
3E0000
3E0000
3E0000
3E0000
3E0000
3E0000
3E0000
3E0000
3E0000
3E1000
3FFF00
3FFF00
3FFF80
3F87C0
3E03C0
7F83C0
FF87C0
FFFF80
73FF00
21FC00
ENDCHAR
STARTCHAR uni0235
ENCODING 565
SWIDTH 600 0
DWIDTH 22 0
BBX 20 27 2 -7
BITMAP
008000
F3F000
7FF000
7FF800
7FF800
F87800
78F800
787C00
787800
787800
787800
787800
787800
787800
787800
787800
787900
787FE0
787FE0
787FF0
007EF0
0078F0
00FCF0
01FCF0
01FFE0
00FFE0
004780
ENDCHAR
STARTCHAR uni0236
ENCODING 566
SWIDTH 600 0
DWIDTH 22 0
BBX 19 23 3 1
BITMAP
070000
0F0000
0F0000
0F0000
1F0000
FFFE00
FFFE00
FFFE00
1F0000
1F0000
1F0000
1F0000
1F0000
1F3800
1FFF80
1FFFC0
1FFFC0
1F83E0
3F03C0
3FC7C0
7FFFC0
7FFF80
30FF80
ENDCHAR
STARTCHAR uni0238
ENCODING 568
SWIDTH 600 0
DWIDTH 22 0
BBX 21 27 0 0
BITMAP
007000
007000
007000
007000
007000
007000
007000
0C7080
1F77E0
3FF7F0
7FF7F0
7FFFF8
78F878
787878
F07878
F07078
F07078
F07078
F07078
F07878
787878
787878
78F878
7FFFF0
3FF7F0
3F77E0
0E73C0
ENDCHAR
STARTCHAR uni0239
ENCODING 569
SWIDTH 600 0
DWIDTH 22 0
BBX 21 27 0 -7
BITMAP
040080
3F77E0
3FF7F0
7FFFF0
7FFFF8
78F878
787878
F07878
F07078
F07078
F07078
F07078
F07878
787878
787878
78F878
7DFFF0
7FF7F0
3F77E0
0F73C0
007000
007000
007000
007000
007000
007000
007000
ENDCHAR
STARTCHAR uni023A
ENCODING 570
SWIDTH 600 0
DWIDTH 22 0
BBX 22 28 0 -1
BITMAP
000070
000070
0000E0
00FCE0
00FFC0
00FFC0
01FF80
01EF80
01FF00
03CF00
07CF80
03DF80
079F80
07DFC0
0FBFC0
0FF3E0
0FF3E0
1FFFE0
1FFFE0
1FFFF0
3FFFF0
3F81F0
3F80F8
3F00F8
7E00F8
7E007C
FC00FC
1C0000
ENDCHAR
STARTCHAR uni023B
ENCODING 571
SWIDTH 600 0
DWIDTH 22 0
BBX 20 28 1 -1
BITMAP
0000E0
0001C0
01E1C0
07FF80
0FFF80
1FFF80
3FFFC0
3FEFC0
7E0FE0
7C1FC0
7E1C00
7C3800
7C3800
7C7000
7CE000
7CE000
7DC000
7DC000
FF8000
7F81F0
7F03E0
3F07E0
3F8FC0
1FFFC0
1FFF80
1FFF00
3FF800
700000
ENDCHAR
STARTCHAR uni023C
ENCODING 572
SWIDTH 600 0
DWIDTH 22 0
BBX 19 34 2 -7
BITMAP
0000E0
0001C0
0001C0
000380
000380
000700
000700
01FF00
07FE00
1FFF00
1FFF80
3FFF80
3E3FC0
7C7FC0
7E7000
7CE000
7CE000
7DC000
7DC000
7F8000
7F87C0
7F07C0
3F0F80
3FFF80
1FFF80
0FFE00
1FFC00
1C0000
380000
380000
700000
700000
E00000
E00000
ENDCHAR
STARTCHAR uni023D
ENCODING 573
SWIDTH 600 0
DWIDTH 22 0
BBX 19 24 1 0
BITMAP
1F0000
1F0000
1F0000
1F0000
1F0000
1F0000
1F0000
1F0000
1F0000
1F0000
FFFC00
FFFC00
FFFC00
1F0000
1F0000
1F0000
1F0000
1F0000
1F0000
1F0000
1FFFE0
1FFFE0
1FFFE0
1FFFE0
ENDCHAR
STARTCHAR uni023E
ENCODING 574
SWIDTH 600 0
DWIDTH 22 0
BBX 21 28 1 -1
BITMAP
000038
000070
000070
7FFFF0
7FFFF0
7FFFF0
7FFFF0
00FF00
00FF00
00FE00
01FC00
00FC00
00F800
00F800
00F800
00F800
00F800
01F800
03F800
03F800
07F800
0EF800
1CF800
1CF800
38F800
70F800
70F800
E00000
ENDCHAR
STARTCHAR uni023F
ENCODING 575
SWIDTH 600 0
DWIDTH 22 0
BBX 17 27 3 -7
BITMAP
078000
1FFC00
3FFE00
7FFF00
F81F00
F81C00
F80000
F80000
7F0000
7FFC00
1FFE00
1FFF00
007F80
001F00
200F80
F00F80
F81F00
FFFE00
7FFC00
3FE000
1F0000
1F0000
07C000
07FC00
03FC00
03FC00
00FC00
ENDCHAR
STARTCHAR uni0240
ENCODING 576
SWIDTH 600 0
DWIDTH 22 0
BBX 17 26 2 -7
BITMAP
7FFF00
7FFF00
7FFF00
003F00
007E00
00FC00
01F800
01F800
03F000
07E000
0FC000
1F8000
3F0000
3F0000
7E0000
FC0000
FF0000
7FC000
7FE000
07E000
01F800
00FC00
00FF80
007F80
003F80
001F80
ENDCHAR
STARTCHAR uni0241
ENCODING 577
SWIDTH 600 0
DWIDTH 22 0
BBX 21 26 1 0
BITMAP
004000
0FFE00
1FFF80
3FFFC0
7FFFE0
FC07E0
F803F0
F001F0
1001F8
0001F8
0001F8
0003F0
0001F0
0003E0
0007E0
000FE0
01FFC0
01FF80
01FF00
01F800
01F000
01F000
01F000
01F000
01F000
01F000
ENDCHAR
STARTCHAR uni0242
ENCODING 578
SWIDTH 600 0
DWIDTH 22 0
BBX 16 20 3 0
BITMAP
0080
1FF8
1FFC
7FFE
7CFE
7C3F
F81F
003F
003F
001F
003E
003E
03FE
03F8
03E0
03E0
03E0
03E0
03E0
03E0
ENDCHAR
STARTCHAR uni0243
ENCODING 579
SWIDTH 600 0
DWIDTH 22 0
BBX 22 24 0 0
BITMAP
1FF800
1FFFC0
1FFFE0
1FFFF0
3F0FF0
3F01F0
3F01F0
3F01F0
3F03E0
1FFFE0
1FFF80
1FFF00
1FFFF0
3F07F0
FFE1F8
FFE0F8
FFE0F8
FFE0FC
3F01F8
3F03F8
1FFFF8
1FFFF0
1FFFF0
1FFC00
ENDCHAR
STARTCHAR uni0244
ENCODING 580
SWIDTH 600 0
DWIDTH 22 0
BBX 21 24 0 0
BITMAP
3E03E0
3E03E0
3E03E0
3E03E0
3E03E0
3E03E0
3E03E0
3E03E0
3E03E0
FFFFF8
FFFFF8
FFFFF8
FFFFF8
3E03E0
3E03E0
1F03E0
1F03E0
1F07E0
1F83E0
1F0FC0
0FFFC0
0FFF80
0FFF00
00FC00
ENDCHAR
STARTCHAR uni0245
ENCODING 581
SWIDTH 600 0
DWIDTH 22 0
BBX 21 24 0 0
BITMAP
00FC00
01FC00
01FC00
01FE00
03FE00
03FF00
03FF00
03FF00
07CF80
07CF80
07CF80
0F8F80
0F87C0
0F87C0
1F07C0
1F03E0
1F03E0
1F03E0
3E01F0
3E03F0
3E01F0
7C00F8
FC01F8
7C00F8
ENDCHAR
STARTCHAR uni0246
ENCODING 582
SWIDTH 600 0
DWIDTH 22 0
BBX 18 28 2 -1
BITMAP
0001C0
0001C0
000380
FFFF80
FFFF80
FFFF80
FFFF80
7C0E00
7C1C00
7C1C00
7C3800
7C3800
7C7000
FFFF00
FFFF00
FFFF00
FFFF00
7DC000
7F8000
7F8000
FF0000
7F0000
FE0000
FFFFC0
FFFFC0
FFFFC0
FFFFC0
380000
ENDCHAR
STARTCHAR uni0247
ENCODING 583
SWIDTH 600 0
DWIDTH 22 0
BBX 19 34 1 -7
BITMAP
0000E0
0001C0
0001C0
000380
000380
000700
000700
003E00
03FE00
0FFF80
1FFFC0
3E1FC0
3E3FC0
7C73C0
7C73E0
7FFFE0
7FFFE0
7FFFE0
7DC000
7F8000
3F8000
3F8300
3F03E0
1F07C0
0FFF80
0FFF00
1FF800
1C0000
380000
380000
700000
700000
E00000
E00000
ENDCHAR
STARTCHAR uni0248
ENCODING 584
SWIDTH 600 0
DWIDTH 22 0
BBX 18 24 2 0
BITMAP
03FF00
03FF00
03FF00
03FF00
001F00
001F00
001F00
001F00
01FFC0
01FFC0
01FFC0
01FFC0
001F00
001F00
001F00
001F00
7C1F00
FC1F00
7E1F80
3E1F00
3FFF00
1FFE00
1FFC00
03F000
ENDCHAR
STARTCHAR uni0249
ENCODING 585
SWIDTH 600 0
DWIDTH 22 0
BBX 15 34 3 -7
BITMAP
00F8
00F8
00F8
00F8
0000
0000
0000
0000
3FF8
3FF8
3FF8
00F8
00F8
00F8
00F8
03FE
03FE
03FE
03FE
00F8
00F8
00F8
00F8
00F8
00F8
00F8
00F8
00F8
01F0
03F0
FFF0
FFF0
FFC0
FF80
ENDCHAR
STARTCHAR uni024A
ENCODING 586
SWIDTH 600 0
DWIDTH 22 0
BBX 22 32 1 -7
BITMAP
002000
07FCC0
0FFFC0
1FFFC0
1FFFC0
3FFFE0
3E07C0
7E07C0
7E07C0
7C07C0
7C07C0
7C07C0
7C07C0
7C07C0
7C07C0
7C07C0
FC07C0
7C07C0
7C07C0
3E07C0
3F0FE0
1FFFE0
1FFFE0
07FFE0
01FFE0
0007C0
0003E0
0003E0
0007FC
0003FC
0003FC
0000FC
ENDCHAR
STARTCHAR uni024B
ENCODING 587
SWIDTH 600 0
DWIDTH 22 0
BBX 21 27 2 -7
BITMAP
010000
1FE7C0
3FF7C0
3FFFC0
7F9FC0
7C0FC0
FC07C0
7C07C0
7C07C0
7C07C0
7C07C0
7C07C0
7C07C0
FC07C0
7C0FC0
7C0FC0
7FBFC0
3FFFC0
1FE7C0
07E7C0
0007C0
0007C0
0007E0
0007F8
0007F8
0003F8
0001F8
ENDCHAR
STARTCHAR uni024C
ENCODING 588
SWIDTH 600 0
DWIDTH 22 0
BBX 22 24 0 0
BITMAP
1FF000
1FFFE0
1FFFE0
3FFFF0
3F1FF0
3F01F8
3F00F8
3F00F8
3F01F0
3F03F0
7FFFF0
FFFFE0
7FFFC0
FFFF00
3F1F00
3F1F80
3F0FC0
3F07E0
3F07E0
3F03F0
3F03F0
3F01F8
3F00FC
3F00FC
ENDCHAR
STARTCHAR uni024D
ENCODING 589
SWIDTH 600 0
DWIDTH 22 0
BBX 17 20 2 0
BITMAP
000780
7C7F80
3EFF80
3FFF80
3FFF80
1FC000
1FC000
3F0000
1F0000
1F0000
FFC000
FFC000
FFC000
3E0000
3E0000
3E0000
3E0000
3E0000
3E0000
3E0000
ENDCHAR
STARTCHAR uni024E
ENCODING 590
SWIDTH 600 0
DWIDTH 22 0
BBX 22 24 0 0
BITMAP
7E00F8
3E01F8
FFFFFC
FFFFFC
FFFFFC
FFFFFC
0F87E0
07CF80
03EF80
03FF00
01FF00
01FE00
00FE00
007C00
007C00
007C00
007C00
007C00
007C00
007C00
007C00
007C00
007C00
007C00
ENDCHAR
STARTCHAR uni024F
ENCODING 591
SWIDTH 600 0
DWIDTH 22 0
BBX 21 26 1 -7
BITMAP
FC01F0
7C01F0
3E01F0
3E03E0
1F03E0
7FFFF8
7FFFF8
7FFFF8
0F8F80
0F8F80
07CF80
03CF00
03EF00
03DE00
01FE00
01FC00
01FC00
00FC00
00F800
00F800
01F000
01F000
3FE000
1FE000
1FC000
3F0000
ENDCHAR
STARTCHAR uni0250
ENCODING 592
SWIDTH 600 0
DWIDTH 22 0
BBX 19 20 1 0
BITMAP
300400
FC3F80
FE7FC0
7EFFE0
3FFFE0
1F83E0
1F03E0
1F03E0
1F03E0
1FFFC0
1FFF80
1FFE00
1F0000
1F0000
1F07C0
0F87E0
0F87C0
0FFF80
07FF00
00FC00
ENDCHAR
STARTCHAR uni0251
ENCODING 593
SWIDTH 600 0
DWIDTH 22 0
BBX 18 20 2 0
BITMAP
010000
1FE7C0
3FF7C0
3FFFC0
7FFFC0
7C0FC0
FC07C0
7C07C0
7C07C0
7C07C0
7C07C0
7C07C0
7C07C0
7C07C0
7C0FC0
7E0FC0
3FFFC0
3FF7C0
1FE7C0
07C7C0
ENDCHAR
STARTCHAR uni0252
ENCODING 594
SWIDTH 600 0
DWIDTH 22 0
BBX 18 20 2 0
BITMAP
002000
F8FE00
7FFF00
7FFF00
FFFF80
7E0F80
7C0F80
7C07C0
7C07C0
7C07C0
7C07C0
7C07C0
7C07C0
7C0F80
FC0F80
7E1F80
7FFF80
7FFF00
F9FE00
F87C00
ENDCHAR
STARTCHAR uni0253
ENCODING 595
SWIDTH 600 0
DWIDTH 22 0
BBX 18 27 2 0
BITMAP
0F0000
1FC000
3FC000
7FC000
7F0000
7C0000
7C0000
7C1000
7DFE00
7FFF00
7FFF00
FFFF80
7E0FC0
7C0F80
7C07C0
7C07C0
7C07C0
7C07C0
7C07C0
7C07C0
7C0F80
7E0F80
FE0F80
7FFF80
7FFF00
F9FE00
F9F800
ENDCHAR
STARTCHAR uni0254
ENCODING 596
SWIDTH 600 0
DWIDTH 22 0
BBX 18 20 2 0
BITMAP
008000
0FFE00
1FFE00
3FFF00
7C7F80
7C0F80
7C07C0
0007C0
0007C0
000FC0
000FC0
0007C0
0007C0
F807C0
7C0F80
7C1F80
3FFF80
3FFF00
0FFE00
07F000
ENDCHAR
STARTCHAR uni0255
ENCODING 597
SWIDTH 600 0
DWIDTH 22 0
BBX 19 21 2 -1
BITMAP
004000
0FFE00
1FFE00
1FFF80
3FCF80
3E07C0
7C07C0
7E0000
7C0000
7C7000
7DFF80
7FFFC0
7FFFE0
7FFFC0
3F03E0
7E07C0
7FFFC0
FFFF80
FFFF00
61F800
200000
ENDCHAR
STARTCHAR uni0256
ENCODING 598
SWIDTH 600 0
DWIDTH 22 0
BBX 22 34 2 -7
BITMAP
0007C0
0007C0
0007C0
0007C0
0007C0
0007C0
0007C0
0707C0
0FE7C0
3FF7C0
1FFFC0
3FFFC0
7C0FC0
FC07C0
7C07C0
7C07C0
7C07C0
7C07C0
7C07C0
7C07C0
FC07C0
7C0FC0
7C0FC0
3FFFC0
3FF7C0
1FE7C0
07C7C0
0007C0
0007C0
0007E0
0007FC
0003FC
0003FC
0000FC
ENDCHAR
STARTCHAR uni0257
ENCODING 599
SWIDTH 600 0
DWIDTH 22 0
BBX 21 27 2 0
BITMAP
0000E0
0003F8
0003F8
0007F8
0007F0
000FC0
0007C0
0707C0
0FE7C0
3FF7C0
1FFFC0
3FFFC0
7C0FC0
FC07C0
7C07C0
7C07C0
7C07C0
7C07C0
7C07C0
7C07C0
FC07C0
7C0FC0
7C0FC0
3FFFC0
3FF7C0
1FE7C0
07C7C0
ENDCHAR
STARTCHAR uni0258
ENCODING 600
SWIDTH 600 0
DWIDTH 22 0
BBX 19 20 2 0
BITMAP
03C000
0FFC00
1FFF00
1FFF80
3E0F80
7C0F80
7807C0
7C07C0
7FFFE0
7FFFE0
7FFFE0
0007C0
0007C0
0007C0
1807C0
FC0F80
3E3F80
3FFF00
0FFE00
0FF800
ENDCHAR
STARTCHAR uni0259
ENCODING 601
SWIDTH 600 0
DWIDTH 22 0
BBX 18 20 3 0
BITMAP
008000
1FFC00
7FFE00
FFFE00
FC1F80
381F80
000F80
000F80
000F80
FFFFC0
FFFFC0
FFFFC0
F80F80
F00F80
780F80
7C1F00
781F00
3FFE00
1FF800
07F800
ENDCHAR
STARTCHAR uni025A
ENCODING 602
SWIDTH 600 0
DWIDTH 22 0
BBX 22 20 1 0
BITMAP
020000
1FE000
3FE000
3FF800
7CF800
18F800
007F80
07FF80
1FFF80
FFFF80
7FFFF8
FC7BF8
7879FC
7879F8
787C00
787800
3FF000
3FF000
1FE000
0F8000
ENDCHAR
STARTCHAR uni025B
ENCODING 603
SWIDTH 600 0
DWIDTH 22 0
BBX 18 20 2 0
BITMAP
004000
0FFF00
1FFF80
3FFFC0
7E0F00
7C0200
7C0000
3F0000
1FF800
07F800
03F800
3FF800
7F0000
7C0000
7C0100
FC1F80
7E3FC0
3FFF80
3FFE00
07FC00
ENDCHAR
STARTCHAR uni025C
ENCODING 604
SWIDTH 600 0
DWIDTH 22 0
BBX 19 20 2 0
BITMAP
008000
3FFE00
7FFE00
FFFF80
3C0FC0
1007C0
000F80
001F80
07FF00
03FC00
07F000
03FF80
001FC0
0007C0
2007E0
7807C0
FF0FC0
3FFF80
0FFF00
07F800
ENDCHAR
STARTCHAR uni025D
ENCODING 605
SWIDTH 600 0
DWIDTH 22 0
BBX 21 20 1 0
BITMAP
070000
1FE000
3FF900
7FFF00
787F00
787F00
007F88
00FFF8
07F3F8
07C3F8
07C3E0
07F800
007C00
007C00
F07C00
F87C00
7CFC00
3FF800
3FF000
07C000
ENDCHAR
STARTCHAR uni025E
ENCODING 606
SWIDTH 600 0
DWIDTH 22 0
BBX 18 20 2 0
BITMAP
002000
0FFE00
1FFE00
1FFF80
7E0F80
3E07C0
7C07C0
7C0F80
7C7F00
7C7C00
F87800
7C7F80
7C0FC0
FC07C0
7C07C0
3E07C0
3F8F80
1FFF80
07FF00
01FE00
ENDCHAR
STARTCHAR uni025F
ENCODING 607
SWIDTH 600 0
DWIDTH 22 0
BBX 19 26 2 -7
BITMAP
007C00
007C00
007C00
007C00
007C00
007C00
007C00
007C00
007C00
007C00
007C00
007C00
007C00
007C00
007C00
7FFFE0
7FFFE0
7FFFE0
7FFFE0
007C00
007C00
00F800
80FC00
7FF800
7FF000
7FF000
ENDCHAR
STARTCHAR uni0260
ENCODING 608
SWIDTH 600 0
DWIDTH 22 0
BBX 21 34 2 -7
BITMAP
0000E0
0003F8
0003F8
0007F8
0007F0
0007E0
0007C0
0707C0
0FE7C0
3FF7C0
3FFFC0
3FFFC0
7E0FC0
FC07C0
7C07C0
7C07C0
7C07C0
7C07C0
7C07C0
7C07C0
FC07C0
7C0FC0
3F1FC0
3FFFC0
3FE7C0
0FE7C0
0007C0
0007C0
040F80
7C0F80
3F0F80
3FFF00
1FFE00
1FF800
ENDCHAR
STARTCHAR uni0261
ENCODING 609
SWIDTH 600 0
DWIDTH 22 0
BBX 18 27 2 -7
BITMAP
070000
0FE7C0
3FF7C0
3FFFC0
3FFFC0
7E0FC0
FC07C0
7C07C0
7C07C0
7C07C0
7C07C0
7C07C0
7C07C0
FC07C0
7C0FC0
3F1FC0
3FFFC0
3FE7C0
0FE7C0
0007C0
0007C0
040F80
7C0F80
3F0F80
3FFF00
1FFE00
1FF800
ENDCHAR
STARTCHAR uni0262
ENCODING 610
SWIDTH 600 0
DWIDTH 22 0
BBX 18 20 3 0
BITMAP
008000
1FFC00
3FFC00
3FFF00
7FFF80
F81F80
FC0C00
F80000
F80000
F80000
F87F80
F87F80
F87F80
FC0F80
F80F80
7C0F80
7FFF80
3FFFC0
1FFF80
03FE00
ENDCHAR
STARTCHAR uni0263
ENCODING 611
SWIDTH 600 0
DWIDTH 22 0
BBX 19 26 2 -7
BITMAP
FC03E0
F807C0
7C07C0
7C0F80
3E0F80
3E1F00
1F1F00
1F3E00
0FBE00
0FBE00
07FC00
07F800
07F800
03F800
03F800
07F800
07F800
07BE00
0F1E00
1F3E00
0F1F00
0F1F00
0FBE00
0FFC00
07FC00
07FC00
ENDCHAR
STARTCHAR uni0264
ENCODING 612
SWIDTH 600 0
DWIDTH 22 0
BBX 21 20 1 0
BITMAP
080080
FF07F0
FF8FF8
FFDFF0
7FDFF0
83FE10
03FC00
01FC00
01F800
01F800
01FC00
03FC00
03DE00
079E00
0F8F00
078F00
07FF00
07FE00
03FE00
00F800
ENDCHAR
STARTCHAR uni0265
ENCODING 613
SWIDTH 600 0
DWIDTH 22 0
BBX 18 26 2 -7
BITMAP
F80F80
F80F80
F80F80
F80F80
F80F80
F80F80
F80F80
F80F80
F80F80
F80F80
F80F80
F80F80
7C0FC0
7C1F80
FC1F80
7FFF80
3FFF80
3FEF80
0FCF80
000F80
000F80
000F80
000F80
000F80
000F80
000F80
ENDCHAR
STARTCHAR uni0266
ENCODING 614
SWIDTH 600 0
DWIDTH 22 0
BBX 17 27 3 0
BITMAP
0F0000
3F8000
3FC000
7FC000
7F0000
7C0000
F80000
F81000
F8FF00
F9FF00
FBFF80
FFFF80
7E1F80
7C0F80
7C0F80
F80F80
F80F80
F80F80
F80F80
F80F80
F80F80
F80F80
F80F80
F80F80
F80F80
F80F80
F80F80
ENDCHAR
STARTCHAR uni0267
ENCODING 615
SWIDTH 600 0
DWIDTH 22 0
BBX 18 34 3 -7
BITMAP
0F0000
3F8000
3FC000
7FC000
7F0000
7C0000
F80000
F81000
F8FF00
F9FF00
FBFF80
FFFF80
7E1F80
7C0F80
7C0F80
F80F80
F80F80
F80F80
F80F80
F80F80
F80F80
F80F80
F80F80
F80F80
F80F80
F80F80
F80F80
000F80
000F80
000FC0
00FF80
00FF00
00FF00
00FC00
ENDCHAR
STARTCHAR uni0268
ENCODING 616
SWIDTH 600 0
DWIDTH 22 0
BBX 18 27 3 0
BITMAP
03E000
03E000
03E000
03E000
000000
000000
000000
000000
7FE000
7FE000
7FE000
03E000
03E000
03E000
03E000
3FFE00
3FFE00
3FFE00
3FFE00
03E000
03E000
03E000
03E000
FFFFC0
FFFFC0
FFFFC0
FFFFC0
ENDCHAR
STARTCHAR uni0269
ENCODING 617
SWIDTH 600 0
DWIDTH 22 0
BBX 16 19 2 0
BITMAP
FFC0
FFC0
FFC0
07C0
07C0
07C0
07C0
07C0
07C0
07C0
07C0
07C0
07C0
03E0
03E1
03FF
03FF
01FE
00FE
ENDCHAR
STARTCHAR uni026A
ENCODING 618
SWIDTH 600 0
DWIDTH 22 0
BBX 16 19 4 0
BITMAP
FFFF
FFFF
FFFF
FFFF
07C0
07C0
07C0
07C0
07C0
07C0
07C0
07C0
07C0
07C0
07C0
FFFF
FFFF
FFFF
FFFF
ENDCHAR
STARTCHAR uni026B
ENCODING 619
SWIDTH 600 0
DWIDTH 22 0
BBX 18 27 3 0
BITMAP
7FE000
7FE000
7FE000
7FE000
03E000
03E000
03E000
03E000
03E000
03E000
03E000
03E600
0FF600
1FFC00
1FFC00
03FC00
03E000
03E000
03E000
03E000
03E000
03E000
03E000
FFFFC0
FFFFC0
FFFFC0
FFFFC0
ENDCHAR
STARTCHAR uni026C
ENCODING 620
SWIDTH 600 0
DWIDTH 22 0
BBX 18 27 3 0
BITMAP
7FE000
7FE000
7FE000
7FE000
03E000
03E000
03E000
03E000
03E000
03E000
1FF000
3FF000
7FE000
73E000
3BE000
3FFC00
3FF800
1FFC00
03E000
03E000
03E000
03E000
03E000
FFFFC0
FFFFC0
FFFFC0
FFFFC0
ENDCHAR
STARTCHAR uni026D
ENCODING 621
SWIDTH 600 0
DWIDTH 22 0
BBX 14 34 5 -7
BITMAP
FFC0
FFC0
FFC0
FFC0
07C0
07C0
07C0
07C0
07C0
07C0
07C0
07C0
07C0
07C0
07C0
07C0
07C0
07C0
07C0
07C0
07C0
07C0
07C0
07C0
07C0
07C0
07C0
07C0
07C0
07C0
07FC
07F8
03FC
00FC
ENDCHAR
STARTCHAR uni026E
ENCODING 622
SWIDTH 600 0
DWIDTH 22 0
BBX 19 34 2 -7
BITMAP
F80000
F80000
F80000
F80000
F80000
F80000
F80000
F80000
7FFFC0
7FFFC0
7FFFC0
F80F80
F80F80
F81F00
F87E00
F87C00
F8F800
F8F800
F8FF00
F8FF80
F9FF80
F8FFC0
F807E0
F803E0
F803E0
F803E0
F803E0
0003E0
0407C0
7C07C0
7F1F80
3FFF00
0FFF80
0FF800
ENDCHAR
STARTCHAR uni026F
ENCODING 623
SWIDTH 600 0
DWIDTH 22 0
BBX 20 19 1 0
BITMAP
F0F1E0
F0F1E0
F0F1E0
F0F1E0
F0F1E0
F0F1E0
F0F1E0
F0F1E0
F0F1E0
F0F1E0
F0F1E0
F0F1E0
78F1E0
79F1E0
79F1F0
79F3F0
7F7FF0
7E7CF0
1E7CF0
ENDCHAR
STARTCHAR uni0270
ENCODING 624
SWIDTH 600 0
DWIDTH 22 0
BBX 20 26 1 -7
BITMAP
F0F1E0
F0F1E0
F0F1E0
F0F1E0
F0F1E0
F0F1E0
F0F1E0
F0F1E0
F0F1E0
F0F1E0
F0F1E0
F0F1E0
78F1E0
79F1E0
79F1F0
79F3F0
7F7FF0
7E7CF0
1E7CF0
0000F0
0000F0
0000F0
0000F0
0000F0
0000F0
0000F0
ENDCHAR
STARTCHAR uni0271
ENCODING 625
SWIDTH 600 0
DWIDTH 22 0
BBX 20 27 1 -7
BITMAP
008100
F3E7C0
FFEFE0
FDFFF0
F8F9E0
F8F9E0
78F0F0
78F0F0
78F0F0
78F0F0
78F0F0
78F0F0
78F0F0
78F0F0
78F0F0
78F0F0
78F0F0
78F0F0
78F0F0
78F0F0
0000F0
0000F0
0001E0
0017E0
001FE0
001FC0
001FC0
ENDCHAR
STARTCHAR uni0272
ENCODING 626
SWIDTH 600 0
DWIDTH 22 0
BBX 22 27 -2 -7
BITMAP
000100
0F8FF0
0FBFF0
0FBFF8
07FFF8
07E0FC
0FC0F8
07C0F8
07C0F8
07C0F8
07C0F8
07C0F8
07C0F8
07C0F8
07C0F8
07C0F8
07C0F8
07C0F8
07C0F8
07C0F8
07C000
07C000
0F8000
FF8000
7F8000
FF0000
7E0000
ENDCHAR
STARTCHAR uni0273
ENCODING 627
SWIDTH 600 0
DWIDTH 22 0
BBX 22 27 2 -7
BITMAP
001000
F8FF00
FBFF00
7FFF80
FFFF80
7E0FC0
FC0F80
7C07C0
7C07C0
7C07C0
7C07C0
7C07C0
7C07C0
7C07C0
7C07C0
7C07C0
7C07C0
7C07C0
7C07C0
7C07C0
0007C0
0007C0
0007C0
0007FC
0007F8
0003FC
0000FC
ENDCHAR
STARTCHAR uni0274
ENCODING 628
SWIDTH 600 0
DWIDTH 22 0
BBX 18 19 2 0
BITMAP
FC07C0
7E07C0
FE07C0
7F07C0
FF07C0
7F87C0
7BC7C0
7BC7C0
79E7C0
79E7C0
78F7C0
78F780
787F80
787F80
783F80
781FC0
781F80
780FC0
780F80
ENDCHAR
STARTCHAR uni0275
ENCODING 629
SWIDTH 600 0
DWIDTH 22 0
BBX 19 20 2 0
BITMAP
004000
0FFE00
1FFF00
1FFFC0
3FFFC0
7E0FC0
FC07C0
7C03E0
7FFFE0
7FFFE0
7FFFE0
7FFFE0
7C03E0
FC07C0
7C07E0
3E07C0
3FFF80
1FFF80
0FFE00
01F800
ENDCHAR
STARTCHAR uni0276
ENCODING 630
SWIDTH 600 0
DWIDTH 22 0
BBX 21 20 1 0
BITMAP
0E0000
1FFFF0
3FFFF0
3FFFF0
7FFC00
7C3E00
F83C00
F83C00
781FF0
781FF0
781FF0
781FF0
F83C00
F83C00
7C3E00
787C00
3FFFF8
3FFFF0
1FFFF0
07FFF0
ENDCHAR
STARTCHAR uni0277
ENCODING 631
SWIDTH 600 0
DWIDTH 22 0
BBX 20 20 1 0
BITMAP
002000
07FF00
1FFF80
1FFFC0
3FFFC0
7C03E0
7E03E0
7C01F0
F801F0
F8F1F0
F8F1F0
F8F1F0
F8F1F0
F8F1F0
7CF9F0
78F9F0
7FFFE0
3F9FE0
3F9F80
1F9F80
ENDCHAR
STARTCHAR uni0278
ENCODING 632
SWIDTH 600 0
DWIDTH 22 0
BBX 19 34 2 -7
BITMAP
00F000
00F000
00F000
00F000
00F000
00F000
00F000
00F000
0FFE00
1FFF00
3FFF80
3FFFC0
7CF7C0
7CF3E0
7CF3E0
F8F3E0
F8F3E0
F8F3E0
F8F3E0
7CF3E0
7CF3E0
7CF7C0
3EF7C0
3FFF80
3FFF80
0FFE00
01F800
00F000
00F000
00F000
00F000
00F000
00F000
00F000
ENDCHAR
STARTCHAR uni0279
ENCODING 633
SWIDTH 600 0
DWIDTH 22 0
BBX 16 19 3 0
BITMAP
003E
003E
003E
003E
003E
003E
003E
003E
003E
003F
007E
007E
00FE
00FE
83FF
FFFE
FF9F
FF1F
7F1F
ENDCHAR
STARTCHAR uni027A
ENCODING 634
SWIDTH 600 0
DWIDTH 22 0
BBX 16 27 3 0
BITMAP
003E
003E
003E
003E
003E
003E
003E
003E
003E
003E
003E
003E
003E
003E
003E
003E
003E
003F
007E
007E
00FE
00FE
83FF
FFFE
FF9F
FF1F
7F1F
ENDCHAR
STARTCHAR uni027B
ENCODING 635
SWIDTH 600 0
DWIDTH 22 0
BBX 19 26 3 -7
BITMAP
003E00
003E00
003E00
003E00
003E00
003E00
003E00
003E00
003E00
003F00
007E00
007E00
00FE00
00FE00
87FE00
FFFE00
FFBE00
FF3E00
7F3E00
003E00
003E00
001F00
003FE0
001FE0
001FE0
0007E0
ENDCHAR
STARTCHAR uni027C
ENCODING 636
SWIDTH 600 0
DWIDTH 22 0
BBX 16 27 3 -7
BITMAP
000F
F87F
7DFF
7DFF
7FFF
3F80
7F00
7E00
3E00
7C00
7C00
7C00
7C00
7C00
7C00
7C00
7C00
7C00
7C00
7C00
7C00
7C00
7C00
7C00
7C00
7C00
7C00
ENDCHAR
STARTCHAR uni027D
ENCODING 637
SWIDTH 600 0
DWIDTH 22 0
BBX 16 27 3 -7
BITMAP
000F
F87F
7DFF
7DFF
7FFF
3F80
7F00
7E00
3E00
7C00
7C00
7C00
7C00
7C00
7C00
7C00
7C00
7C00
7C00
7C00
7C00
7C00
3E00
3FE0
3FC0
1FE0
0FC0
ENDCHAR
STARTCHAR uni027E
ENCODING 638
SWIDTH 600 0
DWIDTH 22 0
BBX 16 20 4 0
BITMAP
01E0
0FFE
1FFE
1FFF
7FFE
7E00
7E00
7C00
7C00
F800
F800
F800
F800
F800
F800
F800
F800
F800
F800
F800
ENDCHAR
STARTCHAR uni027F
ENCODING 639
SWIDTH 600 0
DWIDTH 22 0
BBX 15 27 3 -7
BITMAP
0800
FFE0
7FF8
7FF8
FFFC
007E
003E
003E
003E
003E
003E
003E
003E
003E
003E
003E
003E
003E
003E
003E
003E
003E
003E
003E
003E
003E
003E
ENDCHAR
STARTCHAR uni0280
ENCODING 640
SWIDTH 600 0
DWIDTH 22 0
BBX 19 19 2 0
BITMAP
FF8000
FFFE00
7FFF80
F8FF80
F80F80
F80F80
F80F80
F81F80
FFFF00
FFFE00
FFF800
F87C00
F83E00
F83E00
F81F00
F80F80
F80F80
F807E0
F803E0
ENDCHAR
STARTCHAR uni0281
ENCODING 641
SWIDTH 600 0
DWIDTH 22 0
BBX 18 19 2 0
BITMAP
F807C0
7E07C0
3E07C0
3E07C0
3F07C0
0F87C0
0F87C0
07FFC0
07FFC0
3FFFC0
3F87C0
7C07C0
7C07C0
7C07C0
7C07C0
3FFFC0
3FFFC0
1FFFC0
007FC0
ENDCHAR
STARTCHAR uni0282
ENCODING 642
SWIDTH 600 0
DWIDTH 22 0
BBX 18 27 2 -7
BITMAP
03C000
0FFE00
1FFF00
3FFF80
3E1F80
7C0700
7C0000
7C0000
3F8000
3FFE00
0FFF00
0FFF80
003FC0
0007C0
3807C0
7C07C0
FC0F80
FFFF00
FFFE00
7FF800
780000
780000
F80000
FF8000
7F8000
7F8000
1F8000
ENDCHAR
STARTCHAR uni0283
ENCODING 643
SWIDTH 600 0
DWIDTH 22 0
BBX 14 34 4 -7
BITMAP
0070
01FC
03FC
07FC
07F0
07C0
07C0
07C0
07C0
07C0
07C0
07C0
07C0
07C0
07C0
07C0
07C0
07C0
07C0
07C0
07C0
07C0
07C0
07C0
07C0
07C0
07C0
07C0
07C0
07C0
FF80
7F80
FF00
FC00
ENDCHAR
STARTCHAR uni0284
ENCODING 644
SWIDTH 600 0
DWIDTH 22 0
BBX 14 34 4 -7
BITMAP
0070
01FC
03FC
07FC
07F0
07C0
07C0
07C0
07C0
07C0
07C0
07C0
07C0
07C0
07C0
07C0
07C0
07C0
07C0
07C0
07C0
07C0
07C0
7FF0
7FF0
7FF0
7FF0
07C0
07C0
07C0
FF80
7F80
FF00
FC00
ENDCHAR
STARTCHAR uni0285
ENCODING 645
SWIDTH 600 0
DWIDTH 22 0
BBX 15 27 4 -7
BITMAP
1000
7F00
FF00
FF80
1FC0
07C0
07C0
07C0
07C0
07C0
07C0
07C0
07C0
07C0
07C0
07C0
07C0
07C0
07C0
07C0
07C0
07C0
07C0
07FC
03FE
03FC
00FC
ENDCHAR
STARTCHAR uni0286
ENCODING 646
SWIDTH 600 0
DWIDTH 22 0
BBX 21 34 1 -7
BITMAP
0001C0
0003F8
0007F8
000FF8
000FE0
000F80
001F00
001F00
001F00
001F00
001F00
001F00
001F00
001F00
001F00
001F00
001F00
001F00
001F00
001F00
001F00
001F00
001F00
021F00
3FFF00
3FFF00
FFFF00
F87F00
781F00
783FC0
7C7FC0
3FFFE0
3FF380
0FC100
ENDCHAR
STARTCHAR uni0287
ENCODING 647
SWIDTH 600 0
DWIDTH 22 0
BBX 16 25 3 0
BITMAP
0C00
7FC0
7FF0
FFF0
01F8
00F8
00F8
00F8
00F8
00F8
00F8
00F8
00F8
00F8
00F8
00F8
7FFF
7FFF
7FFF
7FFF
00F0
00F0
00F0
00E0
00E0
ENDCHAR
STARTCHAR uni0288
ENCODING 648
SWIDTH 600 0
DWIDTH 22 0
BBX 16 31 3 -7
BITMAP
0780
0F00
0F00
0F80
1F00
FFFE
FFFE
FFFE
1F00
1F00
1F00
1F00
1F00
1F00
1F00
1F00
1F00
1F00
1F00
1F00
1F00
1F00
1F00
1F00
1F00
1F00
0F80
0FC1
0FFF
07FF
03FF
ENDCHAR
STARTCHAR uni0289
ENCODING 649
SWIDTH 600 0
DWIDTH 22 0
BBX 20 19 1 0
BITMAP
7C07C0
7C07C0
7C07C0
7C07C0
7C07C0
7C07C0
7C07C0
FFFFF0
FFFFF0
FFFFF0
7C07C0
7C07C0
7C07C0
3E0FC0
7E0FC0
3FFFC0
1FF7C0
3FE7C0
0787C0
ENDCHAR
STARTCHAR uni028A
ENCODING 650
SWIDTH 600 0
DWIDTH 22 0
BBX 20 19 1 0
BITMAP
7E07E0
FE07F0
7F0FE0
3E07C0
1E0780
1F0F80
3E07C0
7C03C0
7C03E0
7C03E0
7C03E0
7C03E0
7C03F0
7C03E0
3E07C0
7FFFC0
1FFF80
0FFE00
07FE00
ENDCHAR
STARTCHAR uni028B
ENCODING 651
SWIDTH 600 0
DWIDTH 22 0
BBX 18 20 2 0
BITMAP
007000
F8FE00
F8FF00
F8FF80
F83F80
F80F80
F807C0
F807C0
F807C0
F807C0
F807C0
F80F80
F80F80
7C0F80
7C0F80
7E1F00
7FFE00
3FFE00
3FF800
07E000
ENDCHAR
STARTCHAR uni028C
ENCODING 652
SWIDTH 600 0
DWIDTH 22 0
BBX 21 19 1 0
BITMAP
01FC00
01FE00
01FE00
03FE00
03FF00
07DF00
07DF00
07CF80
0F8F80
0F8F80
1F07C0
1F07C0
1F03E0
3E03E0
3E03E0
3E01F0
7C01F0
FC01F0
7C00F8
ENDCHAR
STARTCHAR uni028D
ENCODING 653
SWIDTH 600 0
DWIDTH 22 0
BBX 22 19 0 0
BITMAP
1F03C0
1F03E0
1F87E0
1F8FE0
1F87E0
3DCEF0
3DDEF0
3DCEF0
3CFCF0
3CFCF0
3C7CF0
3C7C78
787C78
787878
780078
780078
780078
78003C
F0003C
ENDCHAR
STARTCHAR uni028E
ENCODING 654
SWIDTH 600 0
DWIDTH 22 0
BBX 20 27 2 0
BITMAP
0001C0
001FC0
001FC0
007FC0
00FC00
01F800
01F000
01F000
03F000
03F000
07F800
07F800
07BC00
07BE00
0F3C00
0FBE00
1F1F00
1F1F00
1F1F00
3E0F80
3E0F80
7C07C0
7C07C0
7C07C0
F803E0
F803E0
F801F0
ENDCHAR
STARTCHAR uni028F
ENCODING 655
SWIDTH 600 0
DWIDTH 22 0
BBX 18 19 2 0
BITMAP
F807C0
7C07C0
7C0F80
3E0F80
1F1F00
1F3E00
0FBE00
07FC00
07F800
03F800
03F000
01F000
01F000
01F000
01F000
01F000
01F000
01F000
01F000
ENDCHAR
STARTCHAR uni0290
ENCODING 656
SWIDTH 600 0
DWIDTH 22 0
BBX 20 26 3 -7
BITMAP
FFFE00
FFFE00
FFFE00
007E00
00FC00
01F800
03F000
03F000
07E000
0FC000
1F8000
3F0000
7E0000
7E0000
FC0000
FFFF00
FFFF00
FFFF00
FFFF00
000F00
000F00
001F00
001FF0
000FF0
000FF0
0003F0
ENDCHAR
STARTCHAR uni0291
ENCODING 657
SWIDTH 600 0
DWIDTH 22 0
BBX 21 22 1 -3
BITMAP
7FFC00
7FFC00
7FFC00
007C00
00F800
01F000
01F000
03E000
07C000
0F8100
0F8FE0
1F1FF8
3E3FF0
3E3E78
7CF8F0
FFFFF0
7FFFF0
7FFFE0
FFFC00
03C000
03C000
008000
ENDCHAR
STARTCHAR uni0292
ENCODING 658
SWIDTH 600 0
DWIDTH 22 0
BBX 18 26 2 -7
BITMAP
7FFF80
7FFF80
7FFF80
001F80
003F00
007E00
00FC00
01F800
03F000
03E000
03FE00
07FF00
01FF00
000FC0
000FC0
0007C0
0007C0
0007C0
0007C0
F807C0
7C07C0
7C0F80
3E3F80
3FFF00
1FFF00
03F800
ENDCHAR
STARTCHAR uni0293
ENCODING 659
SWIDTH 600 0
DWIDTH 22 0
BBX 19 26 2 -7
BITMAP
7FFF80
7FFF80
7FFF80
001F80
003F00
007E00
00FC00
01F800
03F000
07C000
07FC00
07FF00
01FF00
001F80
000FC0
0107C0
3FF7C0
3FFFC0
7FFFC0
F9FF80
781F80
F80F80
7C7FC0
3FFFE0
1FFF80
0FE100
ENDCHAR
STARTCHAR uni0294
ENCODING 660
SWIDTH 600 0
DWIDTH 22 0
BBX 18 25 3 0
BITMAP
008000
1FF800
3FFE00
7FFE00
FFFF00
FFFF80
FC1F80
300F80
000F80
0007C0
0007C0
000F80
000FC0
001F80
001F00
03FF00
03FF00
03FC00
03F000
03E000
03E000
03E000
03E000
03E000
03E000
ENDCHAR
STARTCHAR uni0295
ENCODING 661
SWIDTH 600 0
DWIDTH 22 0
BBX 18 25 2 0
BITMAP
004000
07FE00
0FFF00
1FFFC0
3FFFC0
7FFFC0
7E0FC0
7C0300
7C0000
7C0000
7C0000
7C0000
FC0000
7E0000
3E0000
3FF000
3FF000
0FF000
01F800
01F000
01F000
01F000
01F000
01F000
01F000
ENDCHAR
STARTCHAR uni0296
ENCODING 662
SWIDTH 600 0
DWIDTH 22 0
BBX 19 24 2 0
BITMAP
01F000
01F000
01F000
01F000
01F000
01F000
01F000
01FF00
01FF80
037F80
000FC0
000FC0
0007C0
0007C0
0003E0
0003E0
0807C0
7C07C0
FC07C0
7C0F80
3FFF80
3FFF00
0FFE00
03F000
ENDCHAR
STARTCHAR uni0297
ENCODING 663
SWIDTH 600 0
DWIDTH 22 0
BBX 18 27 2 -7
BITMAP
004000
0FFC00
1FFE00
1FFF80
3FDF80
7C07C0
7C07C0
7C0000
7C0000
F80000
F80000
F80000
F80000
F80000
F80000
F80000
F80000
F80000
F80000
7C0000
7C07C0
7C07C0
7C0F80
3F0F80
1FFF80
0FFE00
03F800
ENDCHAR
STARTCHAR uni0298
ENCODING 664
SWIDTH 600 0
DWIDTH 22 0
BBX 20 24 1 0
BITMAP
002000
0FFF80
1FFFC0
1FFFC0
7FFFC0
3E07C0
7C03E0
FC03F0
7C03E0
7CFBE0
7CFBE0
7CFBE0
7CFBE0
7CFBE0
7C03E0
FC03F0
7C07E0
7C03E0
3E07C0
3F0FC0
1FFFC0
1FFFC0
07FF00
01F800
ENDCHAR
STARTCHAR uni0299
ENCODING 665
SWIDTH 600 0
DWIDTH 22 0
BBX 18 19 3 0
BITMAP
7FE000
7FFF00
FFFF80
F81F80
F80F80
F807C0
F80F80
7FFF80
7FFE00
FFFC00
F87F80
F80FC0
F807C0
F807C0
F80FC0
7FFFC0
7FFF80
FFFF00
FFE000
ENDCHAR
STARTCHAR uni029A
ENCODING 666
SWIDTH 600 0
DWIDTH 22 0
BBX 18 20 2 0
BITMAP
008000
1FFC00
1FFE00
3FFF00
7C0F80
7C0FC0
7C07C0
3E07C0
1FC7C0
07C7C0
0787C0
3FC7C0
7E07C0
7C07C0
7C0F80
FC0F80
7C7F00
3FFF00
1FFC00
0FE000
ENDCHAR
STARTCHAR uni029B
ENCODING 667
SWIDTH 600 0
DWIDTH 22 0
BBX 21 24 2 0
BITMAP
0000E0
0003F8
0007F8
0007F8
03C7C0
0FFFC0
1FFFC0
3FFFC0
7FFFC0
7C07C0
FC0600
F80000
F80000
F80000
F83FC0
F83FC0
F83FC0
FC07C0
FC07C0
7C07C0
3FFFC0
3FFFC0
0FFFC0
03F800
ENDCHAR
STARTCHAR uni029C
ENCODING 668
SWIDTH 600 0
DWIDTH 22 0
BBX 17 19 2 0
BITMAP
F80F80
F80F80
F80F80
F80F80
F80F80
F80F80
F80F80
FFFF80
FFFF80
FFFF80
F80F80
F80F80
F80F80
F80F80
F80F80
F80F80
F80F80
F80F80
F80F80
ENDCHAR
STARTCHAR uni029D
ENCODING 669
SWIDTH 600 0
DWIDTH 22 0
BBX 17 34 2 -7
BITMAP
007C00
007C00
007C00
007C00
000000
000000
000000
000000
1FFC00
1FFC00
1FFC00
007C00
007C00
007C00
007C00
007C00
007C00
007C00
007C00
007C00
007C00
007C00
007C00
01FF00
3FFF00
7FFF00
7E7F80
787C00
F07C00
787C00
7FFC00
7FF000
3FF000
0FC000
ENDCHAR
STARTCHAR uni029E
ENCODING 670
SWIDTH 600 0
DWIDTH 22 0
BBX 17 26 2 -7
BITMAP
F80F80
FC0F80
7C0F80
3F0F80
1F0F80
1F0F80
0F8F80
07DF80
07FF80
03FF80
03FF80
03EF80
07CF80
07CF80
0F8F80
1F0F80
7E0F80
7E0F80
F80F80
000F80
000F80
000F80
000F80
000F80
000F80
000F80
ENDCHAR
STARTCHAR uni029F
ENCODING 671
SWIDTH 600 0
DWIDTH 22 0
BBX 15 19 4 0
BITMAP
F800
F800
F800
F800
F800
F800
F800
F800
F800
F800
F800
F800
F800
F800
F800
7FFE
7FFE
7FFE
7FFE
ENDCHAR
STARTCHAR uni02A0
ENCODING 672
SWIDTH 600 0
DWIDTH 22 0
BBX 21 34 2 -7
BITMAP
0000E0
0003F8
0003F8
0007F8
0007E0
0007C0
0007C0
0107C0
1FE7C0
3FF7C0
3FFFC0
7F9FC0
7C0FC0
FC07C0
7C07C0
7C07C0
7C07C0
7C07C0
7C07C0
7C07C0
FC07C0
7C0FC0
7C0FC0
7FBFC0
3FFFC0
1FE7C0
07E7C0
0007C0
0007C0
0007C0
0007C0
0007C0
0007C0
0007C0
ENDCHAR
STARTCHAR uni02A1
ENCODING 673
SWIDTH 600 0
DWIDTH 22 0
BBX 18 25 3 0
BITMAP
008000
1FF800
3FFE00
7FFE00
FFFF00
FFFF80
FC1F80
300F80
000F80
0007C0
0007C0
000F80
000FC0
001F80
001F00
03FF00
03FF00
03FC00
03F000
FFFF80
FFFF80
FFFF80
FFFF80
03E000
03E000
ENDCHAR
STARTCHAR uni02A2
ENCODING 674
SWIDTH 600 0
DWIDTH 22 0
BBX 18 25 2 0
BITMAP
004000
07FE00
0FFF00
1FFFC0
3FFFC0
7FFFC0
7E0FC0
7C0300
7C0000
7C0000
7C0000
7C0000
FC0000
7E0000
3E0000
3FF000
3FF000
0FF000
01F800
7FFFC0
7FFFC0
7FFFC0
7FFFC0
01F000
01F000
ENDCHAR
STARTCHAR uni02A3
ENCODING 675
SWIDTH 600 0
DWIDTH 22 0
BBX 21 27 1 0
BITMAP
01E000
01E000
01E000
01E000
01E000
01E000
01E000
09E000
3EFFF0
3FFFF0
3FFFF0
7FE0F0
79E1E0
F1E1E0
F1E3C0
F1E3C0
F1E780
F1E780
F1EF00
F1EF00
F1FE00
79FE00
79FC00
7FFFF0
7FFFF0
3EFFF8
1CFFF8
ENDCHAR
STARTCHAR uni02A4
ENCODING 676
SWIDTH 600 0
DWIDTH 22 0
BBX 21 34 1 -7
BITMAP
00F000
00F000
00F000
00F000
00F000
00F000
00F000
04F000
3F7FF0
3FFFF0
3FFFF0
7FF0F0
79F1E0
78F1E0
78F3C0
F0F3C0
F0F780
F0F780
F0F7E0
F0FFE0
78F7F0
78FBF0
79F0F8
7FF0F0
7FF0F0
3FF0F0
0EF0F0
0000F0
0010F0
0078F0
0079E0
003FE0
001FE0
001F80
ENDCHAR
STARTCHAR uni02A5
ENCODING 677
SWIDTH 600 0
DWIDTH 22 0
BBX 20 30 2 -3
BITMAP
038000
038000
038000
038000
038000
038000
038000
138000
7FFF00
FFFF00
FFFF00
FF8700
E70E00
E39E00
E39C00
E39E00
E39C00
E3B880
E3B9E0
E3F3F0
E3FBF0
E3F760
F7E770
FFFFE0
7FFFE0
7FFFC0
3BFF00
001C00
001C00
001C00
ENDCHAR
STARTCHAR uni02A6
ENCODING 678
SWIDTH 600 0
DWIDTH 22 0
BBX 21 24 1 0
BITMAP
1C0000
1C0000
1E0000
3C0000
3C0200
FFFFC0
FFFFE0
7FFFF0
3CF0F0
3CF0C0
3CF000
3CF000
3CFC00
3C7FC0
3C3FF0
3C07F0
3C01F0
3C00F0
3C0078
3C00F0
3FFFF0
1FFFF0
1FFFC0
03FE00
ENDCHAR
STARTCHAR uni02A7
ENCODING 679
SWIDTH 600 0
DWIDTH 22 0
BBX 21 34 1 -7
BITMAP
0001C0
0007F0
0007F8
070FF8
0F1FC0
0F1F00
0F1F00
1F1F00
FFFF00
FFFF00
FFFF00
1F1F00
1F1F00
1F1F00
1F1F00
1F1F00
1F1F00
1F1F00
1F1F00
1F1F00
1F1F00
1F1F00
1F9F00
1FFF00
1FFF00
0FFF80
0FFF00
001F00
001F00
001F00
01FF00
03FE00
01FE00
01F800
ENDCHAR
STARTCHAR uni02A8
ENCODING 680
SWIDTH 600 0
DWIDTH 22 0
BBX 20 24 2 0
BITMAP
380000
380000
780000
780000
780400
FF7F80
FF7FC0
FF7FE0
79F9E0
79E1E0
79E1E0
79F000
7BE000
7BEE00
7BFFC0
7BFFE0
79FFF0
79FFE0
79F0F0
79F1E0
7FFFE0
3FFFE0
3FFFC0
3E0F00
ENDCHAR
STARTCHAR uni02A9
ENCODING 681
SWIDTH 600 0
DWIDTH 22 0
BBX 20 34 1 -7
BITMAP
060000
0F8000
1F0000
1F8000
3C0000
3C0000
3C0000
3C0100
FFE7C0
7FFFE0
FFFFE0
3CFFF0
3DF1E0
3CF0F0
3CF0F0
3CF0F0
3CF0F0
3CF0F0
3CF0F0
3CF0F0
3CF0F0
3CF0F0
3CF0F0
3CF0F0
3CF0F0
3CF0F0
3CF0F0
0000F0
0000F0
0000F0
0007E0
0007E0
0007E0
000780
ENDCHAR
STARTCHAR uni02AA
ENCODING 682
SWIDTH 600 0
DWIDTH 22 0
BBX 20 27 2 0
BITMAP
780000
780000
780000
780000
780000
780000
780000
783800
78FF80
78FFE0
79FFE0
7BC3E0
7BC180
7BC000
7BF000
79FF00
79FF00
787FC0
781FE0
780FF0
7801F0
7800F0
7E01E0
FF03E0
7FFFE0
7FFFC0
78FE00
ENDCHAR
STARTCHAR uni02AB
ENCODING 683
SWIDTH 600 0
DWIDTH 22 0
BBX 18 27 2 0
BITMAP
780000
780000
780000
780000
780000
780000
780000
780000
FFFF80
FFFF80
FFFF80
780F80
780F80
781E00
781E00
783E00
787800
787800
79F000
79E000
7BC000
7BC000
7FC000
FFFFC0
FFFFC0
FFFFC0
FFFFC0
ENDCHAR
STARTCHAR uni02AC
ENCODING 684
SWIDTH 600 0
DWIDTH 22 0
BBX 18 27 3 0
BITMAP
E1E1C0
E1E1C0
E3E380
E3F380
E3F380
777380
777700
773F00
773F00
7E3E00
3E1F00
3C1F00
3C1E00
000000
E1E1C0
E1E1C0
E3E380
E3F380
73F380
777380
777700
773F00
7E3F00
3E3E00
3E1F00
3C1E00
3C0E00
ENDCHAR
STARTCHAR uni02AD
ENCODING 685
SWIDTH 600 0
DWIDTH 22 0
BBX 15 27 4 0
BITMAP
FFFE
FFFE
FFFE
FFFE
F01E
F01E
F01E
F01E
F01E
0000
0000
0000
0000
0000
0000
0000
0000
0000
FFFE
FFFE
FFFE
FFFE
F01E
F01E
F01E
F01E
F01E
ENDCHAR
STARTCHAR uni02AE
ENCODING 686
SWIDTH 600 0
DWIDTH 22 0
BBX 21 27 1 -7
BITMAP
080000
7F00F8
7F80F8
FF80F8
9FC0F8
07C0F8
07C0F8
07C0F8
07C0F8
07C0F8
07C0F8
07C0F8
07C1F0
07C1F0
03E1F8
03E1F8
03FFF0
01FFF8
01FCF8
007CF8
0000F8
0000F8
0000F8
0000F8
0000F8
0000F8
0000F8
ENDCHAR
STARTCHAR uni02AF
ENCODING 687
SWIDTH 600 0
DWIDTH 22 0
BBX 23 27 0 -7
BITMAP
100000
7E03C0
7F03C0
FF03C0
9F83C0
0783C0
0783C0
0783C0
0783C0
0783C0
0783C0
0783C0
0F83C0
0F87C0
07C7C0
07C7C0
07FFC0
03FFC0
03FFC0
00F3C0
0003C0
0007C0
0003E0
0003FC
0003FC
0001FC
00007E
ENDCHAR
STARTCHAR uni02B0
ENCODING 688
SWIDTH 600 0
DWIDTH 22 0
BBX 12 18 6 9
BITMAP
E000
E000
E000
E000
E200
EFC0
FFC0
FFE0
F1E0
E0F0
E0F0
E0F0
E0F0
E0F0
E0F0
E0F0
E0F0
E0F0
ENDCHAR
STARTCHAR uni02B1
ENCODING 689
SWIDTH 600 0
DWIDTH 22 0
BBX 13 19 5 9
BITMAP
0800
3E00
7E00
F800
7000
7100
77E0
7FE0
7FF0
78F0
7078
7078
7078
7078
7078
7078
7078
7078
7078
ENDCHAR
STARTCHAR uni02B2
ENCODING 690
SWIDTH 600 0
DWIDTH 22 0
BBX 6 23 8 4
BITMAP
1C
1C
00
00
00
1C
1C
1C
1C
1C
1C
1C
1C
1C
1C
1C
1C
1C
1C
1C
3C
7C
F8
ENDCHAR
STARTCHAR uni02B3
ENCODING 691
SWIDTH 600 0
DWIDTH 22 0
BBX 9 14 7 9
BITMAP
0180
7700
7F00
7E00
7800
F000
7000
7000
7000
7000
7000
7000
7000
7000
ENDCHAR
STARTCHAR uni02B4
ENCODING 692
SWIDTH 600 0
DWIDTH 22 0
BBX 8 13 7 9
BITMAP
07
07
07
07
07
07
07
07
0F
0F
7F
F7
E7
ENDCHAR
STARTCHAR uni02B5
ENCODING 693
SWIDTH 600 0
DWIDTH 22 0
BBX 11 18 6 4
BITMAP
0700
0700
0700
0700
0700
0700
0700
0700
0F00
0F00
7F00
F700
E700
0700
0700
07E0
07C0
03E0
ENDCHAR
STARTCHAR uni02B6
ENCODING 694
SWIDTH 600 0
DWIDTH 22 0
BBX 13 13 4 9
BITMAP
7078
70F0
71E0
71E0
71C0
FF80
FFE0
73E0
7070
7070
70F0
FFE0
FFC0
ENDCHAR
STARTCHAR uni02B7
ENCODING 695
SWIDTH 600 0
DWIDTH 22 0
BBX 18 13 2 9
BITMAP
E1E1C0
F1F1C0
E1F1C0
E3F1C0
73F380
773B80
773B80
773B80
3E3F00
3F1F00
3E1F00
1E1E00
1E1E00
ENDCHAR
STARTCHAR uni02B8
ENCODING 696
SWIDTH 600 0
DWIDTH 22 0
BBX 13 18 5 4
BITMAP
F078
E0F0
7070
70E0
38E0
38E0
39C0
1DC0
1DC0
1F80
0F80
0F00
0F00
0700
0F00
0E00
FC00
7C00
ENDCHAR
STARTCHAR uni02B9
ENCODING 697
SWIDTH 600 0
DWIDTH 22 0
BBX 5 12 8 15
BITMAP
F8
F8
F8
F8
F8
78
78
78
78
78
78
78
ENDCHAR
STARTCHAR uni02BA
ENCODING 698
SWIDTH 600 0
DWIDTH 22 0
BBX 13 12 4 15
BITMAP
F8F8
F8F8
F8F8
F8F8
F8F8
78F8
7878
7878
7878
7878
7878
7878
ENDCHAR
STARTCHAR uni02BB
ENCODING 699
SWIDTH 600 0
DWIDTH 22 0
BBX 6 10 8 15
BITMAP
38
70
70
70
E0
7C
7C
7C
7C
7C
ENDCHAR
STARTCHAR uni02BC
ENCODING 700
SWIDTH 600 0
DWIDTH 22 0
BBX 6 10 8 15
BITMAP
7C
7C
7C
7C
1C
1C
38
38
38
F0
ENDCHAR
STARTCHAR uni02BD
ENCODING 701
SWIDTH 600 0
DWIDTH 22 0
BBX 6 10 8 15
BITMAP
7C
7C
7C
7C
E0
70
70
70
38
38
ENDCHAR
STARTCHAR uni02BE
ENCODING 702
SWIDTH 600 0
DWIDTH 22 0
BBX 4 6 9 21
BITMAP
E0
F0
F0
30
F0
70
ENDCHAR
STARTCHAR uni02BF
ENCODING 703
SWIDTH 600 0
DWIDTH 22 0
BBX 4 6 10 21
BITMAP
70
F0
F0
C0
F0
70
ENDCHAR
STARTCHAR uni02C0
ENCODING 704
SWIDTH 600 0
DWIDTH 22 0
BBX 11 17 6 9
BITMAP
0400
7F80
FF80
FFE0
F1E0
00E0
00E0
00E0
01C0
03C0
0FC0
0F80
0E00
0E00
0E00
0E00
0E00
ENDCHAR
STARTCHAR uni02C1
ENCODING 705
SWIDTH 600 0
DWIDTH 22 0
BBX 12 17 5 9
BITMAP
0E00
3FC0
3FE0
7FF0
78F0
7000
7000
7000
F000
7800
7F00
7F00
0F00
0F00
0F00
0F00
0F00
ENDCHAR
STARTCHAR uni02C2
ENCODING 706
SWIDTH 600 0
DWIDTH 22 0
BBX 19 19 2 3
BITMAP
000040
0003C0
000FE0
01FFC0
03FF80
0FFE00
7FF000
FF8000
7E0000
F00000
FC0000
7F8000
FFE000
1FFC00
03FF80
007FE0
001FC0
0003E0
0000C0
ENDCHAR
STARTCHAR uni02C3
ENCODING 707
SWIDTH 600 0
DWIDTH 22 0
BBX 19 19 2 3
BITMAP
400000
780000
FE0000
7FC000
3FF800
0FFE00
01FFC0
003FE0
000FC0
0001E0
0007E0
007FC0
00FFE0
07FF00
3FF800
7FE000
7F0000
F80000
600000
ENDCHAR
STARTCHAR uni02C4
ENCODING 708
SWIDTH 600 0
DWIDTH 22 0
BBX 19 18 2 4
BITMAP
03F000
03F800
07F800
07F800
07BC00
0F3C00
0F3C00
0F1E00
1E1E00
1E0F00
3C0F80
3C0F00
3C0780
780780
7803C0
F003C0
F003C0
F001E0
ENDCHAR
STARTCHAR uni02C5
ENCODING 709
SWIDTH 600 0
DWIDTH 22 0
BBX 19 18 2 4
BITMAP
F001E0
F003C0
7803C0
780780
780780
3C0780
3C0F00
3C0F00
1E0F00
1E1E00
0F1E00
1F3C00
0F3E00
07BC00
07F800
03F800
03F800
03F000
ENDCHAR
STARTCHAR circumflex
ENCODING 710
SWIDTH 600 0
DWIDTH 22 0
BBX 12 5 5 21
BITMAP
0F80
1FC0
7FC0
F0F0
E070
ENDCHAR
STARTCHAR caron
ENCODING 711
SWIDTH 600 0
DWIDTH 22 0
BBX 14 5 4 21
BITMAP
F03C
3CF0
3FE0
0FE0
07C0
ENDCHAR
STARTCHAR uni02C8
ENCODING 712
SWIDTH 600 0
DWIDTH 22 0
BBX 3 7 9 20
BITMAP
E0
E0
E0
E0
E0
E0
E0
ENDCHAR
STARTCHAR uni02C9
ENCODING 713
SWIDTH 600 0
DWIDTH 22 0
BBX 11 3 5 22
BITMAP
FFE0
FFE0
FFE0
ENDCHAR
STARTCHAR uni02CA
ENCODING 714
SWIDTH 600 0
DWIDTH 22 0
BBX 8 5 7 22
BITMAP
1F
1F
3C
78
F0
ENDCHAR
STARTCHAR uni02CB
ENCODING 715
SWIDTH 600 0
DWIDTH 22 0
BBX 8 5 7 22
BITMAP
F8
7C
3C
1E
07
ENDCHAR
STARTCHAR uni02CC
ENCODING 716
SWIDTH 600 0
DWIDTH 22 0
BBX 3 6 9 -7
BITMAP
E0
E0
E0
E0
E0
E0
ENDCHAR
STARTCHAR uni02CD
ENCODING 717
SWIDTH 600 0
DWIDTH 22 0
BBX 11 3 5 -5
BITMAP
FFE0
FFE0
FFE0
ENDCHAR
STARTCHAR uni02CE
ENCODING 718
SWIDTH 600 0
DWIDTH 22 0
BBX 7 5 8 -7
BITMAP
F8
7C
3C
1C
0E
ENDCHAR
STARTCHAR uni02CF
ENCODING 719
SWIDTH 600 0
DWIDTH 22 0
BBX 8 5 7 -7
BITMAP
1F
3C
3C
78
E0
ENDCHAR
STARTCHAR uni02D0
ENCODING 720
SWIDTH 600 0
DWIDTH 22 0
BBX 5 19 9 0
BITMAP
F8
F0
F0
70
60
00
00
00
00
00
00
00
00
60
70
F0
F0
F8
F8
ENDCHAR
STARTCHAR uni02D1
ENCODING 721
SWIDTH 600 0
DWIDTH 22 0
BBX 5 5 9 14
BITMAP
F8
F0
F0
70
60
ENDCHAR
STARTCHAR uni02D2
ENCODING 722
SWIDTH 600 0
DWIDTH 22 0
BBX 5 7 9 2
BITMAP
80
E0
F0
30
38
70
E0
ENDCHAR
STARTCHAR uni02D3
ENCODING 723
SWIDTH 600 0
DWIDTH 22 0
BBX 5 7 9 2
BITMAP
08
38
78
60
E0
70
38
ENDCHAR
STARTCHAR uni02D4
ENCODING 724
SWIDTH 600 0
DWIDTH 22 0
BBX 6 6 9 4
BITMAP
30
30
30
30
FC
FC
ENDCHAR
STARTCHAR uni02D5
ENCODING 725
SWIDTH 600 0
DWIDTH 22 0
BBX 6 6 9 4
BITMAP
FC
FC
FC
30
30
30
ENDCHAR
STARTCHAR uni02D6
ENCODING 726
SWIDTH 600 0
DWIDTH 22 0
BBX 6 6 9 4
BITMAP
30
30
FC
FC
FC
30
ENDCHAR
STARTCHAR uni02D7
ENCODING 727
SWIDTH 600 0
DWIDTH 22 0
BBX 11 4 6 5
BITMAP
FFE0
FFE0
FFE0
FFE0
ENDCHAR
STARTCHAR breve
ENCODING 728
SWIDTH 600 0
DWIDTH 22 0
BBX 13 5 5 21
BITMAP
E038
7878
7FF0
3FE0
0F80
ENDCHAR
STARTCHAR dotaccent
ENCODING 729
SWIDTH 600 0
DWIDTH 22 0
BBX 5 3 8 23
BITMAP
F8
F8
F8
ENDCHAR
STARTCHAR ring
ENCODING 730
SWIDTH 600 0
DWIDTH 22 0
BBX 9 7 7 21
BITMAP
0800
3F00
7F80
E380
6180
7F80
3F00
ENDCHAR
STARTCHAR ogonek
ENCODING 731
SWIDTH 600 0
DWIDTH 22 0
BBX 7 8 7 -7
BITMAP
1C
38
70
70
70
FE
7E
7E
ENDCHAR
STARTCHAR tilde
ENCODING 732
SWIDTH 600 0
DWIDTH 22 0
BBX 13 5 5 21
BITMAP
1838
7F38
FFF8
E7F8
C0F0
ENDCHAR
STARTCHAR hungarumlaut
ENCODING 733
SWIDTH 600 0
DWIDTH 22 0
BBX 16 5 0 21
BITMAP
0F9F
1F3C
3C78
78F0
E0E0
ENDCHAR
STARTCHAR uni02DE
ENCODING 734
SWIDTH 600 0
DWIDTH 22 0
BBX 11 8 6 7
BITMAP
3000
F800
F800
F800
3C40
3FE0
1FE0
1FE0
ENDCHAR
STARTCHAR uni02DF
ENCODING 735
SWIDTH 600 0
DWIDTH 22 0
BBX 12 12 6 15
BITMAP
4060
E0F0
F1E0
7BC0
3F80
1F00
1F00
3F80
7BC0
F1E0
E0F0
4060
ENDCHAR
STARTCHAR uni02E0
ENCODING 736
SWIDTH 600 0
DWIDTH 22 0
BBX 13 18 5 4
BITMAP
F078
7070
78E0
71E0
79C0
3BC0
1DC0
1F80
0F80
0F80
0F00
1F80
1DC0
39C0
39C0
39C0
1FC0
1F80
ENDCHAR
STARTCHAR uni02E1
ENCODING 737
SWIDTH 600 0
DWIDTH 22 0
BBX 3 18 10 9
BITMAP
E0
E0
E0
E0
E0
E0
E0
E0
E0
E0
E0
E0
E0
E0
E0
E0
E0
E0
ENDCHAR
STARTCHAR uni02E2
ENCODING 738
SWIDTH 600 0
DWIDTH 22 0
BBX 12 14 5 9
BITMAP
0200
3FC0
7FE0
78F0
7000
7C00
7E00
1FE0
1FF0
00F0
6070
F070
7FE0
1FE0
ENDCHAR
STARTCHAR uni02E3
ENCODING 739
SWIDTH 600 0
DWIDTH 22 0
BBX 13 13 5 9
BITMAP
F0F0
71E0
79E0
1DC0
1F80
0F80
0F80
1F80
1DC0
3DE0
71E0
70F0
F078
ENDCHAR
STARTCHAR uni02E4
ENCODING 740
SWIDTH 600 0
DWIDTH 22 0
BBX 12 17 5 9
BITMAP
0E00
3FC0
3FE0
7FF0
78F0
7000
7000
7000
F000
7800
7F00
7F00
0F00
0F00
0F00
0F00
0F00
ENDCHAR
STARTCHAR uni02E5
ENCODING 741
SWIDTH 600 0
DWIDTH 22 0
BBX 8 27 8 0
BITMAP
FF
FF
FF
07
07
07
07
07
07
07
07
07
07
07
07
07
07
07
07
07
07
07
07
07
07
07
07
ENDCHAR
STARTCHAR uni02E6
ENCODING 742
SWIDTH 600 0
DWIDTH 22 0
BBX 8 27 8 0
BITMAP
07
07
07
07
07
07
FF
FF
FF
07
07
07
07
07
07
07
07
07
07
07
07
07
07
07
07
07
07
ENDCHAR
STARTCHAR uni02E7
ENCODING 743
SWIDTH 600 0
DWIDTH 22 0
BBX 8 27 8 0
BITMAP
07
07
07
07
07
07
07
07
07
07
07
07
FF
FF
FF
07
07
07
07
07
07
07
07
07
07
07
07
ENDCHAR
STARTCHAR uni02E8
ENCODING 744
SWIDTH 600 0
DWIDTH 22 0
BBX 8 27 8 0
BITMAP
07
07
07
07
07
07
07
07
07
07
07
07
07
07
07
07
07
07
FF
FF
FF
07
07
07
07
07
07
ENDCHAR
STARTCHAR uni02E9
ENCODING 745
SWIDTH 600 0
DWIDTH 22 0
BBX 8 27 8 0
BITMAP
07
07
07
07
07
07
07
07
07
07
07
07
07
07
07
07
07
07
07
07
07
07
07
07
FF
FF
FF
ENDCHAR
STARTCHAR uni02EA
ENCODING 746
SWIDTH 600 0
DWIDTH 22 0
BBX 9 16 7 0
BITMAP
6000
6000
6000
6000
6000
6000
6000
6000
6000
6000
6000
6000
6000
6000
FF80
FF80
ENDCHAR
STARTCHAR uni02EB
ENCODING 747
SWIDTH 600 0
DWIDTH 22 0
BBX 9 16 7 0
BITMAP
6000
6000
6000
6000
6000
6000
6000
FF80
FF80
6000
6000
6000
6000
6000
6000
6000
ENDCHAR
STARTCHAR uni02EC
ENCODING 748
SWIDTH 600 0
DWIDTH 22 0
BBX 13 5 4 -9
BITMAP
F078
3CF0
3FE0
0FE0
07C0
ENDCHAR
STARTCHAR uni02ED
ENCODING 749
SWIDTH 600 0
DWIDTH 22 0
BBX 11 7 5 21
BITMAP
FFE0
FFE0
FFE0
0000
FFE0
FFE0
FFE0
ENDCHAR
STARTCHAR uni02EE
ENCODING 750
SWIDTH 600 0
DWIDTH 22 0
BBX 13 10 5 15
BITMAP
F8F8
F8F8
F8F8
F8F8
3838
3838
7038
7070
7070
E0E0
ENDCHAR
STARTCHAR uni02EF
ENCODING 751
SWIDTH 600 0
DWIDTH 22 0
BBX 6 5 3 -6
BITMAP
EC
6C
78
38
10
ENDCHAR
STARTCHAR uni02F0
ENCODING 752
SWIDTH 600 0
DWIDTH 22 0
BBX 6 5 3 -6
BITMAP
30
38
78
CC
CC
ENDCHAR
STARTCHAR uni02F1
ENCODING 753
SWIDTH 600 0
DWIDTH 22 0
BBX 6 7 3 -7
BITMAP
08
3C
70
E0
78
18
04
ENDCHAR
STARTCHAR uni02F2
ENCODING 754
SWIDTH 600 0
DWIDTH 22 0
BBX 6 7 3 -7
BITMAP
40
E0
78
3C
78
60
80
ENDCHAR
STARTCHAR uni02F3
ENCODING 755
SWIDTH 600 0
DWIDTH 22 0
BBX 7 7 3 -7
BITMAP
10
7C
66
C6
C6
7E
7C
ENDCHAR
STARTCHAR uni02F4
ENCODING 756
SWIDTH 600 0
DWIDTH 22 0
BBX 8 5 1 4
BITMAP
F8
7C
1E
1E
07
ENDCHAR
STARTCHAR uni02F5
ENCODING 757
SWIDTH 600 0
DWIDTH 22 0
BBX 16 5 -1 4
BITMAP
F9F0
7CF8
1E7C
1E3C
071C
ENDCHAR
STARTCHAR uni02F6
ENCODING 758
SWIDTH 600 0
DWIDTH 22 0
BBX 14 5 0 4
BITMAP
3E7C
7CF8
7DE0
F1E0
E380
ENDCHAR
STARTCHAR uni02F7
ENCODING 759
SWIDTH 600 0
DWIDTH 22 0
BBX 13 5 0 -6
BITMAP
0818
3E18
7FF8
E7F0
63E0
ENDCHAR
STARTCHAR uni02F8
ENCODING 760
SWIDTH 600 0
DWIDTH 22 0
BBX 5 19 4 8
BITMAP
F8
F8
F8
F8
F8
00
00
00
00
00
00
00
00
00
F8
F8
F8
F8
F8
ENDCHAR
STARTCHAR uni02F9
ENCODING 761
SWIDTH 600 0
DWIDTH 22 0
BBX 6 6 4 21
BITMAP
FC
FC
C0
C0
C0
C0
ENDCHAR
STARTCHAR uni02FA
ENCODING 762
SWIDTH 600 0
DWIDTH 22 0
BBX 6 6 4 21
BITMAP
FC
FC
0C
0C
0C
0C
ENDCHAR
STARTCHAR uni02FB
ENCODING 763
SWIDTH 600 0
DWIDTH 22 0
BBX 6 6 4 -7
BITMAP
C0
C0
C0
C0
FC
FC
ENDCHAR
STARTCHAR uni02FC
ENCODING 764
SWIDTH 600 0
DWIDTH 22 0
BBX 6 6 4 -7
BITMAP
0C
0C
0C
0C
FC
FC
ENDCHAR
STARTCHAR uni02FD
ENCODING 765
SWIDTH 600 0
DWIDTH 22 0
BBX 14 7 1 -7
BITMAP
E01C
E01C
E01C
E01C
7FFC
7FFC
7FFC
ENDCHAR
STARTCHAR uni02FE
ENCODING 766
SWIDTH 600 0
DWIDTH 22 0
BBX 14 7 1 -7
BITMAP
E000
E000
E000
E000
7FFC
7FFC
7FFC
ENDCHAR
STARTCHAR uni02FF
ENCODING 767
SWIDTH 600 0
DWIDTH 22 0
BBX 10 10 2 -7
BITMAP
3000
3000
6000
C000
FFC0
FFC0
6000
6000
3000
1800
ENDCHAR
STARTCHAR gravecomb
ENCODING 768
SWIDTH 0 0
DWIDTH 0 0
BBX 8 5 -10 28
BITMAP
F8
7C
1E
0F
0F
ENDCHAR
STARTCHAR acutecomb
ENCODING 769
SWIDTH 0 0
DWIDTH 0 0
BBX 7 5 -6 28
BITMAP
3E
7C
78
F0
E0
ENDCHAR
STARTCHAR uni0302
ENCODING 770
SWIDTH 0 0
DWIDTH 0 0
BBX 12 5 -1 21
BITMAP
0F80
1FC0
7FC0
F0F0
E070
ENDCHAR
STARTCHAR tildecomb
ENCODING 771
SWIDTH 0 0
DWIDTH 0 0
BBX 13 5 -16 28
BITMAP
0818
3E18
7FF8
E7F0
63E0
ENDCHAR
STARTCHAR uni0304
ENCODING 772
SWIDTH 0 0
DWIDTH 0 0
BBX 11 3 -5 24
BITMAP
FFE0
FFE0
FFE0
ENDCHAR
STARTCHAR uni0305
ENCODING 773
SWIDTH 0 0
DWIDTH 0 0
BBX 21 1 -11 29
BITMAP
FFFFF8
ENDCHAR
STARTCHAR uni0306
ENCODING 774
SWIDTH 0 0
DWIDTH 0 0
BBX 13 6 -6 21
BITMAP
E038
F070
7078
3FF0
3FE0
0300
ENDCHAR
STARTCHAR uni0307
ENCODING 775
SWIDTH 0 0
DWIDTH 0 0
BBX 5 3 -2 23
BITMAP
F8
F8
F8
ENDCHAR
STARTCHAR uni0308
ENCODING 776
SWIDTH 0 0
DWIDTH 0 0
BBX 12 4 -6 23
BITMAP
F0F0
F0F0
F0F0
F0F0
ENDCHAR
STARTCHAR hookabovecomb
ENCODING 777
SWIDTH 0 0
DWIDTH 0 0
BBX 9 6 -9 26
BITMAP
E000
FE00
1F80
0700
1F00
3800
ENDCHAR
STARTCHAR uni030A
ENCODING 778
SWIDTH 0 0
DWIDTH 0 0
BBX 7 6 -3 21
BITMAP
10
7C
66
C6
66
7C
ENDCHAR
STARTCHAR uni030B
ENCODING 779
SWIDTH 0 0
DWIDTH 0 0
BBX 16 6 -8 21
BITMAP
0F0F
1F1F
3E7C
3C78
70E0
E0E0
ENDCHAR
STARTCHAR uni030C
ENCODING 780
SWIDTH 0 0
DWIDTH 0 0
BBX 14 5 -2 21
BITMAP
F03C
3CF0
3FE0
0FE0
07C0
ENDCHAR
STARTCHAR uni030D
ENCODING 781
SWIDTH 0 0
DWIDTH 0 0
BBX 3 7 -1 20
BITMAP
E0
E0
E0
E0
E0
E0
E0
ENDCHAR
STARTCHAR uni030E
ENCODING 782
SWIDTH 0 0
DWIDTH 0 0
BBX 8 7 -4 20
BITMAP
E7
E7
E7
E7
E7
E7
E7
ENDCHAR
STARTCHAR uni030F
ENCODING 783
SWIDTH 0 0
DWIDTH 0 0
BBX 15 6 -7 21
BITMAP
F1E0
F9F0
78F0
3C78
1E3C
070E
ENDCHAR
STARTCHAR uni0310
ENCODING 784
SWIDTH 0 0
DWIDTH 0 0
BBX 13 9 -6 21
BITMAP
0F80
0F80
0F80
E038
7070
7070
3FF0
1FE0
0780
ENDCHAR
STARTCHAR uni0311
ENCODING 785
SWIDTH 0 0
DWIDTH 0 0
BBX 13 6 -6 21
BITMAP
0200
3FC0
3FC0
7FF0
78F0
E038
ENDCHAR
STARTCHAR uni0312
ENCODING 786
SWIDTH 0 0
DWIDTH 0 0
BBX 6 10 -3 15
BITMAP
38
70
70
70
E0
7C
7C
7C
7C
7C
ENDCHAR
STARTCHAR uni0313
ENCODING 787
SWIDTH 0 0
DWIDTH 0 0
BBX 6 10 -3 15
BITMAP
7C
7C
7C
7C
1C
1C
38
38
38
F0
ENDCHAR
STARTCHAR uni0314
ENCODING 788
SWIDTH 0 0
DWIDTH 0 0
BBX 6 10 -3 15
BITMAP
7C
7C
7C
7C
E0
70
70
70
38
38
ENDCHAR
STARTCHAR uni0315
ENCODING 789
SWIDTH 0 0
DWIDTH 0 0
BBX 6 10 0 15
BITMAP
7C
7C
7C
7C
1C
1C
38
38
38
F0
ENDCHAR
STARTCHAR uni0316
ENCODING 790
SWIDTH 0 0
DWIDTH 0 0
BBX 7 5 -3 -7
BITMAP
F8
7C
3C
1C
0E
ENDCHAR
STARTCHAR uni0317
ENCODING 791
SWIDTH 0 0
DWIDTH 0 0
BBX 8 5 -4 -7
BITMAP
1F
3C
3C
78
E0
ENDCHAR
STARTCHAR uni0318
ENCODING 792
SWIDTH 0 0
DWIDTH 0 0
BBX 6 6 -2 -7
BITMAP
0C
0C
FC
FC
0C
0C
ENDCHAR
STARTCHAR uni0319
ENCODING 793
SWIDTH 0 0
DWIDTH 0 0
BBX 6 6 -2 -7
BITMAP
C0
C0
FC
FC
C0
C0
ENDCHAR
STARTCHAR uni031A
ENCODING 794
SWIDTH 0 0
DWIDTH 0 0
BBX 13 8 -6 22
BITMAP
FFF8
FFF8
FFF8
0038
0038
0038
0038
0038
ENDCHAR
STARTCHAR uni031B
ENCODING 795
SWIDTH 0 0
DWIDTH 0 0
BBX 7 11 0 14
BITMAP
3E
3E
3E
3E
06
0C
0E
1C
3C
F8
60
ENDCHAR
STARTCHAR uni031C
ENCODING 796
SWIDTH 0 0
DWIDTH 0 0
BBX 4 7 -1 -7
BITMAP
10
70
F0
C0
C0
F0
70
ENDCHAR
STARTCHAR uni031D
ENCODING 797
SWIDTH 0 0
DWIDTH 0 0
BBX 6 6 -2 -7
BITMAP
30
30
30
30
FC
FC
ENDCHAR
STARTCHAR uni031E
ENCODING 798
SWIDTH 0 0
DWIDTH 0 0
BBX 6 6 -2 -7
BITMAP
FC
FC
30
30
30
30
ENDCHAR
STARTCHAR uni031F
ENCODING 799
SWIDTH 0 0
DWIDTH 0 0
BBX 6 6 -2 -7
BITMAP
30
30
FC
FC
30
30
ENDCHAR
STARTCHAR uni0320
ENCODING 800
SWIDTH 0 0
DWIDTH 0 0
BBX 15 4 -7 -5
BITMAP
FFFE
FFFE
FFFE
FFFE
ENDCHAR
STARTCHAR uni0321
ENCODING 801
SWIDTH 0 0
DWIDTH 0 0
BBX 10 9 -4 -7
BITMAP
07C0
07C0
07C0
07C0
0F80
FF80
7F80
FF00
7E00
ENDCHAR
STARTCHAR uni0322
ENCODING 802
SWIDTH 0 0
DWIDTH 0 0
BBX 10 9 0 -7
BITMAP
F800
F800
F800
F800
7C00
7FC0
7F80
3FC0
1F80
ENDCHAR
STARTCHAR dotbelowcomb
ENCODING 803
SWIDTH 0 0
DWIDTH 0 0
BBX 5 4 -2 -6
BITMAP
F8
F8
F8
F8
ENDCHAR
STARTCHAR uni0324
ENCODING 804
SWIDTH 0 0
DWIDTH 0 0
BBX 12 3 -6 -6
BITMAP
F0F0
F0F0
F0F0
ENDCHAR
STARTCHAR uni0325
ENCODING 805
SWIDTH 0 0
DWIDTH 0 0
BBX 7 7 -3 -7
BITMAP
10
7C
66
C6
C6
7E
7C
ENDCHAR
STARTCHAR uni0326
ENCODING 806
SWIDTH 0 0
DWIDTH 0 0
BBX 4 6 -1 -7
BITMAP
F0
F0
F0
30
60
60
ENDCHAR
STARTCHAR uni0327
ENCODING 807
SWIDTH 0 0
DWIDTH 0 0
BBX 10 7 -5 -7
BITMAP
3800
3F80
0FC0
01C0
83C0
7F80
FF00
ENDCHAR
STARTCHAR uni0328
ENCODING 808
SWIDTH 0 0
DWIDTH 0 0
BBX 7 8 -3 -7
BITMAP
1C
38
70
70
70
FE
7E
7E
ENDCHAR
STARTCHAR uni0329
ENCODING 809
SWIDTH 0 0
DWIDTH 0 0
BBX 3 6 -1 -7
BITMAP
E0
E0
E0
E0
E0
E0
ENDCHAR
STARTCHAR uni032A
ENCODING 810
SWIDTH 0 0
DWIDTH 0 0
BBX 14 7 -7 -7
BITMAP
7FFC
7FFC
7FFC
E01C
E01C
E01C
E01C
ENDCHAR
STARTCHAR uni032B
ENCODING 811
SWIDTH 0 0
DWIDTH 0 0
BBX 12 4 -6 -6
BITMAP
C630
E730
7FE0
7FE0
ENDCHAR
STARTCHAR uni032C
ENCODING 812
SWIDTH 0 0
DWIDTH 0 0
BBX 14 5 -6 -8
BITMAP
E03C
7878
3CF0
1FE0
0FC0
ENDCHAR
STARTCHAR uni032D
ENCODING 813
SWIDTH 0 0
DWIDTH 0 0
BBX 12 5 -5 -8
BITMAP
0F80
1FC0
7FC0
7FE0
F0F0
ENDCHAR
STARTCHAR uni032E
ENCODING 814
SWIDTH 0 0
DWIDTH 0 0
BBX 13 5 -6 -8
BITMAP
E038
7038
7FF0
3FF0
3FC0
ENDCHAR
STARTCHAR uni032F
ENCODING 815
SWIDTH 0 0
DWIDTH 0 0
BBX 13 5 -6 -7
BITMAP
0200
3FC0
7FF0
78F0
E038
ENDCHAR
STARTCHAR uni0330
ENCODING 816
SWIDTH 0 0
DWIDTH 0 0
BBX 13 5 -2 -6
BITMAP
1838
7E38
FFF8
F7F8
E3E0
ENDCHAR
STARTCHAR uni0331
ENCODING 817
SWIDTH 0 0
DWIDTH 0 0
BBX 11 3 -5 -5
BITMAP
FFE0
FFE0
FFE0
ENDCHAR
STARTCHAR uni0332
ENCODING 818
SWIDTH 0 0
DWIDTH 0 0
BBX 22 1 -10 -3
BITMAP
FFFFFC
ENDCHAR
STARTCHAR uni0333
ENCODING 819
SWIDTH 0 0
DWIDTH 0 0
BBX 11 10 -6 -13
BITMAP
FFE0
FFE0
FFE0
0000
0000
0000
FFE0
FFE0
FFE0
FFE0
ENDCHAR
STARTCHAR uni0334
ENCODING 820
SWIDTH 0 0
DWIDTH 0 0
BBX 13 5 -2 4
BITMAP
1838
7E38
FFF8
E7F8
C3E0
ENDCHAR
STARTCHAR uni0335
ENCODING 821
SWIDTH 0 0
DWIDTH 0 0
BBX 11 4 -5 5
BITMAP
FFE0
FFE0
FFE0
FFE0
ENDCHAR
STARTCHAR uni0336
ENCODING 822
SWIDTH 0 0
DWIDTH 0 0
BBX 20 4 -9 5
BITMAP
FFFFF0
FFFFF0
FFFFF0
FFFFF0
ENDCHAR
STARTCHAR uni0337
ENCODING 823
SWIDTH 0 0
DWIDTH 0 0
BBX 16 17 -7 0
BITMAP
0004
000E
001F
003E
007C
00F8
01F0
03E0
07C0
0F80
1F00
3E00
7C00
F800
F800
7000
2000
ENDCHAR
STARTCHAR uni0338
ENCODING 824
SWIDTH 0 0
DWIDTH 0 0
BBX 8 27 -3 0
BITMAP
0F
0F
0F
0F
0F
1E
1E
1E
1E
1E
1E
3C
3C
3C
3C
3C
78
78
78
78
78
F0
F0
F0
F0
F0
F0
ENDCHAR
STARTCHAR uni0339
ENCODING 825
SWIDTH 0 0
DWIDTH 0 0
BBX 4 7 -2 -7
BITMAP
80
E0
F0
30
30
F0
E0
ENDCHAR
STARTCHAR uni033A
ENCODING 826
SWIDTH 0 0
DWIDTH 0 0
BBX 14 7 -7 -7
BITMAP
E01C
E01C
E01C
E01C
7FFC
7FFC
7FFC
ENDCHAR
STARTCHAR uni033B
ENCODING 827
SWIDTH 0 0
DWIDTH 0 0
BBX 7 7 -3 -7
BITMAP
FE
FE
C6
C6
C6
FE
FE
ENDCHAR
STARTCHAR uni033C
ENCODING 828
SWIDTH 0 0
DWIDTH 0 0
BBX 12 4 -5 -6
BITMAP
20E0
7FE0
DF70
0C00
ENDCHAR
STARTCHAR uni033D
ENCODING 829
SWIDTH 0 0
DWIDTH 0 0
BBX 7 7 -3 21
BITMAP
44
EE
FC
78
7C
FC
CC
ENDCHAR
STARTCHAR uni033E
ENCODING 830
SWIDTH 0 0
DWIDTH 0 0
BBX 4 9 -2 20
BITMAP
70
F0
C0
60
60
30
70
70
E0
ENDCHAR
STARTCHAR uni033F
ENCODING 831
SWIDTH 0 0
DWIDTH 0 0
BBX 21 4 -10 28
BITMAP
FFFFF8
000000
000000
FFFFF8
ENDCHAR
STARTCHAR uni0340
ENCODING 832
SWIDTH 0 0
DWIDTH 0 0
BBX 8 5 -8 22
BITMAP
F8
7C
3C
1E
07
ENDCHAR
STARTCHAR uni0341
ENCODING 833
SWIDTH 0 0
DWIDTH 0 0
BBX 8 5 0 22
BITMAP
1F
1F
3C
78
F0
ENDCHAR
STARTCHAR uni0342
ENCODING 834
SWIDTH 0 0
DWIDTH 0 0
BBX 13 5 -6 21
BITMAP
3818
7E30
7FF0
E7F0
60F0
ENDCHAR
STARTCHAR uni0343
ENCODING 835
SWIDTH 0 0
DWIDTH 0 0
BBX 5 11 -2 16
BITMAP
F8
F8
F8
F8
F8
38
38
70
78
E0
E0
ENDCHAR
STARTCHAR uni0344
ENCODING 836
SWIDTH 0 0
DWIDTH 0 0
BBX 17 6 -8 21
BITMAP
01F000
01E000
F1E780
F1C780
F38780
030000
ENDCHAR
STARTCHAR uni0345
ENCODING 837
SWIDTH 0 0
DWIDTH 0 0
BBX 5 5 -2 -7
BITMAP
E0
E0
78
78
78
ENDCHAR
STARTCHAR uni0346
ENCODING 838
SWIDTH 0 0
DWIDTH 0 0
BBX 14 7 -7 21
BITMAP
7FFC
7FFC
7FFC
E01C
E01C
E01C
E01C
ENDCHAR
STARTCHAR uni0347
ENCODING 839
SWIDTH 0 0
DWIDTH 0 0
BBX 17 5 -8 -7
BITMAP
FFFF80
FFFF80
000000
FFFF80
FFFF80
ENDCHAR
STARTCHAR uni0348
ENCODING 840
SWIDTH 0 0
DWIDTH 0 0
BBX 7 6 -2 -7
BITMAP
CE
CE
CE
CE
CE
CE
ENDCHAR
STARTCHAR uni0349
ENCODING 841
SWIDTH 0 0
DWIDTH 0 0
BBX 6 6 -2 -7
BITMAP
FC
FC
0C
0C
0C
0C
ENDCHAR
STARTCHAR uni034A
ENCODING 842
SWIDTH 0 0
DWIDTH 0 0
BBX 13 7 -6 21
BITMAP
0100
0B98
3F18
7FF8
F7F0
E7F0
0C00
ENDCHAR
STARTCHAR uni034B
ENCODING 843
SWIDTH 0 0
DWIDTH 0 0
BBX 10 10 -4 23
BITMAP
1800
1800
1800
0000
78C0
FFC0
CF80
0000
1800
1800
ENDCHAR
STARTCHAR uni034C
ENCODING 844
SWIDTH 0 0
DWIDTH 0 0
BBX 13 10 -6 21
BITMAP
3818
7F30
7FF0
E1F0
0000
0818
3E18
7FF0
E7F0
60F0
ENDCHAR
STARTCHAR uni034D
ENCODING 845
SWIDTH 0 0
DWIDTH 0 0
BBX 9 7 -4 -7
BITMAP
4200
4200
C300
FF80
FF00
4200
4200
ENDCHAR
STARTCHAR uni034E
ENCODING 846
SWIDTH 0 0
DWIDTH 0 0
BBX 5 7 -2 -7
BITMAP
20
70
F8
30
30
30
30
ENDCHAR
STARTCHAR uni034F
ENCODING 847
SWIDTH 0 0
DWIDTH 0 0
BBX 27 27 -13 0
BITMAP
FC1F87E0
FC1F87E0
C0000060
C0000060
C0000060
C0248060
0036C000
01001000
01803000
00000000
02000400
C6000C60
C0000060
C4000460
C6000660
C0000060
02000400
06000C00
01001000
01803000
00208000
C034C060
C0060060
C0000060
C0000060
FC1F87E0
FC1F87E0
ENDCHAR
STARTCHAR uni0350
ENCODING 848
SWIDTH 0 0
DWIDTH 0 0
BBX 5 8 -3 20
BITMAP
80
C0
70
38
38
F0
C0
80
ENDCHAR
STARTCHAR uni0351
ENCODING 849
SWIDTH 0 0
DWIDTH 0 0
BBX 4 6 -1 21
BITMAP
70
F0
F0
C0
F0
70
ENDCHAR
STARTCHAR uni0352
ENCODING 850
SWIDTH 0 0
DWIDTH 0 0
BBX 12 9 -6 22
BITMAP
0200
3FC0
7FE0
70E0
E070
0F80
0F80
0F80
0F80
ENDCHAR
STARTCHAR uni0353
ENCODING 851
SWIDTH 0 0
DWIDTH 0 0
BBX 7 7 -3 -7
BITMAP
CC
EE
7C
38
7C
EE
44
ENDCHAR
STARTCHAR uni0354
ENCODING 852
SWIDTH 0 0
DWIDTH 0 0
BBX 6 7 -3 -7
BITMAP
08
3C
70
E0
78
18
04
ENDCHAR
STARTCHAR uni0355
ENCODING 853
SWIDTH 0 0
DWIDTH 0 0
BBX 6 7 -3 -7
BITMAP
40
E0
78
3C
78
60
80
ENDCHAR
STARTCHAR uni0356
ENCODING 854
SWIDTH 0 0
DWIDTH 0 0
BBX 12 7 -5 -7
BITMAP
4000
E0C0
78E0
3DE0
7B30
6330
8000
ENDCHAR
STARTCHAR uni0357
ENCODING 855
SWIDTH 0 0
DWIDTH 0 0
BBX 4 6 -2 21
BITMAP
E0
F0
F0
30
F0
70
ENDCHAR
STARTCHAR uni0358
ENCODING 856
SWIDTH 0 0
DWIDTH 0 0
BBX 3 3 5 21
BITMAP
E0
E0
E0
ENDCHAR
STARTCHAR uni0359
ENCODING 857
SWIDTH 0 0
DWIDTH 0 0
BBX 7 6 -3 -7
BITMAP
18
7A
FE
38
6C
24
ENDCHAR
STARTCHAR uni035A
ENCODING 858
SWIDTH 0 0
DWIDTH 0 0
BBX 13 7 -6 -7
BITMAP
1040
7FE0
6730
C618
C618
7FF0
7FE0
ENDCHAR
STARTCHAR uni035B
ENCODING 859
SWIDTH 0 0
DWIDTH 0 0
BBX 8 8 -4 21
BITMAP
30
30
60
7F
FE
06
06
0C
ENDCHAR
STARTCHAR uni035C
ENCODING 860
SWIDTH 0 0
DWIDTH 0 0
BBX 27 7 -2 -7
BITMAP
E00000E0
F00001C0
780003C0
3E000F80
1FFFFE00
0FFFFC00
00FFC000
ENDCHAR
STARTCHAR uni035D
ENCODING 861
SWIDTH 0 0
DWIDTH 0 0
BBX 27 7 -2 22
BITMAP
E00000E0
F00001C0
780003C0
3E000F80
1E000F00
0FFFFC00
01FFE000
ENDCHAR
STARTCHAR uni035E
ENCODING 862
SWIDTH 0 0
DWIDTH 0 0
BBX 21 2 -2 22
BITMAP
FFFFF8
FFFFF8
ENDCHAR
STARTCHAR uni035F
ENCODING 863
SWIDTH 0 0
DWIDTH 0 0
BBX 21 3 -2 -5
BITMAP
FFFFF8
FFFFF8
FFFFF8
ENDCHAR
STARTCHAR uni0360
ENCODING 864
SWIDTH 0 0
DWIDTH 0 0
BBX 27 6 -2 22
BITMAP
000000E0
040001E0
7FF801E0
FFFFFFC0
F3FFFF80
E007FE00
ENDCHAR
STARTCHAR uni0361
ENCODING 865
SWIDTH 0 0
DWIDTH 0 0
BBX 27 7 -2 22
BITMAP
00040000
03FFF000
0FFFFC00
3FFFFF00
3E000F80
F00003C0
F00000E0
ENDCHAR
STARTCHAR uni0362
ENCODING 866
SWIDTH 0 0
DWIDTH 0 0
BBX 20 7 -2 -7
BITMAP
000040
000040
000060
FFFFF0
FFFFE0
000040
000040
ENDCHAR
STARTCHAR uni0363
ENCODING 867
SWIDTH 0 0
DWIDTH 0 0
BBX 14 14 -6 9
BITMAP
0200
1FE0
3FE0
78F0
0070
0070
03F0
3FF0
7870
F0E0
70F0
78F0
7FFC
3E3C
ENDCHAR
STARTCHAR uni0364
ENCODING 868
SWIDTH 0 0
DWIDTH 0 0
BBX 12 14 -6 9
BITMAP
0200
3FC0
3FE0
78E0
7870
F070
FFF0
FFF0
F000
F000
7870
38F0
3FE0
0FC0
ENDCHAR
STARTCHAR uni0365
ENCODING 869
SWIDTH 0 0
DWIDTH 0 0
BBX 3 18 -1 9
BITMAP
E0
E0
00
00
00
E0
E0
E0
E0
E0
E0
E0
E0
E0
E0
E0
E0
E0
ENDCHAR
STARTCHAR uni0366
ENCODING 870
SWIDTH 0 0
DWIDTH 0 0
BBX 14 14 -6 9
BITMAP
0100
1FF0
3FF0
7FF8
7878
F03C
F03C
F038
F03C
7878
7878
38F0
3FF0
1FC0
ENDCHAR
STARTCHAR uni0367
ENCODING 871
SWIDTH 0 0
DWIDTH 0 0
BBX 13 13 -6 9
BITMAP
7078
7078
7078
7078
7078
7078
7078
7078
70F0
F0F0
7CF8
7F78
7E70
ENDCHAR
STARTCHAR uni0368
ENCODING 872
SWIDTH 0 0
DWIDTH 0 0
BBX 13 14 -6 9
BITMAP
0E00
1FE0
3FE0
7DF0
7878
F000
F000
F000
F000
F070
78F0
78E0
3FE0
0FE0
ENDCHAR
STARTCHAR uni0369
ENCODING 873
SWIDTH 0 0
DWIDTH 0 0
BBX 13 18 -6 9
BITMAP
0038
0038
0038
0038
0438
3F38
3FF8
7FF8
7878
F070
F038
7038
F038
F078
7878
7878
3FF8
1F38
ENDCHAR
STARTCHAR uni036A
ENCODING 874
SWIDTH 0 0
DWIDTH 0 0
BBX 12 18 -5 9
BITMAP
E000
E000
E000
E000
E200
EFC0
FFC0
FFE0
F1E0
E0F0
E0F0
E0F0
E0F0
E0F0
E0F0
E0F0
E0F0
E0F0
ENDCHAR
STARTCHAR uni036B
ENCODING 875
SWIDTH 0 0
DWIDTH 0 0
BBX 19 14 -9 9
BITMAP
010100
77CFC0
7FFFC0
7FFFE0
78F9E0
F0E1E0
70E1E0
70E1E0
70E1E0
70E1E0
70E1E0
70E1E0
70E1E0
70E1E0
ENDCHAR
STARTCHAR uni036C
ENCODING 876
SWIDTH 0 0
DWIDTH 0 0
BBX 9 14 -4 9
BITMAP
0180
7700
7F00
7E00
7800
F000
7000
7000
7000
7000
7000
7000
7000
7000
ENDCHAR
STARTCHAR uni036D
ENCODING 877
SWIDTH 0 0
DWIDTH 0 0
BBX 7 17 -3 9
BITMAP
30
38
38
70
FE
FE
70
70
70
70
70
70
70
70
78
7E
3E
ENDCHAR
STARTCHAR uni036E
ENCODING 878
SWIDTH 0 0
DWIDTH 0 0
BBX 12 13 -6 9
BITMAP
F070
E0F0
7070
78E0
71E0
38E0
3DC0
3BC0
1DC0
1F80
1F80
0F80
0F80
ENDCHAR
STARTCHAR uni036F
ENCODING 879
SWIDTH 0 0
DWIDTH 0 0
BBX 13 13 -6 9
BITMAP
F0F0
71E0
79E0
1DC0
1F80
0F80
0F80
1F80
1DC0
3DE0
71E0
70F0
F078
ENDCHAR
STARTCHAR uni0374
ENCODING 884
SWIDTH 0 0
DWIDTH 0 0
BBX 6 5 5 22
BITMAP
7C
7C
78
F0
E0
ENDCHAR
STARTCHAR uni0375
ENCODING 885
SWIDTH 0 0
DWIDTH 0 0
BBX 7 5 2 -7
BITMAP
0E
1E
3C
7C
F8
ENDCHAR
STARTCHAR uni037A
ENCODING 890
SWIDTH 0 0
DWIDTH 0 0
BBX 5 5 4 -7
BITMAP
E0
E0
78
78
78
ENDCHAR
STARTCHAR uni037B
ENCODING 891
SWIDTH 600 0
DWIDTH 22 0
BBX 18 20 2 0
BITMAP
008000
0FFE00
1FFE00
3FFF00
7C7F80
7C0F80
7C07C0
0007C0
0007C0
000FC0
000FC0
0007C0
0007C0
F807C0
7C0F80
7C1F80
3FFF80
3FFF00
0FFE00
07F000
ENDCHAR
STARTCHAR uni037C
ENCODING 892
SWIDTH 600 0
DWIDTH 22 0
BBX 18 20 2 0
BITMAP
004000
0FFE00
1FFE00
1FFF80
3FCFC0
7C07C0
FC07C0
7DF000
7DF000
7DF000
7DF000
7DF000
7C0000
FC07C0
7C07C0
7E0FC0
3FFF80
1FFF80
0FFC00
01FC00
ENDCHAR
STARTCHAR uni037D
ENCODING 893
SWIDTH 600 0
DWIDTH 22 0
BBX 18 20 2 0
BITMAP
008000
0FFE00
1FFE00
3FFF00
7C7F80
7C0F80
7C07C0
03E7C0
03E7C0
03EFC0
03EFC0
03E7C0
0007C0
F807C0
7C0F80
7C1F80
3FFF80
3FFF00
0FFE00
07F000
ENDCHAR
STARTCHAR semicolon.dup3
ENCODING 894
SWIDTH 600 0
DWIDTH 22 0
BBX 8 26 7 -6
BITMAP
3E
3E
3E
3E
3E
3E
00
00
00
00
00
00
00
00
1F
3E
3E
3E
7C
78
F8
78
F0
F0
F0
E0
ENDCHAR
STARTCHAR tonos
ENCODING 900
SWIDTH 600 0
DWIDTH 22 0
BBX 5 6 9 22
BITMAP
F8
F0
F0
F0
E0
C0
ENDCHAR
STARTCHAR dieresistonos
ENCODING 901
SWIDTH 600 0
DWIDTH 22 0
BBX 14 7 4 22
BITMAP
03C0
03C0
03C0
F7BC
F3BC
F73C
F63C
ENDCHAR
STARTCHAR Alphatonos
ENCODING 902
SWIDTH 600 0
DWIDTH 22 0
BBX 22 24 0 0
BITMAP
7CFC00
78FE00
79FE00
F1FE00
71EF00
61FF00
03CF00
07C780
03CF80
0787C0
07C7C0
0F87C0
0F83E0
0F83E0
1FFFE0
1FFFE0
1FFFF0
3FFFF0
3E01F0
3E00F8
7C00F8
7C00F8
7C007C
7C00FC
ENDCHAR
STARTCHAR anoteleia
ENCODING 903
SWIDTH 600 0
DWIDTH 22 0
BBX 5 5 9 8
BITMAP
F8
F8
F8
F8
F8
ENDCHAR
STARTCHAR Epsilontonos
ENCODING 904
SWIDTH 600 0
DWIDTH 22 0
BBX 22 24 -1 0
BITMAP
7DFFF8
79FFF8
79FFF8
F1FFF8
71F000
61F000
01F000
01F000
01F000
01F000
01FFF0
01FFF0
01FFF0
01FFF0
01F000
01F000
01F000
01F000
01F000
01F000
01FFFC
01FFFC
01FFFC
01FFFC
ENDCHAR
STARTCHAR Etatonos
ENCODING 905
SWIDTH 600 0
DWIDTH 22 0
BBX 22 24 -1 0
BITMAP
7DF07C
79F07C
79F07C
F1F07C
71F07C
61F07C
01F07C
01F07C
01F07C
01FFFC
01FFFC
01FFFC
01FFFC
01F07C
01F07C
01F07C
01F07C
01F07C
01F07C
01F07C
01F07C
01F07C
01F07C
01F07C
ENDCHAR
STARTCHAR Iotatonos
ENCODING 906
SWIDTH 600 0
DWIDTH 22 0
BBX 21 24 0 0
BITMAP
FFFFF8
F7FFF8
F7FFF8
E7FFF8
E01F00
C01F00
001F00
001F00
001F00
001F00
001F00
001F00
001F00
001F00
001F00
001F00
001F00
001F00
001F00
001F00
07FFF8
07FFF8
07FFF8
07FFF8
ENDCHAR
STARTCHAR Omicrontonos
ENCODING 908
SWIDTH 600 0
DWIDTH 22 0
BBX 23 25 -1 0
BITMAP
000400
7C3FC0
78FFE0
79FFF0
F1FFF0
73FFFC
67E07C
07E07C
07C07E
07C07C
07E07C
07E07C
07E07C
07E07C
07E07C
07C07C
07C07E
03E0FC
03E07C
03F0F8
03F1F8
01FFF0
01FFF0
007FE0
001F00
ENDCHAR
STARTCHAR Upsilontonos
ENCODING 910
SWIDTH 600 0
DWIDTH 22 0
BBX 23 24 -1 0
BITMAP
7DF03E
79F07C
79F07C
F0F87C
70F8F8
60F8F8
007CF8
007DF0
007DF0
003FF0
003FE0
001FE0
001FE0
001FC0
000FC0
000F80
000F80
000F80
000F80
000F80
000F80
000F80
000F80
000F80
ENDCHAR
STARTCHAR Omegatonos
ENCODING 911
SWIDTH 600 0
DWIDTH 22 0
BBX 23 25 -1 0
BITMAP
000400
7C3FC0
787FC0
79FFF0
F1FFF8
73F0F8
63E0FC
07C07C
07C03E
07C03E
07C03E
07C03E
07C03E
07C03E
07C07C
07C07C
03C078
03E0F8
01F1F0
00F9F0
0079E0
07F9FE
07F9FE
07F9FE
07F9FE
ENDCHAR
STARTCHAR iotadieresistonos
ENCODING 912
SWIDTH 600 0
DWIDTH 22 0
BBX 19 29 2 0
BITMAP
00F000
00F000
00F000
3DEF00
3CEF00
3DCF00
3D8F00
000000
000000
000000
FFC000
FFC000
FFC000
07C000
07C000
07C000
07C000
07C000
07C000
07C000
07C000
07C000
07C000
03E100
03E1C0
03FFE0
01FFE0
01FF80
003E00
ENDCHAR
STARTCHAR Alpha
ENCODING 913
SWIDTH 600 0
DWIDTH 22 0
BBX 21 24 1 0
BITMAP
01F800
01FC00
03FC00
03FC00
03DE00
03FE00
079E00
0F8F00
079F00
0F0F80
0F8F80
1F0F80
1F07C0
1F07C0
3FFFC0
3FFFC0
3FFFE0
7FFFE0
7C03E0
7C01F0
F801F0
F801F0
F800F8
F801F8
ENDCHAR
STARTCHAR Beta
ENCODING 914
SWIDTH 600 0
DWIDTH 22 0
BBX 19 24 2 0
BITMAP
7FC000
FFFE00
7FFF80
FFFF80
7C7F80
7C0F80
7C0F80
7C0F80
7C0F80
FFFF00
7FFE00
7FF800
7FFF80
7C3F80
7C07E0
7C03E0
7C03E0
7C03E0
7C07E0
7C1FC0
7FFFC0
7FFF80
7FFF80
7FE000
ENDCHAR
STARTCHAR Gamma
ENCODING 915
SWIDTH 600 0
DWIDTH 22 0
BBX 17 23 3 1
BITMAP
FFFF80
FFFF80
FFFF80
FFFF80
7C0000
7C0000
7C0000
7C0000
7C0000
7C0000
7C0000
7C0000
7C0000
7C0000
7C0000
7C0000
7C0000
7C0000
7C0000
7C0000
7C0000
7C0000
7C0000
ENDCHAR
STARTCHAR Delta
ENCODING 916
SWIDTH 600 0
DWIDTH 22 0
BBX 21 24 0 0
BITMAP
00FE00
00FE00
01FF00
01FE00
03DF00
03FF00
07CF80
07CF80
07CF80
0F87C0
0F87C0
0F87C0
1F03E0
1F03E0
3E01F0
3E01F0
3E01F0
7C00F8
7C00F8
FFFFF8
FFFFF8
FFFFF8
FFFFF8
FFFFF8
ENDCHAR
STARTCHAR Epsilon
ENCODING 917
SWIDTH 600 0
DWIDTH 22 0
BBX 18 24 2 0
BITMAP
FFFF80
FFFF80
FFFF80
FFFF80
7C0000
7C0000
7C0000
7C0000
7C0000
7C0000
FFFF00
FFFF00
FFFF00
FFFF00
7C0000
7C0000
7C0000
7C0000
7C0000
7C0000
FFFFC0
FFFFC0
FFFFC0
FFFFC0
ENDCHAR
STARTCHAR Zeta
ENCODING 918
SWIDTH 600 0
DWIDTH 22 0
BBX 18 24 3 0
BITMAP
7FFFC0
7FFFC0
7FFFC0
FFFF80
001F80
003F00
007E00
00FC00
00FC00
01F800
03F000
07E000
07E000
0FC000
1F8000
1F8000
3F0000
7E0000
FC0000
FFFFC0
FFFFC0
FFFFC0
FFFFC0
FFFFC0
ENDCHAR
STARTCHAR Eta
ENCODING 919
SWIDTH 600 0
DWIDTH 22 0
BBX 17 24 2 0
BITMAP
7C0F80
7C0F80
7C0F80
7C0F80
7C0F80
7C0F80
7C0F80
7C0F80
7C0F80
FFFF80
FFFF80
FFFF80
FFFF80
7C0F80
7C0F80
7C0F80
7C0F80
7C0F80
7C0F80
7C0F80
7C0F80
7C0F80
7C0F80
7C0F80
ENDCHAR
STARTCHAR Theta
ENCODING 920
SWIDTH 600 0
DWIDTH 22 0
BBX 20 25 1 0
BITMAP
002000
03FE00
0FFF00
1FFF80
1FFF80
3FFFC0
3E03E0
7E07E0
FC03E0
7C01F0
7C01F0
7DF9F0
7DF9F0
7DF9F0
7C01F0
7C01F0
7C03E0
7C03E0
3E07E0
3E03E0
3F9FC0
1FFFC0
1FFF80
07FE00
01F800
ENDCHAR
STARTCHAR Iota
ENCODING 921
SWIDTH 600 0
DWIDTH 22 0
BBX 16 24 4 0
BITMAP
FFFF
FFFF
FFFF
FFFF
07E0
07E0
07E0
07E0
07E0
07E0
07E0
07E0
07E0
07E0
07E0
07E0
07E0
07E0
07E0
07E0
FFFF
FFFF
FFFF
FFFF
ENDCHAR
STARTCHAR Kappa
ENCODING 922
SWIDTH 600 0
DWIDTH 22 0
BBX 20 24 2 0
BITMAP
7C07E0
7C0FC0
7C1F80
7C1F80
7C3F00
7C7E00
7CFC00
7DF800
7DF000
7FE000
7FF000
FFF000
7FF800
FFF800
FEFC00
FC7E00
7C7E00
7C3F00
7C1F80
7C1F80
7C0FC0
7C0FC0
7C07F0
7C03F0
ENDCHAR
STARTCHAR Lambda
ENCODING 923
SWIDTH 600 0
DWIDTH 22 0
BBX 21 24 0 0
BITMAP
00FC00
01FC00
01FC00
01FE00
03FE00
03FF00
03FF00
03FF00
07CF80
07CF80
07CF80
0F8F80
0F87C0
0F87C0
1F07C0
1F03E0
1F03E0
1F03E0
3E01F0
3E03F0
3E01F0
7C00F8
FC01F8
7C00F8
ENDCHAR
STARTCHAR Mu
ENCODING 924
SWIDTH 600 0
DWIDTH 22 0
BBX 19 24 2 0
BITMAP
7E07E0
FE0FC0
FE0FE0
7F0FE0
F70FE0
FF1DE0
F79FE0
F7BDE0
F79DE0
F3B9E0
F3FDE0
F3B9E0
F3B9E0
F1F9E0
F1F9E0
F1F1E0
F0F1E0
F001E0
F001E0
F001E0
F001E0
F001E0
F001E0
F001E0
ENDCHAR
STARTCHAR Nu
ENCODING 925
SWIDTH 600 0
DWIDTH 22 0
BBX 18 24 2 0
BITMAP
7E07C0
FE07C0
FE07C0
7F07C0
FF07C0
7F87C0
7F87C0
7F87C0
7BC7C0
7FC7C0
7BC7C0
79E7C0
F9E7C0
F8F7C0
F8F7C0
F8F780
F87F80
F87F80
F87F80
F83FC0
F83F80
F83F80
F81FC0
F81F80
ENDCHAR
STARTCHAR Xi
ENCODING 926
SWIDTH 600 0
DWIDTH 22 0
BBX 18 24 2 0
BITMAP
7FFFC0
7FFFC0
7FFFC0
7FFFC0
000000
000000
000000
000000
000000
1FFE00
1FFE00
1FFE00
1FFE00
000000
000000
000000
000000
000000
000000
FFFFC0
FFFFC0
FFFFC0
FFFFC0
FFFFC0
ENDCHAR
STARTCHAR Omicron
ENCODING 927
SWIDTH 600 0
DWIDTH 22 0
BBX 20 25 1 0
BITMAP
002000
03FE00
0FFF80
1FFFC0
1FFFC0
7FFFC0
3E07C0
7C03E0
FC03F0
7C03E0
7C03E0
7C03E0
7C03E0
7C03E0
7C03E0
7C03E0
FC03F0
7C07E0
3E03E0
3E07C0
3F0FC0
1FFFC0
1FFFC0
07FF00
01F800
ENDCHAR
STARTCHAR Pi
ENCODING 928
SWIDTH 600 0
DWIDTH 22 0
BBX 17 24 2 0
BITMAP
FFFF80
FFFF80
FFFF80
FFFF80
7C0F80
7C0F80
7C0F80
7C0F80
7C0F80
7C0F80
7C0F80
7C0F80
7C0F80
7C0F80
7C0F80
7C0F80
7C0F80
7C0F80
7C0F80
7C0F80
7C0F80
7C0F80
7C0F80
7C0F80
ENDCHAR
STARTCHAR Rho
ENCODING 929
SWIDTH 600 0
DWIDTH 22 0
BBX 19 24 2 0
BITMAP
7F8000
FFFE00
7FFF00
FFFF80
7C7FC0
7C0FC0
7C0FC0
7C07E0
7C0FC0
7C07C0
7C0FC0
FFFF80
FFFF00
FFFE00
7FFC00
7C0000
7C0000
7C0000
7C0000
7C0000
7C0000
7C0000
7C0000
7C0000
ENDCHAR
STARTCHAR Sigma
ENCODING 931
SWIDTH 600 0
DWIDTH 22 0
BBX 19 24 2 0
BITMAP
7FFFC0
7FFFC0
7FFFC0
7FFFC0
7E0000
3F0000
1F8000
07E000
03F000
01F800
01F800
00F800
01F800
03F000
07E000
0FC000
1F8000
3F0000
3E0000
FFFFE0
FFFFE0
FFFFE0
FFFFE0
FFFFE0
ENDCHAR
STARTCHAR Tau
ENCODING 932
SWIDTH 600 0
DWIDTH 22 0
BBX 19 24 2 0
BITMAP
FFFFE0
FFFFE0
FFFFE0
FFFFE0
01F000
01F000
01F000
01F000
01F000
01F000
01F000
01F000
01F000
01F000
01F000
01F000
01F000
01F000
01F000
01F000
01F000
01F000
01F000
01F000
ENDCHAR
STARTCHAR Upsilon
ENCODING 933
SWIDTH 600 0
DWIDTH 22 0
BBX 20 24 1 0
BITMAP
FC01F0
7C01F0
7C03E0
3E03E0
3E07C0
1F07C0
1F1F80
0F9F00
07DF00
07FE00
03FE00
03FC00
01FC00
00F800
00F800
00F800
00F800
00F800
00F800
00F800
00F800
00F800
00F800
00F800
ENDCHAR
STARTCHAR Phi
ENCODING 934
SWIDTH 600 0
DWIDTH 22 0
BBX 22 24 0 0
BITMAP
007800
007800
007800
007C00
1FFFE0
1FFFF0
3FFBF8
7C78F8
7C78F8
F8787C
F8787C
F8787C
F8787C
7C787C
7C78F8
7C78F8
7F7BF0
1FFFF0
0FFFF0
07FF80
007800
007800
007800
007800
ENDCHAR
STARTCHAR Chi
ENCODING 935
SWIDTH 600 0
DWIDTH 22 0
BBX 21 24 1 0
BITMAP
FC01F0
7C03F0
3F07C0
1F07C0
1F0F80
0FDF00
07DF00
07FE00
03FE00
01FC00
01F800
01F800
01FC00
03FE00
07FE00
07DF00
0F9F00
0F8FC0
3F07C0
3E07C0
3E07E0
FC01F0
F801F8
F801F8
ENDCHAR
STARTCHAR Psi
ENCODING 936
SWIDTH 600 0
DWIDTH 22 0
BBX 21 24 1 0
BITMAP
78F0F0
78F0F0
78F0F0
78F0F0
78F0F0
78F0F0
78F0F0
78F0F0
78F0F0
78F0F0
F8F0F8
78F0F0
7EF3F0
7FFFE0
3FFFC0
1FFF80
01FC00
00F000
00F000
00F000
00F000
00F000
00F000
00F000
ENDCHAR
STARTCHAR Omega
ENCODING 937
SWIDTH 600 0
DWIDTH 22 0
BBX 20 25 1 0
BITMAP
002000
03FE00
07FE00
1FFF80
3FFFC0
3F07E0
7E03F0
7C03E0
7E01F0
7C01F0
7C01F0
7C01F0
7C01F0
7C01F0
7C03E0
3E03E0
3E03E0
1F07C0
1F0F80
0F8F80
078F00
FF9FF0
FF9FF0
FF9FF0
FF9FF0
ENDCHAR
STARTCHAR Iotadieresis
ENCODING 938
SWIDTH 600 0
DWIDTH 22 0
BBX 16 30 4 0
BITMAP
3C78
3C78
3C78
0000
0000
0000
FFFF
FFFF
FFFF
FFFF
07E0
07E0
07E0
07E0
07E0
07E0
07E0
07E0
07E0
07E0
07E0
07E0
07E0
07E0
07E0
07E0
FFFF
FFFF
FFFF
FFFF
ENDCHAR
STARTCHAR Upsilondieresis
ENCODING 939
SWIDTH 600 0
DWIDTH 22 0
BBX 20 30 1 0
BITMAP
0F0F00
0F0F00
0F0F00
000000
000000
000000
FC01F0
7C01F0
7C03E0
3E03E0
3E07C0
1F07C0
1F1F80
0F9F00
07DF00
07FE00
03FE00
03FC00
01FC00
00F800
00F800
00F800
00F800
00F800
00F800
00F800
00F800
00F800
00F800
00F800
ENDCHAR
STARTCHAR alphatonos
ENCODING 940
SWIDTH 600 0
DWIDTH 22 0
BBX 20 28 2 0
BITMAP
00F800
007800
00F000
00E000
00E000
01C000
000000
000000
0F0000
3FE1F0
3FF9E0
7FFBC0
7FFFE0
F81FC0
F81F80
F81F80
F81F80
F80F80
F80F80
F81F80
F81F80
F81F80
FC1FC0
F83FC0
7FFFC0
7FF3E0
3FE3E0
0FC3E0
ENDCHAR
STARTCHAR epsilontonos
ENCODING 941
SWIDTH 600 0
DWIDTH 22 0
BBX 18 28 2 0
BITMAP
007C00
007800
00F000
007000
00E000
00E000
000000
000000
004000
0FFF00
1FFF80
3FFFC0
7E0F00
7C0200
7C0000
3F0000
1FF800
07F800
03F800
3FF800
7F0000
7C0000
7C0100
FC1F80
7E3FC0
3FFF80
3FFE00
07FC00
ENDCHAR
STARTCHAR etatonos
ENCODING 942
SWIDTH 600 0
DWIDTH 22 0
BBX 18 35 2 -7
BITMAP
007C00
007800
007800
00F000
00E000
006000
000000
000000
000800
F8FF00
7DFF80
7FFF80
7FFFC0
7E07C0
7C07C0
7C07C0
7C07C0
7C07C0
7C07C0
7C07C0
7C07C0
7C07C0
7C07C0
7C07C0
7C07C0
7C07C0
7C07C0
7C07C0
0007C0
0007C0
0007C0
0007C0
0007C0
0007C0
0007C0
ENDCHAR
STARTCHAR iotatonos
ENCODING 943
SWIDTH 600 0
DWIDTH 22 0
BBX 19 28 2 0
BITMAP
00F800
00F800
00F000
01E000
01C000
00C000
000000
000000
000000
FFC000
FFC000
FFC000
07C000
07C000
07C000
07C000
07C000
07C000
07C000
07C000
07C000
07C000
03E100
03E1C0
03FFE0
01FFE0
01FF80
003E00
ENDCHAR
STARTCHAR upsilondieresistonos
ENCODING 944
SWIDTH 600 0
DWIDTH 22 0
BBX 18 29 2 0
BITMAP
00F000
00F000
01E000
3DDE00
3DDE00
3DDE00
3DDE00
000000
000000
000000
F81F00
F81F00
F80F80
F80F80
F80F80
F80F80
F807C0
F807C0
F807C0
F807C0
F807C0
F80F80
7C0F80
7C0F80
7C0F80
7FFF00
3FFE00
1FFC00
03F000
ENDCHAR
STARTCHAR alpha
ENCODING 945
SWIDTH 600 0
DWIDTH 22 0
BBX 20 20 2 0
BITMAP
0F0000
3FE1F0
3FF9E0
7FFBC0
7FFFE0
F81FC0
F81F80
F81F80
F81F80
F80F80
F80F80
F81F80
F81F80
F81F80
FC1FC0
F83FC0
7FFFC0
7FF3E0
3FE3E0
0FC3E0
ENDCHAR
STARTCHAR beta
ENCODING 946
SWIDTH 600 0
DWIDTH 22 0
BBX 19 34 2 -7
BITMAP
004000
0FFC00
1FFE00
7FFF00
7FFF00
7E0F80
7C0F80
7C0F80
F80F80
F81F00
F81F00
F8FE00
F8F800
F8F800
F8FF00
F8FF80
F80FC0
F807C0
F803E0
F803E0
F803E0
F807C0
F80FC0
7FFFC0
7FFF80
FFFF00
F8F800
F80000
F80000
F80000
F80000
F80000
F80000
F80000
ENDCHAR
STARTCHAR gamma
ENCODING 947
SWIDTH 600 0
DWIDTH 22 0
BBX 20 26 1 -7
BITMAP
FC01F0
7C01F0
3E01F0
3E03E0
3E03E0
1F07C0
1F07C0
0F87C0
0F8F80
0F8F80
07CF80
03CF00
07DE00
03DE00
01FE00
01FE00
01FC00
00FC00
00F800
00F800
01F000
01F000
01F000
01F000
01F000
03E000
ENDCHAR
STARTCHAR delta
ENCODING 948
SWIDTH 600 0
DWIDTH 22 0
BBX 18 27 2 0
BITMAP
3FFF80
3FFF80
3FFF80
3FFF80
1F8000
0FC000
07E000
01F800
00FC00
00FC00
0FFF00
1FFF80
3E1F80
7C0FC0
F807C0
F80FC0
F807C0
F807C0
F807C0
F807C0
F807C0
F807C0
7C0F80
7FFF80
3FFF00
3FFE00
03FC00
ENDCHAR
STARTCHAR epsilon
ENCODING 949
SWIDTH 600 0
DWIDTH 22 0
BBX 18 20 2 0
BITMAP
004000
0FFF00
1FFF80
3FFFC0
7E0F00
7C0200
7C0000
3F0000
1FF800
07F800
03F800
3FF800
7F0000
7C0000
7C0100
FC1F80
7E3FC0
3FFF80
3FFE00
07FC00
ENDCHAR
STARTCHAR zeta
ENCODING 950
SWIDTH 600 0
DWIDTH 22 0
BBX 17 34 3 -7
BITMAP
3FFF80
3FFF80
3FFF80
3FFF80
000F80
003E00
007C00
00F800
01F000
03E000
07C000
0F8000
1F0000
1F0000
3E0000
3E0000
7C0000
7C0000
7C0000
7C0000
7C0000
FC0000
7F0000
7FE000
3FFE00
0FFF00
01FF80
00FF80
000780
000780
000780
000780
000700
000100
ENDCHAR
ENDFONT
